
<svg xmlns="http://www.w3.org/2000/svg" version="1.1" xmlns:xlink="http://www.w3.org/1999/xlink" preserveAspectRatio="none" x="0px" y="0px" width="400px" height="400px" viewBox="0 0 400 400">
<defs>
<g id="Layer0_0_FILL">
<path fill="#E38083" stroke="none" d="
M 180.1 349.55
L 180.1 357.05 229.45 357.8 229.35 349.55 180.1 349.55
M 223.05 257.2
L 220.45 256.85 209.1 345.55 211.85 345.55 223.05 257.2
M 186.35 256.85
L 183.9 257.15 193.85 345.55 196.35 345.55 186.35 256.85
M 254.55 256.85
L 251.35 256.85 220.15 344.7 222.6 345.55 254.55 256.85
M 158.6 256.85
L 156.2 257.7 186.1 345.55 189.1 345.55 158.6 256.85
M 184.85 22.3
L 166.4 27
Q 132.35 49.7 113.9 87 86.05 157.2 159.85 249.05 160.85 250.3 161.9 251.6
L 173.4 251.6
Q 122.5 139.7 146.4 73 155.1 49.1 172.25 32.65 178.05 27.05 184.85 22.3
M 210.15 27.85
Q 208.35 24.75 206.4 22
L 194.85 22.3
Q 193.05 24.55 191.45 27.05 178.75 45.95 174.4 76 160.55 152.85 190.4 251.6
L 211.4 251.6
Q 244.25 86.85 210.15 27.85
M 291.85 92.5
Q 283.35 70 268.7 53.1 256.6 39.2 240.35 29.05
L 218.4 23
Q 227.45 28.45 234.75 35.05 245.45 44.75 252.4 57 292.5 141.7 225.9 251.6
L 239.85 251.6
Q 241.45 249.9 243.05 248.15 314.35 170.35 291.85 92.5 Z"/>

<path fill="#EAA0A2" stroke="none" d="
M 180.1 357.05
L 180.1 373.8
Q 180.8 379.35 187.35 379.05
L 224.1 379.05
Q 229.8 378.45 229.6 372.8
L 229.45 357.8 180.1 357.05
M 235.85 345.55
L 222.6 345.55 211.85 345.55 209.1 345.55 196.35 345.55 193.85 345.55 189.1 345.55 186.1 345.55 174.35 345.55 174.35 349.55 180.1 349.55 229.35 349.55 235.6 349.55 235.85 345.55
M 268.7 53.1
Q 283.35 70 291.85 92.5 314.35 170.35 243.05 248.15 241.45 249.9 239.85 251.6
L 225.9 251.6
Q 292.5 141.7 252.4 57 245.45 44.75 234.75 35.05 227.45 28.45 218.4 23
L 206.4 22
Q 208.35 24.75 210.15 27.85 244.25 86.85 211.4 251.6
L 190.4 251.6
Q 160.55 152.85 174.4 76 178.75 45.95 191.45 27.05 193.05 24.55 194.85 22.3
L 184.85 22.3
Q 178.05 27.05 172.25 32.65 155.1 49.1 146.4 73 122.5 139.7 173.4 251.6
L 161.9 251.6
Q 160.85 250.3 159.85 249.05 86.05 157.2 113.9 87 132.35 49.7 166.4 27 81.45 54.1 75.9 132 78.75 198.2 156.65 251.6 153.3 251.6 152.9 254.5 152.75 256.75 155.9 256.85
L 158.6 256.85 186.35 256.85 220.45 256.85 251.35 256.85 254.55 256.85
Q 257.55 256.85 257.65 254.5 257.65 251.6 253.8 251.6
L 246.8 251.6
Q 249.1 249.95 251.35 248.3 310.1 204.6 320.6 149.3 337.1 92.7 275.85 47.05 260.75 35.8 240.35 29.05 256.6 39.2 268.7 53.1 Z"/>
</g>
</defs>

<g transform="matrix( 1, 0, 0, 1, 0,0) ">
<use xlink:href="#Layer0_0_FILL"/>
</g>
</svg>
