
<svg xmlns="http://www.w3.org/2000/svg" version="1.1" xmlns:xlink="http://www.w3.org/1999/xlink" preserveAspectRatio="none" x="0px" y="0px" width="650px" height="650px" viewBox="0 0 650 650">
<defs>
<g id="Layer0_0_FILL">
<path fill="#3A4664" stroke="none" d="
M 418.1 172.8
L 418.05 172.8
Q 417.02265625 172.3505859375 416.05 172.25 415.35 172.15 415.2 172.55 415 172.85 415.5 173.4 417.95 175.65 419.9 178.85 420.15 179.3 420.2 179.7 420.2 180.2 419.7 180.8 419.45 181.05 419.1 181.25 418 182.1 417.2 182.4 416.35 182.75 416.3 182.8 416.05 183 416.05 183.5 416 183.95 416.25 184.2
L 417.1 184.7
Q 417.8 185.1 418.1 186.05 418.3 186.55 418.55 187.8 419.2 191.3 421.4 194.25 421.5 194.3 421.55 194.4 421.5 194.95 422.3 194.95 425.1 195.15 427.95 194.8 429.55 194.65 430.1 194.65 431.3 194.65 432.1 195.1 432.7 195.35 433.3 195.9 433.7 196.2 434.35 196.9 434.6 197.1 437.2 199.1 439.35 200.8 442.5 204.55 443.4 205.6 444.4 206.9 445.1 207.75 445.25 208.3
L 445.25 208.35
Q 445.55 209.45 444.75 210
L 440.45 204.55
Q 439.1 202.85 438.2 202.25 438.05 202.1 436.1 200.95 434.8 200.25 434.3 199.45 433.8 198.8 433.45 198.8 432.95 198.9 432.95 199.5 432.95 199.9 433.4 200.35 433.8 200.9 437.25 204.7 439.5 207.35 440.45 209.4 440.9 210.25 441.4 212 441.95 213.75 442.3 214.55 442.6 215.1 443.25 216.25 443.75 217.3 443.85 218.05 444 218.6 444 219.95 444 221.15 444.15 221.8 444.3 222.35 444.25 222.45 444.15 222.95 443.35 223.15 442.45 223.25 442 223.4 441.2 223.6 440.9 224.05 440.55 224.55 440.65 225.6 441.05 230.3 441.55 233.7 441.2 233.55 440.9 233.9 440.5 234.25 440.6 234.65 440.7 235.25 441.6 235.85 442.95 236.85 445.75 238.6 448.15 240.3 449.2 242 449.4 242.35 449.75 242.5 449.85 242.55 449.95 242.6 449.8240234375 244.6150390625 449.4 246.35 449.33828125 246.679296875 449.25 247 449.25 247.15 449.2 247.25
L 447.7 247.25
Q 445.95 244.85 444.65 242.65 443.75 241.25 443.05 241 442.25 240.85 441.8 240.7 441 240.5 440.35 239.85 439.85 239.25 439.3 238 438.6 236.55 438.2 236.15 437.3 235.25 436.25 235.55 435.5 235.75 434.8 237.1 434.7 237.25 434.65 237.4 433.95 238.5 433.45 238.75
L 432.4 235.05
Q 432.2 234.4 431.9 234.05 431.65 233.75 431.05 233.7 430.6 233.7 430.15 233.9 429.5 234.35 429.1 235.4 428.9 236 428.55 237.25 428.25 238.15 427.5 239.2 426.65 240.4 426.25 241 425.9 241.45 426 241.75 425.95 241.75 425.9 241.8 425.6 241.95 425.65 242.2 425.7 242.45 426.1 242.75
L 430.15 245.55
Q 431.35 246.35 432.1 246.2 432.85 246.05 433.9 245.05 434.95 244.5 437.35 244.85 436.95 245.45 435.85 246.2 434.8 247 434.45 247.6 433.85 248.4 433.85 249.35 433.85 250.85 435.25 252.25 435.65 252.65 437.8 254.25 440.9 256.7 442.85 259.75 443.25 260.45 443.25 260.85 443.25 261 443.25 261.1 443.25 261.4 443 261.8 442.75 262.3 442.7 262.5 442.5 263.45 443.45 264.3 444.95 265.5 445 265.55 445.95 266.6 446.05 269.1 446.25625 275.4576171875 444.8 279.9 444.1849609375 281.9240234375 443.2 283.55 442.75 284.3 442.25 284.95 440.3 287.5 435.95 290.3 435.55 290.6 435.55 290.75 435.55 290.85 435.6 290.95
L 430.45 294.7
Q 428.2 296.25 428.1 297.7 427.85 297.55 427.6 297.3 427.3 297 427 296.4 426.85 296.25 426.75 296.15 426.3 295.35 425.9 295.2 425.4 294.85 424.7 294.95 424.1 295.05 423.6 295.35 422.75 295.9 421.9 297.15 418.8 301.7 418.2 304.7 418 306.45 418.5 307.35 418.85 307.95 420.05 308.9
L 424.25 311.8
Q 425.95 313 426.45 313.7 427 314.3 427.75 315.85 429.05 318.25 429.45 319.6 430.15 321.85 429.95 323.65 429.7 325.05 428.9 326.6 428.35 327.5 427.15 329.3
L 421.15 337.6 420.1 332.8
Q 419.95 332 419.7 331.8 419.3 331.5 418.5 331.6
L 417.45 331.6
Q 416.9 331.7 416.5 331.5 416.1 331.25 415.75 330.25 414.65 327.2 413.05 326 412 325.2 410.65 325.05 409.95 325 409.4 325.15 408.75 325.25 408.25 325.6 408.05 325.4 407.75 324.25 407.5 323.3 407 323.1 406.3 322.75 405.65 323.4 404.85 324.15 404.75 325.7 404.75 325.9 404.75 326.1 404.75 326.9 404.8 328.25 404.75 328.65 404.45 329.6 404.2 330.45 403.75 331.75 403.3625 332.7671875 403.3 333.6
L 403.3 333.65
Q 403.25 334.2 403.35 334.7 403.35 334.9 403.45 335.15 403.7 336.05 404.7 337.1 406.3 338.8 406.35 338.85 406.8 339.4 407.6 341.05 408.25 342.45 408.85 343.05 409.6 343.95 411.3 344.8 413.5 346 414 346.35 416.75 348.3 417.95 352.35 418.55 354.75 418.75 359.55 418.75 359.6 418.75 359.7 418.45 359.65 418.2 359.6 417.05 359.25 415.8 358.4 415.778125 358.3837890625 415.75 358.35 414.8142578125 357.6654296875 413.3 356.2 411.25 354.35 410.5 352.95 409.85 351.9 409.55 350.2 409.15 348.25 408.95 347.3 408.05 343.7 406 341.9 404.8 340.95 404.2 340.4 403.1 339.55 402.65 338.75 402.05 337.5 402.35 335.6 402.6 334.45 402.8 333.6 402.85 333.2 402.9 332.9 402.95 332.6 403 332.3 403.05 331.5 403.05 330.6 403 329.45 402.7 328.25 402.55 327.6 402.3 326.8 402 325.7 401.5 324.25 400.35 321 399.6 319.15 398.4 316.4 397 314.45 397 314.35 396.95 314.3 397.2 314.05 397.15 313.8 397.1 313.55 396.8 313.45 396.45 313.4 396.1 313.55 395.45 313.85 394.7 314.75 394 315.8 393.6 316.25 393.3 316.6 392.9 316.9 392.5 317.2 392.05 317.35 391.05 317.7 390.35 317.2 389.6 316.55 389.6 314.85 389.5 312.1 389.2 311.3 388.7 309.6 386.5 307.65 383.75 305.25 383.15 304.35 382.05 302.3 381.45 301.3 380.7 300.15 379.2 298.55 378.3 297.45 377.55 297.35 376.85 297.25 375.95 298 375.05 298.9 374.6 299.2 373.55 299.95 370.9 300.3 368.25 300.65 367.2 301.45 366.4 302.05 365.7 303.55 364.75 305.6 364.5 306 363.75 307.1 361.5 308.9 358.15 311.6 355.05 314.65 353 316.75 352.4 317.3 350.8 318.65 349.35 319.4 347.8 320.15 347.65 320.25 346.7 320.8 346.35 321.45 345.95 322.35 346.2 324.4 346.6 327.15 346.65 332.75 346.75 334.55 346.45 335.6 346.1 336.45 345.05 337.95 344.7568359375 338.3568359375 344.45 338.75 342.378515625 341.6251953125 340.75 343.65 340.5 343.9 340.35 344 340.1 344.3 339.8 344.35 339.15 344.5 338.45 343.75 337.3 342.55 336.15 339.75
L 331.8 329.4
Q 329.85 324.85 328.55 322.85 326.9 320.5 326.2 319.2 324.95 317.05 324.85 315.25 324.8 314.35 325.25 311.85 325.85 307.25 324.45 302.8 324.25 302.3 324 302.2 323.7 302 323.25 302.3 322.75 302.55 321.1 303.85 319.85 304.85 318.85 304.8 317.8 304.75 316.2 303.3
L 314.75 301
Q 316.15 300.45 317.45 299.45 318.2 298.85 317.95 298.35 317.7 297.95 317 298.05 316.4 298.45 316.05 298.6 315.1 298.95 314.1 298.05 313.6 297.65 312.75 296.25 311.75 294.85 310.25 293.4 308.95 292.15 307.75 291.5 305.35 289.85 302.85 289.8 302.25 289.8 299.4 290.15 296.3 290.55 292.5 290.05 290.05 289.8 285.55 288.9 284.15 288.65 283.45 288.25 282.75 287.85 282.45 287.2 282.4 286.85 282.35 286.5 282.35 285.8 282.05 285.7 281.9 285.65 281.85 285.7 281.95 285.4 281.7 285 281.35 284.3 280.3 284.1 279.45 284 278.4 284.25 277.514453125 284.510546875 277.05 284.65 276.621875 284.7759765625 276.55 284.8 275.5 285 274.75 284.75 274.7 284.75 274.6 284.7 274.15 284.45 273.25 283.8 270.4 281.4 269.3 279.45 268.9 278.85 268 276.85 267.3 275.15 266.6 274.3 265.4 272.8 263.45 272.35 262.25 272.05 261.1 272.4 259.85 272.8 259.35 273.75 258.5 275.35 259.7 277.5 260 278.05 260.85 279.15 261.65 280.15 261.95 280.7 263.35 283.1 262.9 285.9 262.75 286.9 262.75 287.2 262.85 288.05 263.65 288.15 264.1 288.15 264.6 287.4 265.1 286.4 265.4 286.2 266.05 286.6 265.9 287.65 265.8 288.15 265.45 289.15 265.25 290.2 265.95 291.2 266.65 292.1 267.75 292.5 269.4 293.1 272.1 292.45 277 291.1 278.05 287.9
L 278.65 287.85
Q 278.4 290 279.6 292.3 280.9 294.6 283.4 296.25 284.55 297 285 297.3 285.75 298.05 286 298.75 286.25 299.95 285 302.15 284.35 303.1 283.9 303.7 283.4 304.25 283.1 304.5 282.1 304.95 281.6 305.35 281.1 305.75 280.25 307.35 279.35 309 278.3 309.75 277.8 310.1 276.8 310.5 275.75 310.95 275.25 311.2 274.9 311.4 273.95 312.15 273.1 312.75 272.55 313 271.8 313.35 270.65 313.4 269.4 313.45 268.7 313.5 266.15 313.6 264.35 314.85 263.85 315.2 262.75 316.4 261.75 317.45 261.05 317.85 260.25 318.4 258.85 318.7 257.25 319.1 256.5 319.3 255.75 319.55 252.7 321 250.35 322.1 248.75 322.2 247.4 322.2 246.7 322.2 245.45 322.2 244.75 322.55 244.1 322.9 243.9 323.1 243.7 323.2 243.55 323.3 243.15 323.4 242.95 323.4 242 323.4 241.15 321.9 240.695703125 321.1931640625 240.35 320.55 239.3248046875 318.645703125 239.25 317.3 239.2 316.4 239.4 314.85 239.8 313.1 239.8 312.4 239.95 310.45 238.9 307.85 237.55 304.85 237.05 303.4 236.05 300.7 235.7 300 234.7 298.85 234.2 298.15 233.35 297.1 233.2 296.15 233.1 295.65 233.35 293.95 233.429296875 293.4615234375 233.45 292.95 233.7783203125 289.7748046875 232.65 286.65 231.75 284.1 231.65 283.7 231.5 283.05 231.55 281.95 231.55 280.4 231.55 280.25 231.5 277.4 230.1 275 228.8 272.7 227.05 272.9 227.2 270.2 226 267.85 225.6 267.2 225.3 267.1 224.9 266.95 224.55 267.2 224.3 267.3 224.2 267.6 224.15 267.7 224.1 267.75 223.9 268.1 223.9 269.15
L 224.9 285.35
Q 225 287.25 225.4 288.1 225.65 288.75 226.35 289.85 226.4 289.95 226.45 290.1 226.75 291.1 226.75 292.75 226.75 294.9 226.4 297.25 226 300.15 226.25 301.25 226.45 302.4 227.6 304.35 228.9 306.35 229.15 307.4 229.3 308.1 229.35 309.15 229.4 309.75 229.45 310.95 229.6 312.75 230.25 314.55 230.25 314.65 230.25 314.75 230.3 314.95 230.7 315.45 233.5 318.65 234.9 320.25 236.25 321.8 236.75 322.6
L 237.95 325.75
Q 237.9 325.8 237.9 325.85
L 237.9 325.9 237.35 326.3
Q 236.95 326.4 236.8 326.45 236.5 326.6 236.4 327.05 236.35 327.5 236.55 327.9 236.8 328.3 237.8 329 238.1 329.25 238.95 330.1 239.6 330.8 240.15 331.05 241.2 331.75 243.55 331.9 248.7 332.25 251.5 332 255.9 331.65 258.9 329.8
L 257.9 334.9
Q 257.45 337.1 257.1 338.2 256.65 339.65 255.6 341.75 253.3 346.15 250.35 350.35 248.8 352.55 247.4 353.6 246.8 354 245.6 354.65 244.25 355.3 243.75 355.7 243.6 355.8 241.9 357.15 240.8 358.05 239.9 358.4 239.75 358.45 239.65 358.55 239.45 358.3 239.2 358.55 238.85 358.75 238.7 359.1 238.05 360.45 235.55 361.9 232.9 363.45 232.15 364.6 231.55 366 231.1 366.7 230.85 367.3 229.95 368.35 229.05 369.4 228.7 370.05 228.4 370.65 227.95 371.95 227.65 372.4 227.05 373.15 226.25 374 226.05 374.35 224.8 376.2 225.05 378.3 225.15 379.35 225.6 380.65 225.95 381.45 226.55 383 226.65 383.4 227.55 387.1 228.15 389.7 229.05 391.1 229.35 391.55 230.1 392.6
L 230.65 394.9 230.65 394.95
Q 230.55 395.4 230.35 396.15 230.2 397.35 230.65 398.95 230.75 399.25 231.55 401.65 232.8 405.25 231.5 407.15 231.05 407.85 229.9 408.7 227.8 410.25 225.6 411.4 223.95 412.3 223.3 412.8 222.1 413.75 221.75 414.85 221.35 416.1 221.95 417.8 222.35 418.75 223.3 420.65 225 424.45 224.25 428.7 223.6 428.5 222.9 428.75 222.3 429 221.9 429.5 221.1 430.55 221.35 431.95 221.5 433 222 433.8
L 222.8 434.95
Q 222.85 435 222.85 435.1
L 223.15 437.95
Q 222.9 438.5 222.45 439.7 222.2 440.45 221.9 442.1 221.5 443.55 220.65 444.05 220 444.5 218.35 444.6 215.3 444.6 213.05 444.35 211.3 444.15 210.45 443.85 209.35 443.4 207.85 441.95 206.1 440.15 203.7 436.6 200.9 432.65 199.7 431.2 199.15 430.65 196.75 428.05 194.95 426.1 194 424.65 192.5 422.1 191.55 420.9 190.8 420.15 190.5 419.75 189.85 419.05 189.55 418.55 188.95 417.65 188.65 416.25 188.3 414.65 188.05 413.85 187.6 411.85 186.5 409.7 185.3 407.2 183.2 404.2 180.6 400.7 179.3 398.9 177 395.7 176.45 393.6 176.1 392.35 176.1 390.3 176.1 387.6 176.1 387.05 176.25 386.9 176.3 386.4 176.7 382.9 176.7 380.9 176.75 377.8 176.1 375.45 176 375.05 174.9 372.1 174.2 370.1 174.1 368.7 174.05 366.85 173.9 366 173.7 364.95 172.95 363.55 172 362.05 171.55 361.25 170.85 359.95 169.85 357.25
L 168.25 352.6
Q 167.6 351.05 167.35 349.85 167.2 348.7 167.3 346.35
L 167.45 340.75
Q 167.45 340.65 167.45 340.6 167.6 340.45 167.65 340.15 168.75 335.8 167.9 331.45 167.65 330 167.2 329.25 166.85 328.55 166.1 327.9 165.25 327.1 164.8 326.7 163.1 325.2 162.75 323.8 162.7 323.45 162.8 321.45 162.9 319.9 162.35 319.15 161.95 318.6 161.15 318.25 159 317.35 157.6 318.4 157.05 318.85 156.85 318.8 156.55 318.8 156.1 318.3 155.15 316.95 153.65 315.6 152.95 314.95 152.55 315.4 152.35 315.6 152.5 315.85
L 149.75 315.7
Q 149.75 315.75 149.75 315.8 149.55 320.35 149.55 325 149.55 399.8 202.4 452.6 255.25 505.5 330.1 505.5 396.35 505.5 445.4 463.95
L 445.45 463.9 443.95 462.15
Q 444.3 462.15 444.5 461.6 446.1 457.15 450.8 452.15 451.85 451.1 453.85 449.05 454.3 448.6 454.75 448.05 457.15 445.65 458.55 443.8 461.45 440.15 461.15 437.3 461.05 436.25 460.5 435.8 460.1 435.5 459.25 435.55 458.15 435.55 456.8 436.5 455.4 437.6 454.6 438.15 453.25 439.1 449.65 440.55 446.3 442 444.75 443.2 443.95 443.95 443.55 444.35 442.85 445 442.3 445.35 441.7 445.7 440.7 446 439.2 446.55 439.15 446.55 438.1 446.9 436.6 447.7 434.3 448.95 434.15 449 431.1 450.5 428.85 450 428.65 449.3 429.15 448.55 429.4 448.2 430.2 447.3 432.05 445.35 432.95 442.1 433.55 439.85 433.8 436.2 433.95 433.25 434.25 431.85 434.45 431.15 435.45 428.05 436.5 424.9 436.85 424.2 437.7 422.4 439.75 420.2 444.15 415.6 450.2 413.4 450.8 413.15 451.95 412.75 452.95 412.35 453.55 411.9 454.45 411.3 455.95 409.4 458.15 406.55 460.85 402.6 462.9 399.4 463.7 398.35 465.35 396.1 467 394.55 468.030859375 393.6197265625 468.95 393.25 469.9048828125 392.8759765625 470.75 393.05 470.55 393.5 471 394 471.35 394.4 471.95 394.45 472.9 394.5 473.8 393.5 474.35 392.9 475 391.55 475.8 390.05 476.1 389.55 476.9 388.45 478.8 386.75 481 384.55 480.3 382.6 483.2 383.15 486.15 382.05 483.45 384.35 483.2 387.9 482.8 391.4 485.05 394.25 485.65 395 486.3 395.25 487.15 395.4 487.85 394.75 488.55 394.1 488.55 393.3 488.75 391.65 489.8 389.5 491.35 386.15 491.45 385.8 491.55 385.6 492.45 382.75 493.1 380.9 493.75 379.8 494.6 378.3 494.7 377.9 494.85 377.55 495.05 376.25 495.15 375.15 495.5 374.65 495.7 376.6 495.55 378.05
L 495.3 379.4 494.65 381.4
Q 494.4 382.1 494.3 384.1
L 494.2 387.55
Q 494.2 388.05 494.3 388.4 494.45 388.75 494.7 388.8 495.25 389 495.95 388.25
L 500.35 383.45
Q 500.65 383.2 500.7 382.95
L 501.4 383.2
Q 501.7 382.25 502.05 381.25 504.25 374.2 505.9 367 505.9 366.9 505.95 366.85
L 505.95 366.75
Q 510.45 346.8212890625 510.45 325.15 510.45 250.4 457.5 197.45 449.6 189.55 441.15 182.8 439.6 181.55 438.2 180.2 431.6 175.2 424.65 170.85 423.85 170.3 423 169.8
L 421.75 171.8 421.75 171.85 421.4 172.45 422.65 171.55
Q 422.58984375 171.6408203125 422.55 171.8
L 422.7 172.65
Q 422.7 172.85 422.9 173.35 423.2 173.65 423.5 174.1 424.95 176.05 426.7 177.65 427.65 178.5 428.2 178.85 429.9 179.7 430 179.8 430.65 180.2 431.45 181.25 432.4 182.5 432.75 182.85 433.2 183.25 433.95 183.75 434.45 184 435.3 184.5 436.7283203125 185.3771484375 437.9 186.6 439.12734375 187.8537109375 440.1 189.45 441.35 191.35 441.4 191.45 442.2 192.45 443.05 193 442.4951171875 192.7080078125 441.85 192.25 441.4283203125 191.9744140625 440.95 191.6 439.55 190.5 438.9 189.9 438.4 189.55 432.85 185.85 429.2 183.4 427.45 181.1 426.1 178.8 425.2 177.8 424.1 176.55 422.05 175.2 421.65 174.85 421.2 174.6 420.85 174.35 420.55 174.15 420.5 174.1 420.4 174.05 420.1 173.85 419.9 173.7 419.85 173.65 419.75 173.65 419.4 173.45 419.15 173.35 418.6171875 173.043359375 418.1 172.8
M 253.9 401.5
Q 256 402.3 256.6 404.4 256.85 405.25 256.85 407.1
L 256.8 418.3
Q 256.8 420.9 256.75 422.2 256.5 424.7 256.05 426.4 255.55 428.45 254.85 429.8 254.6 430.1 253.75 431.35 253.05 432.3 252.75 432.95 252.45 433.75 252.2 433.9 251.95 434.05 251.45 434.05 250.55 434.15 249.8 434 248.5 433.7 247.15 432.5 244.95 430.4 244.05 427.25 243.25 424.15 244.1 421.2 244.6 419.6 244.55 419.05 244.5 418.7 244.25 418.1 244 417.45 243.9 417.15 243.2 415.5 243.5 412 243.95 411.75 244.8 411.5 245.7 411.25 246 411.05 246.45 410.8 246.85 410.2
L 247.65 409.15
Q 248.2 408.5 250.4 407.2 252.15 406.25 252.75 405.25 253.2 404.5 253.4 403.35
L 253.9 401.5
M 346.5 343.2
Q 347.5 341.9 347.75 341.1 348.5 340.95 349.15 341.55 349.55 341.9 349.6 342.15 349.65 342.4 349.6 342.95 349.7 343.25 349.95 343.55
L 350.55 344.35
Q 351.2 345.25 351.6 345.65 352.35 346.4 352.3 346.7 352.3 347.05 351.85 347.6 351.6 348 351.45 348.5
L 351.25 349.05
Q 351.2 349.2 350.75 349.6
L 350.05 350.35
Q 349.85 350.5 349.7 350.55 349.6 350.65 349.25 350.65 348.2 350.65 347.95 350.6 347.35 350.5 346.85 350.15 346.55 349.8 346.1 348.8 345.75 347.6 345.7 347.05
L 345.65 345.7
Q 345.65 344.85 345.75 344.55 346 344.1 346.15 343.9
L 346.5 343.2
M 449.25 283
Q 449.25 281.8 449.35 281.1 449.65 280.15 449.8 279.65 449.85 279.45 450.05 279.05 450.45 279.3 450.7 279.7 450.9 280.15 450.8 280.6
L 450.75 281
Q 450.7 281.2 450.7 282.2 450.7 283.05 450.4 284.6 450.35 285.25 450.4 286.7 449.7 286.1 449.15 285.25 449.25 285.15 449.25 284.9
L 449.25 283
M 457.3 306.55
Q 456.95 307.1 456.85 307.4 456.65 308 456.95 308.55 457.25 309.15 457.8 309.3
L 457.8 310.25
Q 457.7 310.9 458.05 311.15 458.25 311.4 458.75 311.4
L 460.8 311.6
Q 461.95 311.75 462.7 312.3 463.7 313 463.6 314.05 461.85 312.95 459.75 312.85 459.1 312.85 458.75 312.8 457.6 312.7 456.85 311.7
L 456.25 310.75
Q 456.1 310.55 454.75 309.25 454.35 308.9 454.4 308.5 454.45 308.3 454.7 308.1 455.1 307.75 455.15 307.65 455.4 307.3 455.25 306.7 455.2 306.6 454.8 305.85 454.05 304.4 454.2 302.7 454.35 301.75 455.3 299.4 456.15 299.9 456.8 301.35
L 457.45 302.65
Q 458.35 304.6 457.8 305.8 457.7 306 457.3 306.55
M 429.9 301.1
Q 429.977734375 301.0494140625 430.05 301 430.9349609375 300.44609375 431.35 300.4
L 431.35 304.45
Q 431.35 304.65 431.25 304.75
L 430.95 304.8 428.7 304.6
Q 428.25 304.6 428 304.5 427.8 304.4 427.6 303.95
L 427.15 303.05 427.1 302.85
Q 427.1 302.7 427.25 302.65 428.55 302.05 429.9 301.1
M 483.45 358.7
Q 483.35 358.3 483.6 357.3 483.85 356.35 483.6 355.9 483.35 355.45 482.55 355
L 480.9 354
Q 480.65 353.8 480.6 353.65 480.6 353.35 480.85 353.2
L 483.45 350.75
Q 484.15 350.05 484.6 350.3 484.85 352.8 486.1 354.9 486.5 355.5 486.45 355.85 486.45 356.2 486.5 356.25 486.65 356.65 487.25 356.3 488.35 355.9 488.9 355.4 489.6 354.8 490.2 353.7
L 492.35 350.15 498.25 351.85
Q 499.4 352.25 499.65 352.6 499.9 352.9 500.1 353.45
L 500.85 355.7
Q 502.3 360.65 501.25 365.75 500.8 365.6 500.6 364.3 500.55 363.45 500.1 362.6 499.6 361.55 498.8 361.7 498.55 361.8 498.15 362.4 496.75 364.85 495.75 367.3 495.45 368.1 494.95 368.15 494.7 368.15 494.35 367.9 493.35 367.35 492.85 367.4 492.35 367.45 491.5 368.05 490.65 368.65 490.2 368.8 491.25 366.65 491.6 365.65 492.3 363.85 492.4 362.3 492.4 361.7 492.3 361.5 492.15 361.3 491.7 361.15
L 488.95 360
Q 485.4 358.55 483.45 358.7
M 465.45 381.8
Q 465.48359375 381.716015625 465.55 381.6 465.8431640625 381.148828125 466.8 380.4 467.6 379.65 467.65 379.55 468.25 379.05 469 378.6
L 470 378
Q 470.9 377.6 471.25 377.65 471.1 378.4 470.35 378.95
L 468.5 380.45 468.15 381.05 467.6 381.55
Q 466.5 382.5 465.45 383.9 465.25 383.9 465.15 383.6 464.9 383.2 465.15 382.7
L 465.35 382.25 465.45 381.8
M 398.25 350.95
Q 398.85 351.15 400.3 352.05
L 402.3 353.25
Q 405.25 355.1 406.2 356 407.75 357.6 408.25 357.9 408.8 358.25 410.55 358.85 412.75 359.55 414.05 360.45 414.5 360.8 416.15 362.25 417.05 363 417.2 363.6 417.3 364.05 417.25 364.95 417.2 365.8 417.35 366.2 417.55 366.75 418.35 367.55
L 422.45 371.35
Q 422.5833984375 371.4771484375 422.7 371.6 423.519140625 372.426171875 423.65 372.95 423.95 373.55 423.85 374.95 423.7 376.25 423.3 377.8 422.7 379.35 421.95 379.7 421.25 380.15 420.1 379.9 418.75 379.65 417.7 378.6 417.2 378.15 416.55 377.2 415.85 376.15 415.45 375.75 415 375.2 414.05 374.45 412.85 373.55 412.5 373.2 411.4 372.1 410.1 370.05 408.45 367.35 408 366.75 407.25 365.85 405.75 364.2 404.05 362.5 400.1 357.8 396.5 353.7 394.3 351.5 396.1 350.3 398.25 350.95
M 450.85 337.45
Q 451.15 337.05 451.45 337.05 451.85 337.15 452.05 337.5 452.15 337.6 452.9 339 453.4 339.95 453.9 340.25
L 454.8 340.75
Q 455.4 341.05 455.55 341.35 456.15 342.25 455 343.4 453.7 344.25 453.25 344.85 452.6 345.75 452.55 347.3 452.55 350.3 454.25 352.65 455 353.7 454.85 354.2 454.8 354.55 454.55 354.9 454.25 355.25 454.05 355.45 453.5 356.2 453.4 357.9 453.3 359.85 453 360.55 452.75 361.25 452 362.15 451 363.2 450.75 363.6 450.2 364.55 449.7 366.7 449.15 368.85 448.6 369.75 448 369.95 447.15 369.75 446.2 369.55 445.7 369.45 444.95 369.3 443.8 369.45 442.5 369.6 441.9 369.65 439.7 369.8 438.65 369.95 436.85 370.15 435.75 370.95 435.783984375 369.553515625 435.3 367.6 435.2515625 367.4404296875 435.2 367.25 435.0158203125 366.5103515625 434.75 365.7 433.45 361.85 433.25 360.45 433.1 359.55 433.1 357.7 433.1 356.7 433.5 356.35 433.85 356.05 434.7 356.2 435.75 356.5 436.1 356.4 436.7 356.25 437.4 355.35
L 440 352.1
Q 441.7 349.85 443 349 443.3 348.8 443.95 348.45 444.5 348.05 444.7 347.6 444.85 347.25 444.85 346.35 444.9 345.5 445.15 345.05 445.4 344.8 445.95 344.5 446.25 344.3 446.9 344 448.35 343.3 449.2 341.05 449.65 339.8 449.9 339.2 450.35 338.1 450.85 337.45
M 426 369.6
Q 426.05 369.7 426.05 370.1
L 425.95 370.9
Q 425.95 371 425.85 371.1
L 425.1 370.1
Q 424.7 369.85 424.65 369.75
L 424.5 369.5
Q 424.5 369.25 424.5 368.85 424.5 368.4 424.5 368.2 425.3 368.3 425.6 369.05
L 426 369.6
M 423.25 382.55
Q 423.25 382.4 423.5 382.25 424.7 381.35 426.25 381.1 427.8 380.8 429.2 381.3 429.95 381.55 431.25 382.25 432.6 382.8 433.45 382.55 433.95 382.4 434.75 381.95 435.75 381.3 436.05 381.15 436.603515625 380.8732421875 437.4 380.75 438.231640625 380.7005859375 439.3 380.8 441.75 381.05 442.65 380.8 442.45 381.4 442.05 381.6
L 441.25 382
Q 440.7 382.25 440.85 382.7 441 383.1 441.75 383.1
L 444.95 383.15
Q 446.35 383.15 446.85 383.55 447.3 383.85 447.05 384.2 445.15 384.15 439.2 384.65 436.7 384.85 435.55 384.55 434.25 384.15 433.6 384.15 432.6 384 431.5 384.35
L 430.75 384.6
Q 430.4 384.7 429.75 384.6
L 426.8 384.25
Q 426.05 384.2 425.3 384 424.5 383.65 423.55 383 423.2 382.75 423.25 382.55
M 467.7 351.9
Q 467.1 352.3 465.8 352.55
L 463.05 353.15
Q 462.15 353.3 461.75 353.55 461.3 353.8 460.5 354.6 459.45 355.8 459.3 356.4 459.2 356.75 459.35 358.4 459.35 359.1 459.4 359.5 459.5 360.1 460 360.3 460.55 360.55 461.55 359.85 463.35 358.6 464.85 356.85 465.55 357.7 465.15 358.7 463.7 359.4 462.8 360.3 461.8 361.2 461.8 361.95 461.8 362.5 462.45 363.55 463.55 365.3 463.85 366.25 464.35 367.9 463.8 369.15 463.4 369.85 462.9 369.8 461.25 366.75 460.4 364.55 460.25 364.05 460.05 363.85 459.6 363.5 459.25 363.7 459.05 363.85 458.95 364.4
L 457.7 371.35
Q 457.3 371.5 457.25 370.9 457.05 370.3 457.1 368.7 457.15 367.3 456.7 366.65
L 456.35 366.1
Q 456.1 365.8 456.05 365.55 455.95 365.2 456.15 364.8 456.4 364.25 456.5 364 456.7 363.55 457.1 362 457.4 360.7 457.9 360.15
L 458.45 359.5
Q 458.55 359.3 458.55 358.55 458.45 357.5 458.4 357 458.3 356.05 458.45 355.45 458.85 353.75 460.55 352.85 461.9 352.1 463.9 352 465.05 351.95 465.6 351.85 466.5 351.65 466.9 351.1 467.15 350.8 467.6 350.25 467.7 350 468 350 468.35 349.95 468.5 350.15 468.75 351.15 467.7 351.9
M 458.8 380.7
Q 459.45 380.95 460.4 380.7 461.2 380.45 461.95 380.05 462.9 379.55 463.2 379.5
L 463.2 379.85 459.85 381.3
Q 459.35 381.65 459.25 381.7 458.75 381.85 458.35 381.55 457.95 381.3 457.7 380.85 458 380.55 458.3 380.55 458.45 380.55 458.8 380.7
M 451.35 382.8
Q 451.8 382.95 452.6 382.65 453.3 382.35 453.55 382.4 454 382.45 454.55 383.15 453.85 383.2 452.8 383.45 451.65 383.9 451.1 384.05 450.45 384.2 450.2 384.15 449.65 384.15 449.35 383.85 449.9 383.5 450.1 383.1
L 450.25 382.7 450.6 382.65 450.95 382.65 451.35 382.8
M 455.65 224.55
Q 457.55 224.9 459 227.2 459.4 227.95 460 229.2 460.25 229.85 460.8 231.2 461.8 233.15 461.85 233.35 462.45 234.8 462.5 234.9 462.85 235.4 463.65 236.25 464.75 237.35 465.15 238.4 465.7 239.95 464.85 240.95 464.6 241.25 463.75 241.85 462.9 242.35 462.6 242.85 462.1 243.6 462.4 245.2 462.4 245.7 462.35 245.75 462.2 245.9 461.9 246.1 460.75 246.65 459.55 249.15
L 458.3 246.9
Q 457.95 246.35 457.7 246.25 457.3 246.05 456.8 246.45 456.35 246.75 456.3 247.3 455.95 248.45 456.8 249.85 457.3 250.6 458.2 252.2 458.9 253.75 458.6 255.4 457.1 254.35 456.1 252.25 455.4 250.85 454.75 248.4 454.6 247.6 454.7 247.15 454.75 246.7 455.4 245.85 455.7 245.55 456.35 244.25 456.9 243.2 457.4 242.7 457.5 242.6 458.25 241.95 458.8 241.4 459.1 241.05 460.25 239.4 459.15 236.9 458.7 236 458.9 235.6 459 235.4 459.3 235.15 459.6 234.85 459.65 234.7 459.75 234.35 459.3 233.75 458.8 233.1 458.9 232.8 458.95 232.6 459.3 232.3 459.7 232 459.8 231.8 460.05 231.35 459.5 230.6 457.8 227.5 455.65 224.55
M 466.25 320.9
Q 466.65 320.05 466.65 318.7 466.65 317.25 466.65 316.5 467.1 316.95 467.1 318.35
L 467 320.4 466.8 321.15 466.8 322.2
Q 466.9 322.75 466.7 323 466.7 323.2 466.45 323.55 466.25 323.85 466.2 324.1
L 464.9 324.05 464.45 324.1
Q 464.35 324.2 463.85 324.65
L 463.5 324.95
Q 463.25 325.15 463.15 325.3 462.95 325.65 462.85 325.65 462.5 324.9 462.45 324.65
L 462.4 323.85
Q 462.360546875 323.4162109375 462.15 322.7 462.11328125 322.5111328125 462.05 322.3 462.0255859375 322.223046875 462 322.15 461.69296875 321.1685546875 461.6 320.75
L 461.6 320.45
Q 461.65 320.3 461.95 320.05 462.1 319.95 462.35 320.1
L 462.7 320.45 463.25 321.2
Q 463.75 321.65 463.85 321.7 464.6 322.35 465.45 321.8 465.9 321.55 466.25 320.9
M 462.65 331.1
Q 462.682421875 330.8087890625 462.85 330.3 462.9587890625 330.0677734375 463.1 329.75 463.15 329.5 463.4 329.25 463.65 329.05 463.95 328.9 465.75 328.05 466.7 327.95
L 467.1 327.8 467.35 327.55 467.85 327.25
Q 468.15 327 468.3 326.65
L 468.75 325.75
Q 468.8591796875 325.6 468.95 325.45 469.191015625 325.05 469.3 324.65 469.85 325.15 469.95 326.15 470.05 327.45 470.2 327.85 470.3 328.15 470.45 328.85 470.55 329.15 470.45 329.8 470.35 331.1 469.55 331.6 468.95 331.9 468.85 332 468.55 332.3 468.85 332.9
L 469.4 333.65
Q 469.75 334.3 469.6 335 469.15 335.05 468.35 334.6 468 334.4 467.95 334.35 467.85 334.25 467.7 333.85 467.6 333.2 466.9 331.95
L 466.45 330.85 466.1 330.35
Q 465.7 330 465.05 330.25 464.8 330.35 464.15 330.9 463.45 331.55 462.5 332.2
L 462.65 331.1
M 454.5 326.95
L 454.45 327.4 452.6 329.55 452.1 330.35
Q 451.8 330.85 451.5 331.05
L 451.5 330.9 451.6 330.85 452.3 328.9 452.55 327.4 452.6 327.35 452.6 327.25 454.9 324.25
Q 454.75 324.55 454.8 325.2
L 454.65 325.9
Q 454.5 326.4 454.5 326.95
M 451.3 214.9
Q 452.4 215.45 453.4 214.75 453.45 215.25 454.15 216.65 454.75 217.7 455.15 219.65 454.25 219.55 453.9 219.85 453.75 220 453.65 220.25 453.35 221.15 453.4 222.1 453 222.15 452.75 221.75 452.6 221.5 452.55 221.05 452.3 220.15 451.9 219.25
L 450.5 216.95
Q 449.55 215.45 448.8 214.55 448.6 214.35 448.6 214.15
L 448.65 213.9
Q 448.75 213.7 448.6 213.55 449.7 213.85 450.6 214.5 451.05 214.8 451.3 214.9
M 229.05 233.8
Q 229.05 234.1 229.2 234.4 229.2 234.45 229.25 234.45 229.45 235.2 229.95 235.5 230.15 235.65 230.75 235.75
L 231.45 235.8
Q 231.9 235.9 232.1 235.8 232.55 235.65 232.75 235.05 232.8 234.8 232.75 234.35 232.7 234.2 232.7 234.05 232.45 233.45 232.3 233.3 232.05 233.15 231.6 233.15
L 229.8 233.15
Q 229.4 233.15 229.3 233.3 229.05 233.45 229.05 233.8
M 245.25 220.15
Q 244.8 220.1 243.8 220.65 241.7 222.45 240.5 223.25 239.95 223.65 238.6 224.3 237.4 225 236.7 225.4 235.25 226.45 232.8 229.25 231.9 230.25 232 231 232.05 231.25 232.15 231.55 232.3 231.75 232.55 232.05 232.75 232.2 232.95 232.45
L 233 232.5
Q 233.25 232.65 233.55 232.95 233.75 233.15 234.1 233.65 234.45 234.05 234.75 234.25 235.65 234.8 237.3 234.5
L 240.3 234.15
Q 241.9 233.95 242.65 234.1 244.1 234.35 246.15 236 248.5 238 249.5 238.45 250.9 239.05 253.95 239.05 255.4 239.05 256.05 238.65 256.4 238.5 257.5 237.2 258.4 236.1 258.5 235.95 259 235.2 258.85 234.55 258.8 234.2 258.15 233.3
L 256.3 231.05
Q 254.5 228.7 253.3 227.7 252.25 226.85 251.35 226.6 251.25 226.55 251.15 226.5 250.25 226.25 248.55 226.5 246.7 226.75 245.95 226.65 245.9 226.45 246.1 226.05 246.25 225.85 246.55 225.4 246.7 225.05 246.65 224.15 246.8 222.6 246.7 221.8 246.6 221.2 246.2 220.7 245.8 220.15 245.25 220.15
M 258.35 221.5
Q 258.2 221.35 257.7 221.35
L 256.6 221.35
Q 253.55 221.35 252.1 222
L 250.95 222.55
Q 250.55 222.75 250.55 222.9
L 250.55 223.25 250.65 224.3
Q 250.75 224.85 251.1 225.25 251.3 225.55 251.7 225.7 252.15 225.85 252.7 225.95 253.85 226.05 254.1 226.05 254.9 225.95 255.35 225.55
L 256.45 224.6
Q 257 224.15 257.5 223.45
L 258.1 222.75 258.5 222.15
Q 258.6 221.75 258.35 221.5
M 284.7 226.1
Q 284.25 225.6 284 225.4 283.45 225.15 282.65 225.25 279.65 225.55 276.9 226.1 274.5 226.6 273.1 227.55 270.85 229.05 270.1 232.25 269.55 234.75 270.3 237.9 270.8 239.8 271.65 241.55 272.25 242.9 272.1 243.4 272 243.95 271.35 244.4 270.55 244.9 270.2 245.2 269.45 245.8 268.75 247.3 268 248.8 268.15 249.55 268.25 250.4 269.2 251.45 271.45 254.1 273.45 254.95 274.85 255.5 276.2 255.35 277.7 255.15 278.65 254.25 279.3 253.7 280.1 252.2 281.55 249 281.55 246.75 281.55 244.95 280.6 244.05 282.25 244.15 282.8 243.55 283.55 242.7 282.8 240.95 282.1 239.3 281.1 239.6 280.7 239.75 280.55 239.8 280.25 239.9 280.1 239.7 280.2 237.55 279.95 235.4 279.75 233.65 279 233.2
L 278.2 232.85
Q 277.75 232.5 277.9 232.05 278.25 232 279.15 232.05 279.95 232.05 280.35 231.8
L 280.9 231.15
Q 281.45 230.85 282.5 231.15 285 231.65 286.15 231.85 286.95 231.95 287.15 231.75 287.55 231.45 287.55 230.8 287.5 230.7 287.5 230.65 287.35 229.85 286.3 228.35
L 284.7 226.1
M 298.2 228.4
Q 297.8 228.4 297.55 228.45
L 296.2 229.3 295.25 230.1
Q 293.95 231.15 293.55 231.7
L 293.2 232.35
Q 293.1 232.6 293.1 233.25
L 293.1 235.1
Q 293.1 235.5 293.2 235.65 293.3 235.85 293.6 236 294.5 236.55 295.8 236.65 296.2 236.65 298.15 236.65 298.7 236.65 298.95 236.6
L 299.55 236.25
Q 300.5 235.45 301.7 234.2
L 302 233.8
Q 302.1 233.55 302.1 233.05 302.2 232.25 302 231.75 301.9 231.45 301.55 230.9 300.75 229.65 300 229 299.5 228.55 299.1 228.45 298.85 228.4 298.2 228.4
M 282.65 178
Q 282.75 178.35 282.7 178.5 282.65 178.8 282.4 179.05 282.1 179.35 281.9 179.5 281.5 180.2 281.25 180.55
L 280.95 180.8 280.9 181.35
Q 280.9 182.7 280.95 183 281.25 183.95 281.8 184.35 282.35 184.6 282.95 184.5 283.4 184.5 283.7 184.3 283.8 184.25 284.15 183.65
L 284.55 182.6
Q 284.65 182.6 285.2 183.05 286.1 183.6 286.95 183.2
L 288.15 182.6
Q 288.3 182.6 288.75 182.1
L 289.1 181.55
Q 289.4 181.25 289.4 181 289.4 180.7 289 180.5
L 288.4 180.35
Q 287.45 179.95 287 179.85
L 286.35 179.6 286 179.3
Q 285.25 178.8 284.8 178.25
L 284.25 177.7
Q 283.85 177.3 283.1 177.4 282.8 177.45 282.75 177.5 282.6 177.75 282.65 178
M 242.8 192.5
Q 242.1 192.65 241.15 192.65
L 239.65 192.65
Q 239.45 192.6 239.35 192.65 239 192.65 238.85 192.7 238.45 192.9 238.55 193.2 238.6 193.3 238.65 193.35 238.4 193.8 238.15 194.35 237.65 195.2 237.85 195.85 238.1 196.6 238.75 197 239.3 197.25 240.2 197.3 241.1 197.35 242.4 197.15 243.25 197.05 243.5 197.1 243.8 197.2 244.2 197.6 244.7 198 244.95 198.1 245.5 198.25 246.2 197.95 247 197.5 248.05 196.4 249.35 195.15 249.8 194.75 251.75 193.4 254.95 193.7 255.8 193.8 256.2 193.7 256.85 193.6 257.1 193.1 257.25 192.8 257.25 192.4 257.2 191.95 257.2 191.75 257.2 191.55 257.2 191.45 257.5 191.3 257.9 190.9 258.45 190.5 258.8 190.45 259.2 190.3 260.2 190.6 261.6 191.05 263.2 191.05 264.2 191.05 264.9 190.7 265.15 190.55 265.95 189.95 266.6 189.5 267.05 189.4 267.85 189.15 267.9 189.1 268.3 188.8 268.15 188.3 268 187.55 267.15 187.3 266.7 187.15 265.65 187.2 264.25 187.25 261.55 187.55 261.15 187.65 261 187.4 260.95 187.3 261.05 187.05 261.35 186.25 262.3 185.4 262.9 184.9 264.05 184 264.95 183.1 265.25 182.9 265.75 182.6 266.55 182.35 267.05 182.2 268 181.95 269 181.6 270.9 180.2 272.7 178.95 273.85 178.65 274.65 178.45 274.85 178.2 275.1 177.9 275 177.4 274.9 176.8 274.25 176.45 273.7 176.15 273.05 176.25 272.35 176.35 270.7 177.1 270.4 177.25 267.55 178.25 266.85 178.5 264.6 179.4
L 259.8 181.4
Q 258.3 182 257.7 182.7 257.35 183.1 257 184 256.4 185.3 255.8 185.85 254.95 186.8 253.85 186.85 253.25 186.85 253.1 187.15 251.4 187.35 250.1 188.45 248.8 189.6 248.75 189.6 248.25 190.05 246.85 190.7
L 244.2 191.9
Q 243.95 192.05 243.65 192.2 243.1 192.4 242.8 192.5
M 382 201.2
Q 381.9 201.45 382 201.75 382.35 204.25 381.55 206.55 381.4 207.3 380.9 208.5 380.8 209.15 380.55 209.55 380.45 209.9 379.8 210.35 378.95 211.1 378.75 211.55 378.65 211.95 378.65 212.65 378.65 213.25 378.8 213.7 379.2 214.05 379.65 214.15 380.25 214.2 380.6 213.8
L 381.05 213.1 381.6 212.45
Q 382.05 212 382.45 211.35 383.25 210.4 383.35 210.25 383.6 210.05 384.3 209.6 385.25 209 385.35 207.75 385.4 206.7 384.65 205.1 384.2 204.1 383.75 203.6 383.1 202.8 383.05 202.65 383 202.5 383 201.75 383 201.05 382.55 200.9 382.2 200.8 382 201.2
M 349.9 163.9
Q 350.0625 163.7462890625 350.2 163.65 350.55 163.35 351.15 163.4 351.4 163.4 351.75 163.5
L 353.25 164.25
Q 354.35 164.6 355.75 164.65 356.7 164.7 358.45 164.55 358.7 164.85 358.7 165.7 358.6 166.35 358.8 166.75 358.6 166.8 358.55 166.95 358.45 167.25 358.8 167.45 359 167.6 359.45 167.6
L 362.3 167.75
Q 362.75 167.8 363.1 167.65 363.45 167.45 363.4 167.1 363.8 167.05 364.5 167.1 364.85 167.15 365.3 167.25 366.55 167.5 367.2 167.4 367.95 167.25 369.15 166.3 370.35 165.25 371.05 165.15 371.9 164.875 372.8 165.1 373.7 165.375 374.65 166.15 374.95 166.4 376.05 167.55 376.9 168.35 377.65 168.8 378.2 169.05 378.65 169 379.3 169 379.65 167.85 379.9 167.25 380 167 380.25 166.5 380.55 166.3
L 381 166.1
Q 381.3 166 381.4 165.8 381.9 165.2 380.85 164.05 382 164.3 382.9 163.6 383.25 163.35 383.95 162.85 384.75 162.5 385.75 163.15 386.25 163.4 387.3 164.2 388.45 164.7 389 164.15 389.15 163.95 389.3 163.55 389.45 163.2 389.5 163 389.7 162.15 390.3 162.15 390.5 162.15 391.15 162.55 392.2 163.35 393.25 162.95 393.75 162.7 394.1 162.3 394.4 161.75 394.3 161.2 394.25 160.6 393.4 159.8 392.55 158.95 392.45 158.45 392.45 158.1 392.35 157.95
L 393.35 155.35
Q 385.9 152.6 378.15 150.5 378.05 150.5 378 150.5 377.9 150.5 377.85 150.5 355.2 144.5 330.1 144.5 321.45 144.5 313.15 145.2
L 313.25 146.75
Q 313 146.6 312.7 146.85
L 312.35 147.15
Q 311.5 147.25 310.55 147.9 310.45 147.95 310.45 148.05 310.25 148.1 310.2 148.25
L 310.2 148.3
Q 309.4 149 308.9 149.35 307.15 150.8 305.35 151.05 304.8 151.15 303.9 151.15 302.7 151.15 302.5 151.15 301.0099609375 151.198046875 298.55 151.85 298.4767578125 151.866796875 298.4 151.85 298.3765625 151.8927734375 298.35 151.9 295.45 152.7 294.3 152.85 291.25 152.9 289.75 153.25 289.05 153.4 286.9 154.2 284.65 154.95 282.85 155.05 280.55 155.1 279.8 155.3 278.7 155.65 277 156.65 275.6 157.55 274.75 157.8 274 157.9 272.95 157.85
L 268.75 157.8
Q 268.7 157.6 268.5 157.35
L 267.75 157
Q 266.85 156.6 266.35 156.45 266.2 156.35 266.05 156.35
L 266.1 155.6
Q 266.05 155.6 266.05 155.65 266 155.65 265.95 155.65 265.85 155.7 265.7 155.8 265.55 155.85 265.4 155.9 259.75 157.95 254.2 160.4 254.05 160.5 253.95 160.55 253.359375 160.83203125 252.75 161.1 252.7599609375 161.132421875 252.75 161.15 252.7099609375 161.157421875 252.65 161.15 241.1361328125 166.785546875 230.5 173.95 230.4728515625 173.9845703125 230.45 174 230.3 174.05 230.2 174.15 229.5 174.6 228.85 175.1 223.1 179 217.65 183.5 217.6 183.5 217.55 183.5 217.45 183.55 217.4 183.65 215.2859375 185.3626953125 213.2 187.15 213.0857421875 187.248046875 212.95 187.35 212.950390625 187.3755859375 212.9 187.4 209.8048828125 190.077734375 206.75 192.9 204.355078125 195.160546875 202 197.5 198.15 201.4 194.65 205.5 194.05 206.2 193.45 206.9 193.426171875 206.9259765625 193.4 206.95 191.227734375 209.328125 189.2 211.9 183.8 218.45 179.15 225.35 172.95 234.5 168.05 244.2 168 244.25 168 244.3 167.95 244.3 167.95 244.35
L 170.1 245.35
Q 170.05 245.65 170.3 245.8 170.6 245.95 170.85 245.85 171.15 245.8 171.75 245.2
L 178.25 237.1
Q 181.2 233.35 183.4 231.25 184.1 230.7 184.5 230.7 184.85 230.65 185.25 230.85 185.45 231 185.95 231.25 186.8896484375 231.7869140625 188.95 231.6 189.1923828125 231.581640625 189.45 231.55 190.128515625 231.44140625 190.7 231.4 192.2349609375 231.2857421875 193 231.65 193.75 232 195.15 233.1 196.7 234.25 198.65 234.15 199.1 234.1 199.45 234.15
L 199.5 234.15
Q 199.8 234.2 199.95 234.35 200.3 234.6 200.4 235.4 200.55 237.3 198.65 239.3 197.65 240.35 197.2 240.95 196.3 241.9 195.85 242.7 195.35 243.75 195.35 244.8 195.35 246 196.05 246.75 196.2 246.9 196.95 247.55 197.45 247.9 197.7 248.35 197.9 248.6 198 249.15
L 198 249.2
Q 198 249.25 198 249.35 198 249.65 197.95 250.4 197.7 254.15 200.2 256.95 201.8 258.7 203.15 258.15 203.7 257.95 204.5 257
L 206.5 254.5
Q 208 252.75 209.1 253.15 209.2 253.4 209.35 253.65 210.35 255.35 212.15 257 213.35 258.2 215.95 260.2 218.2 261.9 219.5 262.3 220.4 262.5 223.55 262.45 226.05 262.4 227.25 263.25 227.5 263.45 228 263.85 228.05 263.9 228.1 263.95 228.15 264 228.15 264.05 228.3 264.15 228.45 264.25 228.8 264.4 229.15 264.45 229.95 264.55 231.05 263.5 234.5 260.3 236.85 256.35 238.45 253.65 239.65 250.65 240.2 249.3 239.7 248.65 239.35 248.1 238.05 248.1 236.1236328125 248.1 234.4 248.3 233.6115234375 248.4041015625 232.85 248.55 232.95 247.05 231.95 246.3 231.4 245.9 230.8 245.9 230.05 245.9 229.6 246.35 229.3 246.75 229.1 246.9 228.8 247.25 228.5 247.2 228.25 247.2 227.8 246.75 225.65 244.45 225.95 242.75 226.15 242.5 226.1 242.25 226.05 241.95 225.55 241.3
L 225.45 240.3
Q 226.05 240.1 226.3 239.9 227.05 239.4 226.7 238.75 226.2 238.2 226.2 237.8 226.15 237.5 226.5 237.25 226.65 237.1 227.15 236.8 227.9 236.2 228.1 234.5 228.15 234.25 228.15 234.05 228.15 233.9 228.15 233.8
L 228.15 233.75
Q 228.15 233.45 228 233.2 227.6 232.65 226.55 232.5 223.9 232.05 222.75 232.95 222.25 233.35 221.95 233.9 221.6 234.45 221.5 235.2 221.4 235.85 221.5 237.85 221.5 238.5 221.35 238.65 221.25 238.95 220.6 239.2 219.2 239.75 217.8 240.85 217.15 241.3 216.7 241.5 216.3853515625 241.61796875 216.1 241.6 216.024609375 241.6107421875 215.95 241.6 216.05 240.9 216.7 239.65 217.35 238.3 217.5 237.65 217.7 237 217.55 235.7 217.4 234.3 217.5 233.65 217.65 232.95 218.3 231.75 218.65 231.15 219.1 230.4 220.85 227.65 221.1 225.5 221.3 223.95 220.65 221.1 219.95 218 220 216.6 220 215.5 219.95 215.25 219.85 214.45 219.2 214.3 218.6 214.1 218 214.65 217.75 214.9 217.35 215.75
L 216.1 218.45
Q 215.45 219.85 215.15 220.75 215.05 221.15 215.05 221.7 214.9 222.6 214.9 223.8 214.9 223.85 214.9 223.9 214.9 227.45 215.55 230.5 213.5 230.3 212.8 231.15 212.5529296875 231.3970703125 212.35 231.95 212.2736328125 232.1705078125 212.2 232.45 212.2 232.6 212.15 232.8 211.95 233.55 211.75 233.8 211.3 234.3 210.4 234.6 209.2 235.05 208.95 235.2 208.45 235.45 207.6 236.4 206.9 237.3 206.35 237.5
L 205.6 234.45
Q 205.55 234.2 205.5 234.1 205.55 234.1 205.6 234.1
L 208.15 234.45
Q 209.4 234.6 210.05 234.4 210.55 234.2 211 233.7 211.25 233.45 211.45 233.05 211.8154296875 232.523828125 212.05 231.85 212.729296875 230.2271484375 212.8 227.75 212.8 225.85 212.8 224.9 212.8 224.4 212.85 224 212.9 222.95 213.1 222.15 213.15 221.8 213.3 221.45 213.7 220 214 219.25 214.15 218.55 214.25 218.05 214.45 217 214.3 216.25 214.2 215.6 213.85 215.35 213.55 215.05 213 215.15 211.35 215.25 210.15 216.25 209.7 216.55 209.35 217 208.25 215.25 207.3 214.8 207.05 214.65 206.7 214.65
L 206.6 214.65
Q 206.2 214.65 205.75 214.8 204.95 215.05 204.85 215.8 204.8 215.95 204.8 216.4 204.8 216.7 204.75 216.85 204.6 217.25 203.9 217.5 201.15 218.75 198.95 220.25 197.85 221 197.3 221.4 196.65 222.05 195.05 224.25 194.1 225.65 193.25 226.25 192.25 226.95 190.25 227.15 189.6 227.2 188.85 227.25
L 189.95 223.9
Q 190.6 222.15 191.05 221.15 191.95 219.3 194.6 215.95 197.2 212.9 198.35 211.3 200.3 209 201.65 208.4 202.25 210.45 204.05 211.55 204.2 211.65 204.3 211.7 204.6 211.85 204.8 211.85 204.9 211.85 205 211.8 205.35 211.7 205.55 211.4 205.8 211.15 206.1 211 209.05 208.5 210.05 206.75 210.3 206.3 211.45 203.5 212.3 201.65 213.45 200.05 214.2 200 216.5 200.25 218.4 200.5 219.5 200 220.15 199.85 221.65 198.6 222.2 198.15 222.75 197.9 223.4 197.5 223.9 197.45
L 223.95 197.45
Q 224.258203125 197.4064453125 225 197.45 225.6 197.45 226 197.3 226.45 197.15 227.05 196.55 227.65 195.95 228 195.75 228.6 195.4 229.6 195.35 230.2 195.35 231.3 195.4 233.35 195.4 234.7 194.5 235.1 194.15 236.2 192.8 236.25 192.75 236.3 192.7 237.5 191.15 239 189.9 240.15 188.95 241.2 188.65
L 240.85 189.35
Q 240.25 190.15 240.3 191 240.4 191.5 240.7 191.6 240.9 191.7 241.3 191.5 242.15 191.15 243 190.7 245.35 189.3 247 187 247.6 186.25 247.35 185.8 247.1 185.25 246.05 185.25
L 243.45 185.1 246.8 181.85
Q 248.65 180.1 249.75 179.5 251.05 178.9 253.9 178.5 261.3 177.4 266.5 175.45 268.4 174.7 270 173.85 270.5 173.6 272.85 172.35 274.6 171.4 275.75 170.9 280.25 169.15 284.9 170.2 286.5 170.6 287.3 171.25 288 171.8 289 173.4 289.05 173.5 290.05 174.6 290.75 175.4 290.95 176 291.4 176.9 291.1 177.65 291.05 177.85 290.5 178.9 290 179.6 290.15 180.35
L 290.15 180.4
Q 290.2 180.55 290.25 180.7 290.5 181.35 291.15 181.5 291.7 181.6 292.8 181.05 293.1 181 293.65 180.95 294.2 180.9 294.45 180.7 294.6 180.5 294.75 180.15 294.9 179.75 295 179.5 295.25 178.8 295.85 178.3
L 296.75 178.45
Q 296.45 179.15 296.7 179.95 296.5 180.1 296.5 180.2 296.45 180.45 296.8 180.6 297.05 180.7 297.3 180.65 298.05 180.6 299.1 180.2 299.75 179.9 300.9 179.4 303.3 178.55 307.35 178.8 312.9 179.15 314 179.05 314.85 179.05 315.1 178.6 315.3 178.2 314.9 177.5 314.7 177.25 314.55 177.05 314.35 176.6 314.35 176.45 317.55 176.7 318.9 177.65 319.9 178.35 320.15 178.4
L 321.75 178.55
Q 322.7 178.55 323.7 179 324 179.2 324.35 179.25 324.65 179.3 324.8 179 325.05 178.65 324.5 178.15 323.3 177 322.6 175.55 324.5 174.4 325.95 172.75 327 171.65 327.7 171.6 328.2 172.8 328.1 174.6 328.05 175.65 327.85 177.75 327.85 179.15 327.8 179.55 327.65 180.55 327.25 181.15 326.35 181.9 326 182.3 325.35 183.05 325.6 183.8 325.85 184.2 326.4 184.25 326.85 184.35 327.3 184.1 327.7 183.95 328.6 182.8 329.7 181.4 331.3 180.25 332.05 179.85 332.25 179.4 332.65 178.6 331.4 177 330.7 176 330.55 175.1 330.5 174.6 330.6 174.2 330.75 173.55 331.15 173.15 331.55 173.35 331.95 174.2 332.1 174.45 332.5 174.55 332.85 174.6 332.9 174.35 332.95 174.3 333 174.15 333.05 173.75 333.1 173.6 333.2 173.2 333.55 172.9 333.8 172.65 334.2 172.65 334.3 172.65 335.4 172.85 336.15 173.05 336.5 172.5 336.6 172.25 336.45 171.7 336.1 171 336.1 170.85
L 339.45 170.8
Q 340.15 170.8 340.35 170.65 340.55 170.5 340.9 169.55 341.1 168.8 341.8 168.2 342.4 167.75 343.15 167.65 344.1 167.55 344.3 167.4 344.65 167.15 345 166.5 345.6 165.95 347.45 166.1 348.15 166.15 348.6 166 348.8 165.85 349.25 165.15 349.576171875 164.31640625 349.9 163.9
M 344.6 160.3
Q 345.35 160.6 345.65 160.6
L 346.15 161.1
Q 346.6 161.5 346.8 161.5 346.95 161.55 347.45 161.75 346.75 161.8 345.9 161.65
L 345.3 161.5
Q 344.65 161.4 343.85 161.05
L 343.35 160.85 342.4 160.6
Q 341.55 160.6 341.3 160.4 341 160.25 340.8 159.8 340.6 159.6 340.8 159.4
L 341.1 159.35
Q 342.2 159.35 342.8 159.5
L 343.25 159.65 344.6 160.3
M 251.9 166.2
L 251.9 166.05
Q 252.05 165.75 252.45 165.45
L 254.3 164.25 256.3 163.35
Q 256.9 163.15 257.5 163.2 257.5 163.35 257.7 163.45 257.7 163.55 257.85 163.75 257.95 164 257.7 164.25
L 257.4 164.5 253.7 166.35 252.9 166.65 252.5 166.65 252.2 166.6 252 166.4 251.9 166.2
M 234.2 251.8
Q 234.6 251.6 234.8 251.55 233.85 252.55 233.35 253
L 233.05 253.1 232.8 252.95 231.9 252.3
Q 232.75 252.2 233.15 252.2
L 233.6 252.1
Q 233.8 252.05 234.2 251.8
M 219.7 248.55
L 217.9 248.55
Q 217.6 248.5 217.35 248.15 216.95 247.65 216.85 247.1 217.45 247.05 218.45 247.65
L 219.7 248.55
M 206.3 224.15
L 206.35 224.15 206.6 224.05 206.6 224.5 206.55 224.5 206.55 224.65 206.5 224.65 206.45 224.75 206.4 224.75 206.35 224.9
Q 206.2 224.9 206.2 225.05 206.05 225.05 206.05 225.15 205.9 225.15 205.9 225.3
L 205.8 225.4 205.5 225.85 205.45 225.85 205 226.6 204.85 226.65 204.8 226.8 204.75 226.85 204.6 227.05 204.55 227.05 204.45 227.3 204.35 227.35 204.3 227.5
Q 204.15 227.5 204.15 227.6 204 227.75 204 227.5
L 203.95 227.5
Q 203.9 227.5 203.9 227.1
L 203.85 227 203.9 226.8 203.95 226.45 204 226.45
Q 203.9 226.25 204.15 226.15
L 204.2 226.05 204.25 226.05
Q 204.25 225.9 204.4 225.9
L 204.45 225.75 204.5 225.75
Q 204.5 225.65 204.6 225.65 204.6 225.5 204.75 225.5 204.75 225.35 204.9 225.35 205 225.15 205.2 225.1 205.2 224.95 205.35 224.95 205.35 224.9 205.45 224.75
L 205.65 224.7
Q 205.65 224.55 205.75 224.55 205.75 224.5 205.9 224.35
L 206.1 224.2 206.3 224.15
M 221.3 189.7
Q 220.3 189.5 220.15 189.5
L 221.05 188.05
Q 221.35 187.7 222.05 187.35
L 223.25 187.05
Q 224.75 186.55 226.05 185.7
L 226.95 185
Q 227.45 184.65 227.85 184.75 227.85 185.1 227.7 185.35 227.45 186.05 226.75 186.3
L 225.9 186.65 224.8 187.25
Q 223.65 187.85 222.7 189
L 222.4 189.45
Q 222.2720703125 189.549609375 222.1 189.6 221.7650390625 189.771484375 221.3 189.7
M 219.25 194.25
Q 219.65 193.7 220.65 193.3
L 223.15 192.2
Q 224.5 191.55 225.1 191.1
L 226.45 189.9
Q 227.1 189.35 228.35 188.35 228.907421875 187.8390625 229.55 187 229.600390625 186.9638671875 229.65 186.9 230.05 186.4 230.9 185.4 231.85 184.35 233.95 182.45 234.65 181.85 235.2 181.55 235.8 181.25 236.25 181.25 235.6 182.6 233.7 184.2 231.3 186.2 230.8 186.85
L 229.75 188.2
Q 227.75 190 227.05 191.15 226.7 191.65 226.1 193.15 225.55 194.45 225.05 195.1 224.6 195.5 224.3 195.65 224.1787109375 195.67421875 223.95 195.65 223.7740234375 195.67578125 223.5 195.65
L 223.45 195.65
Q 223.4 195.6 223.35 195.6 221.25 195.2 219.25 194.25
M 304.5 157.55
L 305.35 156.95
Q 305.7 156.75 305.9 156.8 306.15 156.85 306.35 157.1
L 306.8 157.8
Q 306.65 157.8 305.8 157.7 305.15 157.6 304.25 157.75 304.4 157.7 304.5 157.55
M 299.15 158.75
Q 299.85 158.3 300 158.25 300.55 158.05 301.25 158.15 302.85 158.25 303.75 157.9 302.8 158.3 301.15 159.6 300.7 160 300.25 160.1 299.85 160.25 299.1 160.1 298.3 159.9 297.95 159.8 298.25 159.5 299.15 158.75
M 325.5 159.05
L 325.8 159.1 325.75 159.3 325.75 159.85 323.6 159.8 323.4 159.75 321.55 159.75 321.55 159
Q 321.55 158.8 321.65 158.75
L 321.7 158.8 322.45 159 325.5 159.05
M 325.75 165.5
Q 325.9234375 165.5279296875 326.1 165.55
L 321.95 166.95
Q 320.85 167.2 320.05 167.6 319.35 167.9 317.85 168.85 316.35 169.7 315.5 169.95 314.2 170.55 313.95 170.7 313.1 171.3 312.7 172.45 312.35 173.4 312.3 174.55 311.5 174.3 310.15 173.35 309.65 172.9 309.5 172.65 309.4 172.4 309.4 171.8 310.25 170.95 312.75 169.8 315.7 168.55 317.15 168.15 317.7 168 318.85 167.7 319.85 167.3 321.65 166.25 323.54921875 165.3236328125 325.75 165.5
M 318.25 159.85
Q 317.7 159.75 317.15 159.65
L 317.95 159.25
Q 318.2 159.1 318.3 159.1 318.55 158.95 318.95 159.05
L 319.1 159.7
Q 318.75 159.8 318.5 159.85
L 318.25 159.85
M 375.85 159.1
L 375.35 159.5
Q 375 160.1 374.65 160.25 374.05 160.3 373.8 160.35 373.1 160.6 372.7 160.65 372.5 160.7 371.8 160.6 370.9 160.5 370.65 160.35 371.15 159.7 372.25 159.8 372.6 159.8 373.2 159.85 373.7 159.85 374.05 159.75 374.8 159.65 375.95 158.7 376 158.95 375.85 159.1 Z"/>

<path fill="#EAA0A2" stroke="none" d="
M 453.4 214.75
Q 452.4 215.45 451.3 214.9 451.05 214.8 450.6 214.5 449.7 213.85 448.6 213.55 448.75 213.7 448.65 213.9
L 448.6 214.15
Q 448.6 214.35 448.8 214.55 449.55 215.45 450.5 216.95
L 451.9 219.25
Q 452.3 220.15 452.55 221.05 452.6 221.5 452.75 221.75 453 222.15 453.4 222.1 453.35 221.15 453.65 220.25 453.75 220 453.9 219.85 454.25 219.55 455.15 219.65 454.75 217.7 454.15 216.65 453.45 215.25 453.4 214.75
M 454.45 327.4
L 454.5 326.95
Q 454.5 326.4 454.65 325.9
L 454.8 325.2
Q 454.75 324.55 454.9 324.25
L 452.6 327.25 452.6 327.35 452.55 327.4 452.3 328.9 451.6 330.85 451.5 330.9 451.5 331.05
Q 451.8 330.85 452.1 330.35
L 452.6 329.55 454.45 327.4
M 462.85 330.3
Q 462.682421875 330.8087890625 462.65 331.1
L 462.5 332.2
Q 463.45 331.55 464.15 330.9 464.8 330.35 465.05 330.25 465.7 330 466.1 330.35
L 466.45 330.85 466.9 331.95
Q 467.6 333.2 467.7 333.85 467.85 334.25 467.95 334.35 468 334.4 468.35 334.6 469.15 335.05 469.6 335 469.75 334.3 469.4 333.65
L 468.85 332.9
Q 468.55 332.3 468.85 332 468.95 331.9 469.55 331.6 470.35 331.1 470.45 329.8 470.55 329.15 470.45 328.85 470.3 328.15 470.2 327.85 470.05 327.45 469.95 326.15 469.85 325.15 469.3 324.65 469.191015625 325.05 468.95 325.45 468.8591796875 325.6 468.75 325.75
L 468.3 326.65
Q 468.15 327 467.85 327.25
L 467.35 327.55 467.1 327.8 466.7 327.95
Q 465.75 328.05 463.95 328.9 463.65 329.05 463.4 329.25 463.15 329.5 463.1 329.75 462.9587890625 330.0677734375 462.85 330.3
M 466.65 318.7
Q 466.65 320.05 466.25 320.9 465.9 321.55 465.45 321.8 464.6 322.35 463.85 321.7 463.75 321.65 463.25 321.2
L 462.7 320.45 462.35 320.1
Q 462.1 319.95 461.95 320.05 461.65 320.3 461.6 320.45
L 461.6 320.75
Q 461.69296875 321.1685546875 462 322.15 462.0255859375 322.223046875 462.05 322.3 462.11328125 322.5111328125 462.15 322.7 462.360546875 323.4162109375 462.4 323.85
L 462.45 324.65
Q 462.5 324.9 462.85 325.65 462.95 325.65 463.15 325.3 463.25 325.15 463.5 324.95
L 463.85 324.65
Q 464.35 324.2 464.45 324.1
L 464.9 324.05 466.2 324.1
Q 466.25 323.85 466.45 323.55 466.7 323.2 466.7 323 466.9 322.75 466.8 322.2
L 466.8 321.15 467 320.4 467.1 318.35
Q 467.1 316.95 466.65 316.5 466.65 317.25 466.65 318.7
M 459 227.2
Q 457.55 224.9 455.65 224.55 457.8 227.5 459.5 230.6 460.05 231.35 459.8 231.8 459.7 232 459.3 232.3 458.95 232.6 458.9 232.8 458.8 233.1 459.3 233.75 459.75 234.35 459.65 234.7 459.6 234.85 459.3 235.15 459 235.4 458.9 235.6 458.7 236 459.15 236.9 460.25 239.4 459.1 241.05 458.8 241.4 458.25 241.95 457.5 242.6 457.4 242.7 456.9 243.2 456.35 244.25 455.7 245.55 455.4 245.85 454.75 246.7 454.7 247.15 454.6 247.6 454.75 248.4 455.4 250.85 456.1 252.25 457.1 254.35 458.6 255.4 458.9 253.75 458.2 252.2 457.3 250.6 456.8 249.85 455.95 248.45 456.3 247.3 456.35 246.75 456.8 246.45 457.3 246.05 457.7 246.25 457.95 246.35 458.3 246.9
L 459.55 249.15
Q 460.75 246.65 461.9 246.1 462.2 245.9 462.35 245.75 462.4 245.7 462.4 245.2 462.1 243.6 462.6 242.85 462.9 242.35 463.75 241.85 464.6 241.25 464.85 240.95 465.7 239.95 465.15 238.4 464.75 237.35 463.65 236.25 462.85 235.4 462.5 234.9 462.45 234.8 461.85 233.35 461.8 233.15 460.8 231.2 460.25 229.85 460 229.2 459.4 227.95 459 227.2
M 452.6 382.65
Q 451.8 382.95 451.35 382.8
L 450.95 382.65 450.6 382.65 450.25 382.7 450.1 383.1
Q 449.9 383.5 449.35 383.85 449.65 384.15 450.2 384.15 450.45 384.2 451.1 384.05 451.65 383.9 452.8 383.45 453.85 383.2 454.55 383.15 454 382.45 453.55 382.4 453.3 382.35 452.6 382.65
M 460.4 380.7
Q 459.45 380.95 458.8 380.7 458.45 380.55 458.3 380.55 458 380.55 457.7 380.85 457.95 381.3 458.35 381.55 458.75 381.85 459.25 381.7 459.35 381.65 459.85 381.3
L 463.2 379.85 463.2 379.5
Q 462.9 379.55 461.95 380.05 461.2 380.45 460.4 380.7
M 465.8 352.55
Q 467.1 352.3 467.7 351.9 468.75 351.15 468.5 350.15 468.35 349.95 468 350 467.7 350 467.6 350.25 467.15 350.8 466.9 351.1 466.5 351.65 465.6 351.85 465.05 351.95 463.9 352 461.9 352.1 460.55 352.85 458.85 353.75 458.45 355.45 458.3 356.05 458.4 357 458.45 357.5 458.55 358.55 458.55 359.3 458.45 359.5
L 457.9 360.15
Q 457.4 360.7 457.1 362 456.7 363.55 456.5 364 456.4 364.25 456.15 364.8 455.95 365.2 456.05 365.55 456.1 365.8 456.35 366.1
L 456.7 366.65
Q 457.15 367.3 457.1 368.7 457.05 370.3 457.25 370.9 457.3 371.5 457.7 371.35
L 458.95 364.4
Q 459.05 363.85 459.25 363.7 459.6 363.5 460.05 363.85 460.25 364.05 460.4 364.55 461.25 366.75 462.9 369.8 463.4 369.85 463.8 369.15 464.35 367.9 463.85 366.25 463.55 365.3 462.45 363.55 461.8 362.5 461.8 361.95 461.8 361.2 462.8 360.3 463.7 359.4 465.15 358.7 465.55 357.7 464.85 356.85 463.35 358.6 461.55 359.85 460.55 360.55 460 360.3 459.5 360.1 459.4 359.5 459.35 359.1 459.35 358.4 459.2 356.75 459.3 356.4 459.45 355.8 460.5 354.6 461.3 353.8 461.75 353.55 462.15 353.3 463.05 353.15
L 465.8 352.55
M 423.5 382.25
Q 423.25 382.4 423.25 382.55 423.2 382.75 423.55 383 424.5 383.65 425.3 384 426.05 384.2 426.8 384.25
L 429.75 384.6
Q 430.4 384.7 430.75 384.6
L 431.5 384.35
Q 432.6 384 433.6 384.15 434.25 384.15 435.55 384.55 436.7 384.85 439.2 384.65 445.15 384.15 447.05 384.2 447.3 383.85 446.85 383.55 446.35 383.15 444.95 383.15
L 441.75 383.1
Q 441 383.1 440.85 382.7 440.7 382.25 441.25 382
L 442.05 381.6
Q 442.45 381.4 442.65 380.8 441.75 381.05 439.3 380.8 438.231640625 380.7005859375 437.4 380.75 436.603515625 380.8732421875 436.05 381.15 435.75 381.3 434.75 381.95 433.95 382.4 433.45 382.55 432.6 382.8 431.25 382.25 429.95 381.55 429.2 381.3 427.8 380.8 426.25 381.1 424.7 381.35 423.5 382.25
M 426.05 370.1
Q 426.05 369.7 426 369.6
L 425.6 369.05
Q 425.3 368.3 424.5 368.2 424.5 368.4 424.5 368.85 424.5 369.25 424.5 369.5
L 424.65 369.75
Q 424.7 369.85 425.1 370.1
L 425.85 371.1
Q 425.95 371 425.95 370.9
L 426.05 370.1
M 451.45 337.05
Q 451.15 337.05 450.85 337.45 450.35 338.1 449.9 339.2 449.65 339.8 449.2 341.05 448.35 343.3 446.9 344 446.25 344.3 445.95 344.5 445.4 344.8 445.15 345.05 444.9 345.5 444.85 346.35 444.85 347.25 444.7 347.6 444.5 348.05 443.95 348.45 443.3 348.8 443 349 441.7 349.85 440 352.1
L 437.4 355.35
Q 436.7 356.25 436.1 356.4 435.75 356.5 434.7 356.2 433.85 356.05 433.5 356.35 433.1 356.7 433.1 357.7 433.1 359.55 433.25 360.45 433.45 361.85 434.75 365.7 435.0158203125 366.5103515625 435.2 367.25 435.2515625 367.4404296875 435.3 367.6 435.783984375 369.553515625 435.75 370.95 436.85 370.15 438.65 369.95 439.7 369.8 441.9 369.65 442.5 369.6 443.8 369.45 444.95 369.3 445.7 369.45 446.2 369.55 447.15 369.75 448 369.95 448.6 369.75 449.15 368.85 449.7 366.7 450.2 364.55 450.75 363.6 451 363.2 452 362.15 452.75 361.25 453 360.55 453.3 359.85 453.4 357.9 453.5 356.2 454.05 355.45 454.25 355.25 454.55 354.9 454.8 354.55 454.85 354.2 455 353.7 454.25 352.65 452.55 350.3 452.55 347.3 452.6 345.75 453.25 344.85 453.7 344.25 455 343.4 456.15 342.25 455.55 341.35 455.4 341.05 454.8 340.75
L 453.9 340.25
Q 453.4 339.95 452.9 339 452.15 337.6 452.05 337.5 451.85 337.15 451.45 337.05
M 400.3 352.05
Q 398.85 351.15 398.25 350.95 396.1 350.3 394.3 351.5 396.5 353.7 400.1 357.8 404.05 362.5 405.75 364.2 407.25 365.85 408 366.75 408.45 367.35 410.1 370.05 411.4 372.1 412.5 373.2 412.85 373.55 414.05 374.45 415 375.2 415.45 375.75 415.85 376.15 416.55 377.2 417.2 378.15 417.7 378.6 418.75 379.65 420.1 379.9 421.25 380.15 421.95 379.7 422.7 379.35 423.3 377.8 423.7 376.25 423.85 374.95 423.95 373.55 423.65 372.95 423.519140625 372.426171875 422.7 371.6 422.5833984375 371.4771484375 422.45 371.35
L 418.35 367.55
Q 417.55 366.75 417.35 366.2 417.2 365.8 417.25 364.95 417.3 364.05 417.2 363.6 417.05 363 416.15 362.25 414.5 360.8 414.05 360.45 412.75 359.55 410.55 358.85 408.8 358.25 408.25 357.9 407.75 357.6 406.2 356 405.25 355.1 402.3 353.25
L 400.3 352.05
M 465.55 381.6
Q 465.48359375 381.716015625 465.45 381.8
L 465.35 382.25 465.15 382.7
Q 464.9 383.2 465.15 383.6 465.25 383.9 465.45 383.9 466.5 382.5 467.6 381.55
L 468.15 381.05 468.5 380.45 470.35 378.95
Q 471.1 378.4 471.25 377.65 470.9 377.6 470 378
L 469 378.6
Q 468.25 379.05 467.65 379.55 467.6 379.65 466.8 380.4 465.8431640625 381.148828125 465.55 381.6
M 483.6 357.3
Q 483.35 358.3 483.45 358.7 485.4 358.55 488.95 360
L 491.7 361.15
Q 492.15 361.3 492.3 361.5 492.4 361.7 492.4 362.3 492.3 363.85 491.6 365.65 491.25 366.65 490.2 368.8 490.65 368.65 491.5 368.05 492.35 367.45 492.85 367.4 493.35 367.35 494.35 367.9 494.7 368.15 494.95 368.15 495.45 368.1 495.75 367.3 496.75 364.85 498.15 362.4 498.55 361.8 498.8 361.7 499.6 361.55 500.1 362.6 500.55 363.45 500.6 364.3 500.8 365.6 501.25 365.75 502.3 360.65 500.85 355.7
L 500.1 353.45
Q 499.9 352.9 499.65 352.6 499.4 352.25 498.25 351.85
L 492.35 350.15 490.2 353.7
Q 489.6 354.8 488.9 355.4 488.35 355.9 487.25 356.3 486.65 356.65 486.5 356.25 486.45 356.2 486.45 355.85 486.5 355.5 486.1 354.9 484.85 352.8 484.6 350.3 484.15 350.05 483.45 350.75
L 480.85 353.2
Q 480.6 353.35 480.6 353.65 480.65 353.8 480.9 354
L 482.55 355
Q 483.35 355.45 483.6 355.9 483.85 356.35 483.6 357.3
M 430.05 301
Q 429.977734375 301.0494140625 429.9 301.1 428.55 302.05 427.25 302.65 427.1 302.7 427.1 302.85
L 427.15 303.05 427.6 303.95
Q 427.8 304.4 428 304.5 428.25 304.6 428.7 304.6
L 430.95 304.8 431.25 304.75
Q 431.35 304.65 431.35 304.45
L 431.35 300.4
Q 430.9349609375 300.44609375 430.05 301
M 456.85 307.4
Q 456.95 307.1 457.3 306.55 457.7 306 457.8 305.8 458.35 304.6 457.45 302.65
L 456.8 301.35
Q 456.15 299.9 455.3 299.4 454.35 301.75 454.2 302.7 454.05 304.4 454.8 305.85 455.2 306.6 455.25 306.7 455.4 307.3 455.15 307.65 455.1 307.75 454.7 308.1 454.45 308.3 454.4 308.5 454.35 308.9 454.75 309.25 456.1 310.55 456.25 310.75
L 456.85 311.7
Q 457.6 312.7 458.75 312.8 459.1 312.85 459.75 312.85 461.85 312.95 463.6 314.05 463.7 313 462.7 312.3 461.95 311.75 460.8 311.6
L 458.75 311.4
Q 458.25 311.4 458.05 311.15 457.7 310.9 457.8 310.25
L 457.8 309.3
Q 457.25 309.15 456.95 308.55 456.65 308 456.85 307.4
M 449.35 281.1
Q 449.25 281.8 449.25 283
L 449.25 284.9
Q 449.25 285.15 449.15 285.25 449.7 286.1 450.4 286.7 450.35 285.25 450.4 284.6 450.7 283.05 450.7 282.2 450.7 281.2 450.75 281
L 450.8 280.6
Q 450.9 280.15 450.7 279.7 450.45 279.3 450.05 279.05 449.85 279.45 449.8 279.65 449.65 280.15 449.35 281.1
M 347.75 341.1
Q 347.5 341.9 346.5 343.2
L 346.15 343.9
Q 346 344.1 345.75 344.55 345.65 344.85 345.65 345.7
L 345.7 347.05
Q 345.75 347.6 346.1 348.8 346.55 349.8 346.85 350.15 347.35 350.5 347.95 350.6 348.2 350.65 349.25 350.65 349.6 350.65 349.7 350.55 349.85 350.5 350.05 350.35
L 350.75 349.6
Q 351.2 349.2 351.25 349.05
L 351.45 348.5
Q 351.6 348 351.85 347.6 352.3 347.05 352.3 346.7 352.35 346.4 351.6 345.65 351.2 345.25 350.55 344.35
L 349.95 343.55
Q 349.7 343.25 349.6 342.95 349.65 342.4 349.6 342.15 349.55 341.9 349.15 341.55 348.5 340.95 347.75 341.1
M 256.6 404.4
Q 256 402.3 253.9 401.5
L 253.4 403.35
Q 253.2 404.5 252.75 405.25 252.15 406.25 250.4 407.2 248.2 408.5 247.65 409.15
L 246.85 410.2
Q 246.45 410.8 246 411.05 245.7 411.25 244.8 411.5 243.95 411.75 243.5 412 243.2 415.5 243.9 417.15 244 417.45 244.25 418.1 244.5 418.7 244.55 419.05 244.6 419.6 244.1 421.2 243.25 424.15 244.05 427.25 244.95 430.4 247.15 432.5 248.5 433.7 249.8 434 250.55 434.15 251.45 434.05 251.95 434.05 252.2 433.9 252.45 433.75 252.75 432.95 253.05 432.3 253.75 431.35 254.6 430.1 254.85 429.8 255.55 428.45 256.05 426.4 256.5 424.7 256.75 422.2 256.8 420.9 256.8 418.3
L 256.85 407.1
Q 256.85 405.25 256.6 404.4
M 350.2 163.65
Q 350.0625 163.7462890625 349.9 163.9 349.576171875 164.31640625 349.25 165.15 348.8 165.85 348.6 166 348.15 166.15 347.45 166.1 345.6 165.95 345 166.5 344.65 167.15 344.3 167.4 344.1 167.55 343.15 167.65 342.4 167.75 341.8 168.2 341.1 168.8 340.9 169.55 340.55 170.5 340.35 170.65 340.15 170.8 339.45 170.8
L 336.1 170.85
Q 336.1 171 336.45 171.7 336.6 172.25 336.5 172.5 336.15 173.05 335.4 172.85 334.3 172.65 334.2 172.65 333.8 172.65 333.55 172.9 333.2 173.2 333.1 173.6 333.05 173.75 333 174.15 332.95 174.3 332.9 174.35 332.85 174.6 332.5 174.55 332.1 174.45 331.95 174.2 331.55 173.35 331.15 173.15 330.75 173.55 330.6 174.2 330.5 174.6 330.55 175.1 330.7 176 331.4 177 332.65 178.6 332.25 179.4 332.05 179.85 331.3 180.25 329.7 181.4 328.6 182.8 327.7 183.95 327.3 184.1 326.85 184.35 326.4 184.25 325.85 184.2 325.6 183.8 325.35 183.05 326 182.3 326.35 181.9 327.25 181.15 327.65 180.55 327.8 179.55 327.85 179.15 327.85 177.75 328.05 175.65 328.1 174.6 328.2 172.8 327.7 171.6 327 171.65 325.95 172.75 324.5 174.4 322.6 175.55 323.3 177 324.5 178.15 325.05 178.65 324.8 179 324.65 179.3 324.35 179.25 324 179.2 323.7 179 322.7 178.55 321.75 178.55
L 320.15 178.4
Q 319.9 178.35 318.9 177.65 317.55 176.7 314.35 176.45 314.35 176.6 314.55 177.05 314.7 177.25 314.9 177.5 315.3 178.2 315.1 178.6 314.85 179.05 314 179.05 312.9 179.15 307.35 178.8 303.3 178.55 300.9 179.4 299.75 179.9 299.1 180.2 298.05 180.6 297.3 180.65 297.05 180.7 296.8 180.6 296.45 180.45 296.5 180.2 296.5 180.1 296.7 179.95 296.45 179.15 296.75 178.45
L 295.85 178.3
Q 295.25 178.8 295 179.5 294.9 179.75 294.75 180.15 294.6 180.5 294.45 180.7 294.2 180.9 293.65 180.95 293.1 181 292.8 181.05 291.7 181.6 291.15 181.5 290.5 181.35 290.25 180.7 290.2 180.55 290.15 180.4
L 290.15 180.35
Q 290 179.6 290.5 178.9 291.05 177.85 291.1 177.65 291.4 176.9 290.95 176 290.75 175.4 290.05 174.6 289.05 173.5 289 173.4 288 171.8 287.3 171.25 286.5 170.6 284.9 170.2 280.25 169.15 275.75 170.9 274.6 171.4 272.85 172.35 270.5 173.6 270 173.85 268.4 174.7 266.5 175.45 261.3 177.4 253.9 178.5 251.05 178.9 249.75 179.5 248.65 180.1 246.8 181.85
L 243.45 185.1 246.05 185.25
Q 247.1 185.25 247.35 185.8 247.6 186.25 247 187 245.35 189.3 243 190.7 242.15 191.15 241.3 191.5 240.9 191.7 240.7 191.6 240.4 191.5 240.3 191 240.25 190.15 240.85 189.35
L 241.2 188.65
Q 240.15 188.95 239 189.9 237.5 191.15 236.3 192.7 236.25 192.75 236.2 192.8 235.1 194.15 234.7 194.5 233.35 195.4 231.3 195.4 230.2 195.35 229.6 195.35 228.6 195.4 228 195.75 227.65 195.95 227.05 196.55 226.45 197.15 226 197.3 225.6 197.45 225 197.45 224.258203125 197.4064453125 223.95 197.45
L 223.9 197.45
Q 223.4 197.5 222.75 197.9 222.2 198.15 221.65 198.6 220.15 199.85 219.5 200 218.4 200.5 216.5 200.25 214.2 200 213.45 200.05 212.3 201.65 211.45 203.5 210.3 206.3 210.05 206.75 209.05 208.5 206.1 211 205.8 211.15 205.55 211.4 205.35 211.7 205 211.8 204.9 211.85 204.8 211.85 204.6 211.85 204.3 211.7 204.2 211.65 204.05 211.55 202.25 210.45 201.65 208.4 200.3 209 198.35 211.3 197.2 212.9 194.6 215.95 191.95 219.3 191.05 221.15 190.6 222.15 189.95 223.9
L 188.85 227.25
Q 189.6 227.2 190.25 227.15 192.25 226.95 193.25 226.25 194.1 225.65 195.05 224.25 196.65 222.05 197.3 221.4 197.85 221 198.95 220.25 201.15 218.75 203.9 217.5 204.6 217.25 204.75 216.85 204.8 216.7 204.8 216.4 204.8 215.95 204.85 215.8 204.95 215.05 205.75 214.8 206.2 214.65 206.6 214.65
L 206.7 214.65
Q 207.05 214.65 207.3 214.8 208.25 215.25 209.35 217 209.7 216.55 210.15 216.25 211.35 215.25 213 215.15 213.55 215.05 213.85 215.35 214.2 215.6 214.3 216.25 214.45 217 214.25 218.05 214.15 218.55 214 219.25 213.7 220 213.3 221.45 213.15 221.8 213.1 222.15 212.9 222.95 212.85 224 212.8 224.4 212.8 224.9 212.8 225.85 212.8 227.75 212.729296875 230.2271484375 212.05 231.85 211.8154296875 232.523828125 211.45 233.05 211.25 233.45 211 233.7 210.55 234.2 210.05 234.4 209.4 234.6 208.15 234.45
L 205.6 234.1
Q 205.55 234.1 205.5 234.1 205.55 234.2 205.6 234.45
L 206.35 237.5
Q 206.9 237.3 207.6 236.4 208.45 235.45 208.95 235.2 209.2 235.05 210.4 234.6 211.3 234.3 211.75 233.8 211.95 233.55 212.15 232.8 212.2 232.6 212.2 232.45 212.2736328125 232.1705078125 212.35 231.95 212.5529296875 231.3970703125 212.8 231.15 213.5 230.3 215.55 230.5 214.9 227.45 214.9 223.9 214.9 223.85 214.9 223.8 214.9 222.6 215.05 221.7 215.05 221.15 215.15 220.75 215.45 219.85 216.1 218.45
L 217.35 215.75
Q 217.75 214.9 218 214.65 218.6 214.1 219.2 214.3 219.85 214.45 219.95 215.25 220 215.5 220 216.6 219.95 218 220.65 221.1 221.3 223.95 221.1 225.5 220.85 227.65 219.1 230.4 218.65 231.15 218.3 231.75 217.65 232.95 217.5 233.65 217.4 234.3 217.55 235.7 217.7 237 217.5 237.65 217.35 238.3 216.7 239.65 216.05 240.9 215.95 241.6 216.024609375 241.6107421875 216.1 241.6 216.3853515625 241.61796875 216.7 241.5 217.15 241.3 217.8 240.85 219.2 239.75 220.6 239.2 221.25 238.95 221.35 238.65 221.5 238.5 221.5 237.85 221.4 235.85 221.5 235.2 221.6 234.45 221.95 233.9 222.25 233.35 222.75 232.95 223.9 232.05 226.55 232.5 227.6 232.65 228 233.2 228.15 233.45 228.15 233.75
L 228.15 233.8
Q 228.15 233.9 228.15 234.05 228.15 234.25 228.1 234.5 227.9 236.2 227.15 236.8 226.65 237.1 226.5 237.25 226.15 237.5 226.2 237.8 226.2 238.2 226.7 238.75 227.05 239.4 226.3 239.9 226.05 240.1 225.45 240.3
L 225.55 241.3
Q 226.05 241.95 226.1 242.25 226.15 242.5 225.95 242.75 225.65 244.45 227.8 246.75 228.25 247.2 228.5 247.2 228.8 247.25 229.1 246.9 229.3 246.75 229.6 246.35 230.05 245.9 230.8 245.9 231.4 245.9 231.95 246.3 232.95 247.05 232.85 248.55 233.6115234375 248.4041015625 234.4 248.3 236.1236328125 248.1 238.05 248.1 239.35 248.1 239.7 248.65 240.2 249.3 239.65 250.65 238.45 253.65 236.85 256.35 234.5 260.3 231.05 263.5 229.95 264.55 229.15 264.45 228.8 264.4 228.45 264.25 228.3 264.15 228.15 264.05 228.15 264 228.1 263.95 228.05 263.9 228 263.85 227.5 263.45 227.25 263.25 226.05 262.4 223.55 262.45 220.4 262.5 219.5 262.3 218.2 261.9 215.95 260.2 213.35 258.2 212.15 257 210.35 255.35 209.35 253.65 209.2 253.4 209.1 253.15 208 252.75 206.5 254.5
L 204.5 257
Q 203.7 257.95 203.15 258.15 201.8 258.7 200.2 256.95 197.7 254.15 197.95 250.4 198 249.65 198 249.35 198 249.25 198 249.2
L 198 249.15
Q 197.9 248.6 197.7 248.35 197.45 247.9 196.95 247.55 196.2 246.9 196.05 246.75 195.35 246 195.35 244.8 195.35 243.75 195.85 242.7 196.3 241.9 197.2 240.95 197.65 240.35 198.65 239.3 200.55 237.3 200.4 235.4 200.3 234.6 199.95 234.35 199.8 234.2 199.5 234.15
L 199.45 234.15
Q 199.1 234.1 198.65 234.15 196.7 234.25 195.15 233.1 193.75 232 193 231.65 192.2349609375 231.2857421875 190.7 231.4 190.128515625 231.44140625 189.45 231.55 189.1923828125 231.581640625 188.95 231.6 186.8896484375 231.7869140625 185.95 231.25 185.45 231 185.25 230.85 184.85 230.65 184.5 230.7 184.1 230.7 183.4 231.25 181.2 233.35 178.25 237.1
L 171.75 245.2
Q 171.15 245.8 170.85 245.85 170.6 245.95 170.3 245.8 170.05 245.65 170.1 245.35
L 167.95 244.35
Q 151.45 277 149.75 315.7
L 152.5 315.85
Q 152.35 315.6 152.55 315.4 152.95 314.95 153.65 315.6 155.15 316.95 156.1 318.3 156.55 318.8 156.85 318.8 157.05 318.85 157.6 318.4 159 317.35 161.15 318.25 161.95 318.6 162.35 319.15 162.9 319.9 162.8 321.45 162.7 323.45 162.75 323.8 163.1 325.2 164.8 326.7 165.25 327.1 166.1 327.9 166.85 328.55 167.2 329.25 167.65 330 167.9 331.45 168.75 335.8 167.65 340.15 167.6 340.45 167.45 340.6 167.45 340.65 167.45 340.75
L 167.3 346.35
Q 167.2 348.7 167.35 349.85 167.6 351.05 168.25 352.6
L 169.85 357.25
Q 170.85 359.95 171.55 361.25 172 362.05 172.95 363.55 173.7 364.95 173.9 366 174.05 366.85 174.1 368.7 174.2 370.1 174.9 372.1 176 375.05 176.1 375.45 176.75 377.8 176.7 380.9 176.7 382.9 176.3 386.4 176.25 386.9 176.1 387.05 176.1 387.6 176.1 390.3 176.1 392.35 176.45 393.6 177 395.7 179.3 398.9 180.6 400.7 183.2 404.2 185.3 407.2 186.5 409.7 187.6 411.85 188.05 413.85 188.3 414.65 188.65 416.25 188.95 417.65 189.55 418.55 189.85 419.05 190.5 419.75 190.8 420.15 191.55 420.9 192.5 422.1 194 424.65 194.95 426.1 196.75 428.05 199.15 430.65 199.7 431.2 200.9 432.65 203.7 436.6 206.1 440.15 207.85 441.95 209.35 443.4 210.45 443.85 211.3 444.15 213.05 444.35 215.3 444.6 218.35 444.6 220 444.5 220.65 444.05 221.5 443.55 221.9 442.1 222.2 440.45 222.45 439.7 222.9 438.5 223.15 437.95
L 222.85 435.1
Q 222.85 435 222.8 434.95
L 222 433.8
Q 221.5 433 221.35 431.95 221.1 430.55 221.9 429.5 222.3 429 222.9 428.75 223.6 428.5 224.25 428.7 225 424.45 223.3 420.65 222.35 418.75 221.95 417.8 221.35 416.1 221.75 414.85 222.1 413.75 223.3 412.8 223.95 412.3 225.6 411.4 227.8 410.25 229.9 408.7 231.05 407.85 231.5 407.15 232.8 405.25 231.55 401.65 230.75 399.25 230.65 398.95 230.2 397.35 230.35 396.15 230.55 395.4 230.65 394.95
L 230.65 394.9 230.1 392.6
Q 229.35 391.55 229.05 391.1 228.15 389.7 227.55 387.1 226.65 383.4 226.55 383 225.95 381.45 225.6 380.65 225.15 379.35 225.05 378.3 224.8 376.2 226.05 374.35 226.25 374 227.05 373.15 227.65 372.4 227.95 371.95 228.4 370.65 228.7 370.05 229.05 369.4 229.95 368.35 230.85 367.3 231.1 366.7 231.55 366 232.15 364.6 232.9 363.45 235.55 361.9 238.05 360.45 238.7 359.1 238.85 358.75 239.2 358.55 239.45 358.3 239.65 358.55 239.75 358.45 239.9 358.4 240.8 358.05 241.9 357.15 243.6 355.8 243.75 355.7 244.25 355.3 245.6 354.65 246.8 354 247.4 353.6 248.8 352.55 250.35 350.35 253.3 346.15 255.6 341.75 256.65 339.65 257.1 338.2 257.45 337.1 257.9 334.9
L 258.9 329.8
Q 255.9 331.65 251.5 332 248.7 332.25 243.55 331.9 241.2 331.75 240.15 331.05 239.6 330.8 238.95 330.1 238.1 329.25 237.8 329 236.8 328.3 236.55 327.9 236.35 327.5 236.4 327.05 236.5 326.6 236.8 326.45 236.95 326.4 237.35 326.3
L 237.9 325.9 237.9 325.85
Q 237.9 325.8 237.95 325.75
L 236.75 322.6
Q 236.25 321.8 234.9 320.25 233.5 318.65 230.7 315.45 230.3 314.95 230.25 314.75 230.25 314.65 230.25 314.55 229.6 312.75 229.45 310.95 229.4 309.75 229.35 309.15 229.3 308.1 229.15 307.4 228.9 306.35 227.6 304.35 226.45 302.4 226.25 301.25 226 300.15 226.4 297.25 226.75 294.9 226.75 292.75 226.75 291.1 226.45 290.1 226.4 289.95 226.35 289.85 225.65 288.75 225.4 288.1 225 287.25 224.9 285.35
L 223.9 269.15
Q 223.9 268.1 224.1 267.75 224.15 267.7 224.2 267.6 224.3 267.3 224.55 267.2 224.9 266.95 225.3 267.1 225.6 267.2 226 267.85 227.2 270.2 227.05 272.9 228.8 272.7 230.1 275 231.5 277.4 231.55 280.25 231.55 280.4 231.55 281.95 231.5 283.05 231.65 283.7 231.75 284.1 232.65 286.65 233.7783203125 289.7748046875 233.45 292.95 233.429296875 293.4615234375 233.35 293.95 233.1 295.65 233.2 296.15 233.35 297.1 234.2 298.15 234.7 298.85 235.7 300 236.05 300.7 237.05 303.4 237.55 304.85 238.9 307.85 239.95 310.45 239.8 312.4 239.8 313.1 239.4 314.85 239.2 316.4 239.25 317.3 239.3248046875 318.645703125 240.35 320.55 240.695703125 321.1931640625 241.15 321.9 242 323.4 242.95 323.4 243.15 323.4 243.55 323.3 243.7 323.2 243.9 323.1 244.1 322.9 244.75 322.55 245.45 322.2 246.7 322.2 247.4 322.2 248.75 322.2 250.35 322.1 252.7 321 255.75 319.55 256.5 319.3 257.25 319.1 258.85 318.7 260.25 318.4 261.05 317.85 261.75 317.45 262.75 316.4 263.85 315.2 264.35 314.85 266.15 313.6 268.7 313.5 269.4 313.45 270.65 313.4 271.8 313.35 272.55 313 273.1 312.75 273.95 312.15 274.9 311.4 275.25 311.2 275.75 310.95 276.8 310.5 277.8 310.1 278.3 309.75 279.35 309 280.25 307.35 281.1 305.75 281.6 305.35 282.1 304.95 283.1 304.5 283.4 304.25 283.9 303.7 284.35 303.1 285 302.15 286.25 299.95 286 298.75 285.75 298.05 285 297.3 284.55 297 283.4 296.25 280.9 294.6 279.6 292.3 278.4 290 278.65 287.85
L 278.05 287.9
Q 277 291.1 272.1 292.45 269.4 293.1 267.75 292.5 266.65 292.1 265.95 291.2 265.25 290.2 265.45 289.15 265.8 288.15 265.9 287.65 266.05 286.6 265.4 286.2 265.1 286.4 264.6 287.4 264.1 288.15 263.65 288.15 262.85 288.05 262.75 287.2 262.75 286.9 262.9 285.9 263.35 283.1 261.95 280.7 261.65 280.15 260.85 279.15 260 278.05 259.7 277.5 258.5 275.35 259.35 273.75 259.85 272.8 261.1 272.4 262.25 272.05 263.45 272.35 265.4 272.8 266.6 274.3 267.3 275.15 268 276.85 268.9 278.85 269.3 279.45 270.4 281.4 273.25 283.8 274.15 284.45 274.6 284.7 274.7 284.75 274.75 284.75 275.5 285 276.55 284.8 276.621875 284.7759765625 277.05 284.65 277.514453125 284.510546875 278.4 284.25 279.45 284 280.3 284.1 281.35 284.3 281.7 285 281.95 285.4 281.85 285.7 281.9 285.65 282.05 285.7 282.35 285.8 282.35 286.5 282.4 286.85 282.45 287.2 282.75 287.85 283.45 288.25 284.15 288.65 285.55 288.9 290.05 289.8 292.5 290.05 296.3 290.55 299.4 290.15 302.25 289.8 302.85 289.8 305.35 289.85 307.75 291.5 308.95 292.15 310.25 293.4 311.75 294.85 312.75 296.25 313.6 297.65 314.1 298.05 315.1 298.95 316.05 298.6 316.4 298.45 317 298.05 317.7 297.95 317.95 298.35 318.2 298.85 317.45 299.45 316.15 300.45 314.75 301
L 316.2 303.3
Q 317.8 304.75 318.85 304.8 319.85 304.85 321.1 303.85 322.75 302.55 323.25 302.3 323.7 302 324 302.2 324.25 302.3 324.45 302.8 325.85 307.25 325.25 311.85 324.8 314.35 324.85 315.25 324.95 317.05 326.2 319.2 326.9 320.5 328.55 322.85 329.85 324.85 331.8 329.4
L 336.15 339.75
Q 337.3 342.55 338.45 343.75 339.15 344.5 339.8 344.35 340.1 344.3 340.35 344 340.5 343.9 340.75 343.65 342.378515625 341.6251953125 344.45 338.75 344.7568359375 338.3568359375 345.05 337.95 346.1 336.45 346.45 335.6 346.75 334.55 346.65 332.75 346.6 327.15 346.2 324.4 345.95 322.35 346.35 321.45 346.7 320.8 347.65 320.25 347.8 320.15 349.35 319.4 350.8 318.65 352.4 317.3 353 316.75 355.05 314.65 358.15 311.6 361.5 308.9 363.75 307.1 364.5 306 364.75 305.6 365.7 303.55 366.4 302.05 367.2 301.45 368.25 300.65 370.9 300.3 373.55 299.95 374.6 299.2 375.05 298.9 375.95 298 376.85 297.25 377.55 297.35 378.3 297.45 379.2 298.55 380.7 300.15 381.45 301.3 382.05 302.3 383.15 304.35 383.75 305.25 386.5 307.65 388.7 309.6 389.2 311.3 389.5 312.1 389.6 314.85 389.6 316.55 390.35 317.2 391.05 317.7 392.05 317.35 392.5 317.2 392.9 316.9 393.3 316.6 393.6 316.25 394 315.8 394.7 314.75 395.45 313.85 396.1 313.55 396.45 313.4 396.8 313.45 397.1 313.55 397.15 313.8 397.2 314.05 396.95 314.3 397 314.35 397 314.45 398.4 316.4 399.6 319.15 400.35 321 401.5 324.25 402 325.7 402.3 326.8 402.55 327.6 402.7 328.25 403 329.45 403.05 330.6 403.05 331.5 403 332.3 402.95 332.6 402.9 332.9 402.85 333.2 402.8 333.6 402.6 334.45 402.35 335.6 402.05 337.5 402.65 338.75 403.1 339.55 404.2 340.4 404.8 340.95 406 341.9 408.05 343.7 408.95 347.3 409.15 348.25 409.55 350.2 409.85 351.9 410.5 352.95 411.25 354.35 413.3 356.2 414.8142578125 357.6654296875 415.75 358.35 415.778125 358.3837890625 415.8 358.4 417.05 359.25 418.2 359.6 418.45 359.65 418.75 359.7 418.75 359.6 418.75 359.55 418.55 354.75 417.95 352.35 416.75 348.3 414 346.35 413.5 346 411.3 344.8 409.6 343.95 408.85 343.05 408.25 342.45 407.6 341.05 406.8 339.4 406.35 338.85 406.3 338.8 404.7 337.1 403.7 336.05 403.45 335.15 403.35 334.9 403.35 334.7 403.25 334.2 403.3 333.65
L 403.3 333.6
Q 403.3625 332.7671875 403.75 331.75 404.2 330.45 404.45 329.6 404.75 328.65 404.8 328.25 404.75 326.9 404.75 326.1 404.75 325.9 404.75 325.7 404.85 324.15 405.65 323.4 406.3 322.75 407 323.1 407.5 323.3 407.75 324.25 408.05 325.4 408.25 325.6 408.75 325.25 409.4 325.15 409.95 325 410.65 325.05 412 325.2 413.05 326 414.65 327.2 415.75 330.25 416.1 331.25 416.5 331.5 416.9 331.7 417.45 331.6
L 418.5 331.6
Q 419.3 331.5 419.7 331.8 419.95 332 420.1 332.8
L 421.15 337.6 427.15 329.3
Q 428.35 327.5 428.9 326.6 429.7 325.05 429.95 323.65 430.15 321.85 429.45 319.6 429.05 318.25 427.75 315.85 427 314.3 426.45 313.7 425.95 313 424.25 311.8
L 420.05 308.9
Q 418.85 307.95 418.5 307.35 418 306.45 418.2 304.7 418.8 301.7 421.9 297.15 422.75 295.9 423.6 295.35 424.1 295.05 424.7 294.95 425.4 294.85 425.9 295.2 426.3 295.35 426.75 296.15 426.85 296.25 427 296.4 427.3 297 427.6 297.3 427.85 297.55 428.1 297.7 428.2 296.25 430.45 294.7
L 435.6 290.95
Q 435.55 290.85 435.55 290.75 435.55 290.6 435.95 290.3 440.3 287.5 442.25 284.95 442.75 284.3 443.2 283.55 444.1849609375 281.9240234375 444.8 279.9 446.25625 275.4576171875 446.05 269.1 445.95 266.6 445 265.55 444.95 265.5 443.45 264.3 442.5 263.45 442.7 262.5 442.75 262.3 443 261.8 443.25 261.4 443.25 261.1 443.25 261 443.25 260.85 443.25 260.45 442.85 259.75 440.9 256.7 437.8 254.25 435.65 252.65 435.25 252.25 433.85 250.85 433.85 249.35 433.85 248.4 434.45 247.6 434.8 247 435.85 246.2 436.95 245.45 437.35 244.85 434.95 244.5 433.9 245.05 432.85 246.05 432.1 246.2 431.35 246.35 430.15 245.55
L 426.1 242.75
Q 425.7 242.45 425.65 242.2 425.6 241.95 425.9 241.8 425.95 241.75 426 241.75 425.9 241.45 426.25 241 426.65 240.4 427.5 239.2 428.25 238.15 428.55 237.25 428.9 236 429.1 235.4 429.5 234.35 430.15 233.9 430.6 233.7 431.05 233.7 431.65 233.75 431.9 234.05 432.2 234.4 432.4 235.05
L 433.45 238.75
Q 433.95 238.5 434.65 237.4 434.7 237.25 434.8 237.1 435.5 235.75 436.25 235.55 437.3 235.25 438.2 236.15 438.6 236.55 439.3 238 439.85 239.25 440.35 239.85 441 240.5 441.8 240.7 442.25 240.85 443.05 241 443.75 241.25 444.65 242.65 445.95 244.85 447.7 247.25
L 449.2 247.25
Q 449.25 247.15 449.25 247 449.33828125 246.679296875 449.4 246.35 449.8240234375 244.6150390625 449.95 242.6 449.85 242.55 449.75 242.5 449.4 242.35 449.2 242 448.15 240.3 445.75 238.6 442.95 236.85 441.6 235.85 440.7 235.25 440.6 234.65 440.5 234.25 440.9 233.9 441.2 233.55 441.55 233.7 441.05 230.3 440.65 225.6 440.55 224.55 440.9 224.05 441.2 223.6 442 223.4 442.45 223.25 443.35 223.15 444.15 222.95 444.25 222.45 444.3 222.35 444.15 221.8 444 221.15 444 219.95 444 218.6 443.85 218.05 443.75 217.3 443.25 216.25 442.6 215.1 442.3 214.55 441.95 213.75 441.4 212 440.9 210.25 440.45 209.4 439.5 207.35 437.25 204.7 433.8 200.9 433.4 200.35 432.95 199.9 432.95 199.5 432.95 198.9 433.45 198.8 433.8 198.8 434.3 199.45 434.8 200.25 436.1 200.95 438.05 202.1 438.2 202.25 439.1 202.85 440.45 204.55
L 444.75 210
Q 445.55 209.45 445.25 208.35
L 445.25 208.3
Q 445.1 207.75 444.4 206.9 443.4 205.6 442.5 204.55 439.35 200.8 437.2 199.1 434.6 197.1 434.35 196.9 433.7 196.2 433.3 195.9 432.7 195.35 432.1 195.1 431.3 194.65 430.1 194.65 429.55 194.65 427.95 194.8 425.1 195.15 422.3 194.95 421.5 194.95 421.55 194.4 421.5 194.3 421.4 194.25 419.2 191.3 418.55 187.8 418.3 186.55 418.1 186.05 417.8 185.1 417.1 184.7
L 416.25 184.2
Q 416 183.95 416.05 183.5 416.05 183 416.3 182.8 416.35 182.75 417.2 182.4 418 182.1 419.1 181.25 419.45 181.05 419.7 180.8 420.2 180.2 420.2 179.7 420.15 179.3 419.9 178.85 417.95 175.65 415.5 173.4 415 172.85 415.2 172.55 415.35 172.15 416.05 172.25 417.02265625 172.3505859375 418.05 172.8
L 418.1 172.8
Q 418.6171875 173.043359375 419.15 173.35 419.4 173.45 419.75 173.65 419.85 173.65 419.9 173.7 420.1 173.85 420.4 174.05 420.5 174.1 420.55 174.15 420.85 174.35 421.2 174.6 421.65 174.85 422.05 175.2 424.1 176.55 425.2 177.8 426.1 178.8 427.45 181.1 429.2 183.4 432.85 185.85 438.4 189.55 438.9 189.9 439.55 190.5 440.95 191.6 441.4283203125 191.9744140625 441.85 192.25 442.4951171875 192.7080078125 443.05 193 442.2 192.45 441.4 191.45 441.35 191.35 440.1 189.45 439.12734375 187.8537109375 437.9 186.6 436.7283203125 185.3771484375 435.3 184.5 434.45 184 433.95 183.75 433.2 183.25 432.75 182.85 432.4 182.5 431.45 181.25 430.65 180.2 430 179.8 429.9 179.7 428.2 178.85 427.65 178.5 426.7 177.65 424.95 176.05 423.5 174.1 423.2 173.65 422.9 173.35 422.7 172.85 422.7 172.65
L 422.55 171.8
Q 422.58984375 171.6408203125 422.65 171.55
L 421.4 172.45 421.75 171.85 421.75 171.8 423 169.8
Q 408.8 161.05 393.35 155.35
L 392.35 157.95
Q 392.45 158.1 392.45 158.45 392.55 158.95 393.4 159.8 394.25 160.6 394.3 161.2 394.4 161.75 394.1 162.3 393.75 162.7 393.25 162.95 392.2 163.35 391.15 162.55 390.5 162.15 390.3 162.15 389.7 162.15 389.5 163 389.45 163.2 389.3 163.55 389.15 163.95 389 164.15 388.45 164.7 387.3 164.2 386.25 163.4 385.75 163.15 384.75 162.5 383.95 162.85 383.25 163.35 382.9 163.6 382 164.3 380.85 164.05 381.9 165.2 381.4 165.8 381.3 166 381 166.1
L 380.55 166.3
Q 380.25 166.5 380 167 379.9 167.25 379.65 167.85 379.3 169 378.65 169 378.2 169.05 377.65 168.8 376.9 168.35 376.05 167.55 374.95 166.4 374.65 166.15 373.7 165.375 372.8 165.1 371.9 164.875 371.05 165.15 370.35 165.25 369.15 166.3 367.95 167.25 367.2 167.4 366.55 167.5 365.3 167.25 364.85 167.15 364.5 167.1 363.8 167.05 363.4 167.1 363.45 167.45 363.1 167.65 362.75 167.8 362.3 167.75
L 359.45 167.6
Q 359 167.6 358.8 167.45 358.45 167.25 358.55 166.95 358.6 166.8 358.8 166.75 358.6 166.35 358.7 165.7 358.7 164.85 358.45 164.55 356.7 164.7 355.75 164.65 354.35 164.6 353.25 164.25
L 351.75 163.5
Q 351.4 163.4 351.15 163.4 350.55 163.35 350.2 163.65
M 382 201.75
Q 381.9 201.45 382 201.2 382.2 200.8 382.55 200.9 383 201.05 383 201.75 383 202.5 383.05 202.65 383.1 202.8 383.75 203.6 384.2 204.1 384.65 205.1 385.4 206.7 385.35 207.75 385.25 209 384.3 209.6 383.6 210.05 383.35 210.25 383.25 210.4 382.45 211.35 382.05 212 381.6 212.45
L 381.05 213.1 380.6 213.8
Q 380.25 214.2 379.65 214.15 379.2 214.05 378.8 213.7 378.65 213.25 378.65 212.65 378.65 211.95 378.75 211.55 378.95 211.1 379.8 210.35 380.45 209.9 380.55 209.55 380.8 209.15 380.9 208.5 381.4 207.3 381.55 206.55 382.35 204.25 382 201.75
M 241.15 192.65
Q 242.1 192.65 242.8 192.5 243.1 192.4 243.65 192.2 243.95 192.05 244.2 191.9
L 246.85 190.7
Q 248.25 190.05 248.75 189.6 248.8 189.6 250.1 188.45 251.4 187.35 253.1 187.15 253.25 186.85 253.85 186.85 254.95 186.8 255.8 185.85 256.4 185.3 257 184 257.35 183.1 257.7 182.7 258.3 182 259.8 181.4
L 264.6 179.4
Q 266.85 178.5 267.55 178.25 270.4 177.25 270.7 177.1 272.35 176.35 273.05 176.25 273.7 176.15 274.25 176.45 274.9 176.8 275 177.4 275.1 177.9 274.85 178.2 274.65 178.45 273.85 178.65 272.7 178.95 270.9 180.2 269 181.6 268 181.95 267.05 182.2 266.55 182.35 265.75 182.6 265.25 182.9 264.95 183.1 264.05 184 262.9 184.9 262.3 185.4 261.35 186.25 261.05 187.05 260.95 187.3 261 187.4 261.15 187.65 261.55 187.55 264.25 187.25 265.65 187.2 266.7 187.15 267.15 187.3 268 187.55 268.15 188.3 268.3 188.8 267.9 189.1 267.85 189.15 267.05 189.4 266.6 189.5 265.95 189.95 265.15 190.55 264.9 190.7 264.2 191.05 263.2 191.05 261.6 191.05 260.2 190.6 259.2 190.3 258.8 190.45 258.45 190.5 257.9 190.9 257.5 191.3 257.2 191.45 257.2 191.55 257.2 191.75 257.2 191.95 257.25 192.4 257.25 192.8 257.1 193.1 256.85 193.6 256.2 193.7 255.8 193.8 254.95 193.7 251.75 193.4 249.8 194.75 249.35 195.15 248.05 196.4 247 197.5 246.2 197.95 245.5 198.25 244.95 198.1 244.7 198 244.2 197.6 243.8 197.2 243.5 197.1 243.25 197.05 242.4 197.15 241.1 197.35 240.2 197.3 239.3 197.25 238.75 197 238.1 196.6 237.85 195.85 237.65 195.2 238.15 194.35 238.4 193.8 238.65 193.35 238.6 193.3 238.55 193.2 238.45 192.9 238.85 192.7 239 192.65 239.35 192.65 239.45 192.6 239.65 192.65
L 241.15 192.65
M 282.7 178.5
Q 282.75 178.35 282.65 178 282.6 177.75 282.75 177.5 282.8 177.45 283.1 177.4 283.85 177.3 284.25 177.7
L 284.8 178.25
Q 285.25 178.8 286 179.3
L 286.35 179.6 287 179.85
Q 287.45 179.95 288.4 180.35
L 289 180.5
Q 289.4 180.7 289.4 181 289.4 181.25 289.1 181.55
L 288.75 182.1
Q 288.3 182.6 288.15 182.6
L 286.95 183.2
Q 286.1 183.6 285.2 183.05 284.65 182.6 284.55 182.6
L 284.15 183.65
Q 283.8 184.25 283.7 184.3 283.4 184.5 282.95 184.5 282.35 184.6 281.8 184.35 281.25 183.95 280.95 183 280.9 182.7 280.9 181.35
L 280.95 180.8 281.25 180.55
Q 281.5 180.2 281.9 179.5 282.1 179.35 282.4 179.05 282.65 178.8 282.7 178.5
M 297.55 228.45
Q 297.8 228.4 298.2 228.4 298.85 228.4 299.1 228.45 299.5 228.55 300 229 300.75 229.65 301.55 230.9 301.9 231.45 302 231.75 302.2 232.25 302.1 233.05 302.1 233.55 302 233.8
L 301.7 234.2
Q 300.5 235.45 299.55 236.25
L 298.95 236.6
Q 298.7 236.65 298.15 236.65 296.2 236.65 295.8 236.65 294.5 236.55 293.6 236 293.3 235.85 293.2 235.65 293.1 235.5 293.1 235.1
L 293.1 233.25
Q 293.1 232.6 293.2 232.35
L 293.55 231.7
Q 293.95 231.15 295.25 230.1
L 296.2 229.3 297.55 228.45
M 284 225.4
Q 284.25 225.6 284.7 226.1
L 286.3 228.35
Q 287.35 229.85 287.5 230.65 287.5 230.7 287.55 230.8 287.55 231.45 287.15 231.75 286.95 231.95 286.15 231.85 285 231.65 282.5 231.15 281.45 230.85 280.9 231.15
L 280.35 231.8
Q 279.95 232.05 279.15 232.05 278.25 232 277.9 232.05 277.75 232.5 278.2 232.85
L 279 233.2
Q 279.75 233.65 279.95 235.4 280.2 237.55 280.1 239.7 280.25 239.9 280.55 239.8 280.7 239.75 281.1 239.6 282.1 239.3 282.8 240.95 283.55 242.7 282.8 243.55 282.25 244.15 280.6 244.05 281.55 244.95 281.55 246.75 281.55 249 280.1 252.2 279.3 253.7 278.65 254.25 277.7 255.15 276.2 255.35 274.85 255.5 273.45 254.95 271.45 254.1 269.2 251.45 268.25 250.4 268.15 249.55 268 248.8 268.75 247.3 269.45 245.8 270.2 245.2 270.55 244.9 271.35 244.4 272 243.95 272.1 243.4 272.25 242.9 271.65 241.55 270.8 239.8 270.3 237.9 269.55 234.75 270.1 232.25 270.85 229.05 273.1 227.55 274.5 226.6 276.9 226.1 279.65 225.55 282.65 225.25 283.45 225.15 284 225.4
M 257.7 221.35
Q 258.2 221.35 258.35 221.5 258.6 221.75 258.5 222.15
L 258.1 222.75 257.5 223.45
Q 257 224.15 256.45 224.6
L 255.35 225.55
Q 254.9 225.95 254.1 226.05 253.85 226.05 252.7 225.95 252.15 225.85 251.7 225.7 251.3 225.55 251.1 225.25 250.75 224.85 250.65 224.3
L 250.55 223.25 250.55 222.9
Q 250.55 222.75 250.95 222.55
L 252.1 222
Q 253.55 221.35 256.6 221.35
L 257.7 221.35
M 243.8 220.65
Q 244.8 220.1 245.25 220.15 245.8 220.15 246.2 220.7 246.6 221.2 246.7 221.8 246.8 222.6 246.65 224.15 246.7 225.05 246.55 225.4 246.25 225.85 246.1 226.05 245.9 226.45 245.95 226.65 246.7 226.75 248.55 226.5 250.25 226.25 251.15 226.5 251.25 226.55 251.35 226.6 252.25 226.85 253.3 227.7 254.5 228.7 256.3 231.05
L 258.15 233.3
Q 258.8 234.2 258.85 234.55 259 235.2 258.5 235.95 258.4 236.1 257.5 237.2 256.4 238.5 256.05 238.65 255.4 239.05 253.95 239.05 250.9 239.05 249.5 238.45 248.5 238 246.15 236 244.1 234.35 242.65 234.1 241.9 233.95 240.3 234.15
L 237.3 234.5
Q 235.65 234.8 234.75 234.25 234.45 234.05 234.1 233.65 233.75 233.15 233.55 232.95 233.25 232.65 233 232.5
L 232.95 232.45
Q 232.75 232.2 232.55 232.05 232.3 231.75 232.15 231.55 232.05 231.25 232 231 231.9 230.25 232.8 229.25 235.25 226.45 236.7 225.4 237.4 225 238.6 224.3 239.95 223.65 240.5 223.25 241.7 222.45 243.8 220.65
M 229.2 234.4
Q 229.05 234.1 229.05 233.8 229.05 233.45 229.3 233.3 229.4 233.15 229.8 233.15
L 231.6 233.15
Q 232.05 233.15 232.3 233.3 232.45 233.45 232.7 234.05 232.7 234.2 232.75 234.35 232.8 234.8 232.75 235.05 232.55 235.65 232.1 235.8 231.9 235.9 231.45 235.8
L 230.75 235.75
Q 230.15 235.65 229.95 235.5 229.45 235.2 229.25 234.45 229.2 234.45 229.2 234.4
M 375.35 159.5
L 375.85 159.1
Q 376 158.95 375.95 158.7 374.8 159.65 374.05 159.75 373.7 159.85 373.2 159.85 372.6 159.8 372.25 159.8 371.15 159.7 370.65 160.35 370.9 160.5 371.8 160.6 372.5 160.7 372.7 160.65 373.1 160.6 373.8 160.35 374.05 160.3 374.65 160.25 375 160.1 375.35 159.5
M 317.15 159.65
Q 317.7 159.75 318.25 159.85
L 318.5 159.85
Q 318.75 159.8 319.1 159.7
L 318.95 159.05
Q 318.55 158.95 318.3 159.1 318.2 159.1 317.95 159.25
L 317.15 159.65
M 326.1 165.55
Q 325.9234375 165.5279296875 325.75 165.5 323.54921875 165.3236328125 321.65 166.25 319.85 167.3 318.85 167.7 317.7 168 317.15 168.15 315.7 168.55 312.75 169.8 310.25 170.95 309.4 171.8 309.4 172.4 309.5 172.65 309.65 172.9 310.15 173.35 311.5 174.3 312.3 174.55 312.35 173.4 312.7 172.45 313.1 171.3 313.95 170.7 314.2 170.55 315.5 169.95 316.35 169.7 317.85 168.85 319.35 167.9 320.05 167.6 320.85 167.2 321.95 166.95
L 326.1 165.55
M 325.8 159.1
L 325.5 159.05 322.45 159 321.7 158.8 321.65 158.75
Q 321.55 158.8 321.55 159
L 321.55 159.75 323.4 159.75 323.6 159.8 325.75 159.85 325.75 159.3 325.8 159.1
M 300 158.25
Q 299.85 158.3 299.15 158.75 298.25 159.5 297.95 159.8 298.3 159.9 299.1 160.1 299.85 160.25 300.25 160.1 300.7 160 301.15 159.6 302.8 158.3 303.75 157.9 302.85 158.25 301.25 158.15 300.55 158.05 300 158.25
M 305.35 156.95
L 304.5 157.55
Q 304.4 157.7 304.25 157.75 305.15 157.6 305.8 157.7 306.65 157.8 306.8 157.8
L 306.35 157.1
Q 306.15 156.85 305.9 156.8 305.7 156.75 305.35 156.95
M 220.65 193.3
Q 219.65 193.7 219.25 194.25 221.25 195.2 223.35 195.6 223.4 195.6 223.45 195.65
L 223.5 195.65
Q 223.7740234375 195.67578125 223.95 195.65 224.1787109375 195.67421875 224.3 195.65 224.6 195.5 225.05 195.1 225.55 194.45 226.1 193.15 226.7 191.65 227.05 191.15 227.75 190 229.75 188.2
L 230.8 186.85
Q 231.3 186.2 233.7 184.2 235.6 182.6 236.25 181.25 235.8 181.25 235.2 181.55 234.65 181.85 233.95 182.45 231.85 184.35 230.9 185.4 230.05 186.4 229.65 186.9 229.600390625 186.9638671875 229.55 187 228.907421875 187.8390625 228.35 188.35 227.1 189.35 226.45 189.9
L 225.1 191.1
Q 224.5 191.55 223.15 192.2
L 220.65 193.3
M 220.15 189.5
Q 220.3 189.5 221.3 189.7 221.7650390625 189.771484375 222.1 189.6 222.2720703125 189.549609375 222.4 189.45
L 222.7 189
Q 223.65 187.85 224.8 187.25
L 225.9 186.65 226.75 186.3
Q 227.45 186.05 227.7 185.35 227.85 185.1 227.85 184.75 227.45 184.65 226.95 185
L 226.05 185.7
Q 224.75 186.55 223.25 187.05
L 222.05 187.35
Q 221.35 187.7 221.05 188.05
L 220.15 189.5
M 206.35 224.15
L 206.3 224.15 206.1 224.2 205.9 224.35
Q 205.75 224.5 205.75 224.55 205.65 224.55 205.65 224.7
L 205.45 224.75
Q 205.35 224.9 205.35 224.95 205.2 224.95 205.2 225.1 205 225.15 204.9 225.35 204.75 225.35 204.75 225.5 204.6 225.5 204.6 225.65 204.5 225.65 204.5 225.75
L 204.45 225.75 204.4 225.9
Q 204.25 225.9 204.25 226.05
L 204.2 226.05 204.15 226.15
Q 203.9 226.25 204 226.45
L 203.95 226.45 203.9 226.8 203.85 227 203.9 227.1
Q 203.9 227.5 203.95 227.5
L 204 227.5
Q 204 227.75 204.15 227.6 204.15 227.5 204.3 227.5
L 204.35 227.35 204.45 227.3 204.55 227.05 204.6 227.05 204.75 226.85 204.8 226.8 204.85 226.65 205 226.6 205.45 225.85 205.5 225.85 205.8 225.4 205.9 225.3
Q 205.9 225.15 206.05 225.15 206.05 225.05 206.2 225.05 206.2 224.9 206.35 224.9
L 206.4 224.75 206.45 224.75 206.5 224.65 206.55 224.65 206.55 224.5 206.6 224.5 206.6 224.05 206.35 224.15
M 217.9 248.55
L 219.7 248.55 218.45 247.65
Q 217.45 247.05 216.85 247.1 216.95 247.65 217.35 248.15 217.6 248.5 217.9 248.55
M 234.8 251.55
Q 234.6 251.6 234.2 251.8 233.8 252.05 233.6 252.1
L 233.15 252.2
Q 232.75 252.2 231.9 252.3
L 232.8 252.95 233.05 253.1 233.35 253
Q 233.85 252.55 234.8 251.55
M 251.9 166.05
L 251.9 166.2 252 166.4 252.2 166.6 252.5 166.65 252.9 166.65 253.7 166.35 257.4 164.5 257.7 164.25
Q 257.95 164 257.85 163.75 257.7 163.55 257.7 163.45 257.5 163.35 257.5 163.2 256.9 163.15 256.3 163.35
L 254.3 164.25 252.45 165.45
Q 252.05 165.75 251.9 166.05
M 345.65 160.6
Q 345.35 160.6 344.6 160.3
L 343.25 159.65 342.8 159.5
Q 342.2 159.35 341.1 159.35
L 340.8 159.4
Q 340.6 159.6 340.8 159.8 341 160.25 341.3 160.4 341.55 160.6 342.4 160.6
L 343.35 160.85 343.85 161.05
Q 344.65 161.4 345.3 161.5
L 345.9 161.65
Q 346.75 161.8 347.45 161.75 346.95 161.55 346.8 161.5 346.6 161.5 346.15 161.1
L 345.65 160.6
M 312.35 147.15
L 312.7 146.85
Q 313 146.6 313.25 146.75
L 313.15 145.2
Q 288.3 147.3 266.1 155.6
L 266.05 156.35
Q 266.2 156.35 266.35 156.45 266.85 156.6 267.75 157
L 268.5 157.35
Q 268.7 157.6 268.75 157.8
L 272.95 157.85
Q 274 157.9 274.75 157.8 275.6 157.55 277 156.65 278.7 155.65 279.8 155.3 280.55 155.1 282.85 155.05 284.65 154.95 286.9 154.2 289.05 153.4 289.75 153.25 291.25 152.9 294.3 152.85 295.45 152.7 298.35 151.9 298.3765625 151.8927734375 298.4 151.85 298.4767578125 151.866796875 298.55 151.85 301.0099609375 151.198046875 302.5 151.15 302.7 151.15 303.9 151.15 304.8 151.15 305.35 151.05 307.15 150.8 308.9 149.35 309.4 149 310.2 148.3
L 310.2 148.25
Q 310.25 148.1 310.45 148.05 310.45 147.95 310.55 147.9 311.5 147.25 312.35 147.15
M 468.95 393.25
Q 468.030859375 393.6197265625 467 394.55 465.35 396.1 463.7 398.35 462.9 399.4 460.85 402.6 458.15 406.55 455.95 409.4 454.45 411.3 453.55 411.9 452.95 412.35 451.95 412.75 450.8 413.15 450.2 413.4 444.15 415.6 439.75 420.2 437.7 422.4 436.85 424.2 436.5 424.9 435.45 428.05 434.45 431.15 434.25 431.85 433.95 433.25 433.8 436.2 433.55 439.85 432.95 442.1 432.05 445.35 430.2 447.3 429.4 448.2 429.15 448.55 428.65 449.3 428.85 450 431.1 450.5 434.15 449 434.3 448.95 436.6 447.7 438.1 446.9 439.15 446.55 439.2 446.55 440.7 446 441.7 445.7 442.3 445.35 442.85 445 443.55 444.35 443.95 443.95 444.75 443.2 446.3 442 449.65 440.55 453.25 439.1 454.6 438.15 455.4 437.6 456.8 436.5 458.15 435.55 459.25 435.55 460.1 435.5 460.5 435.8 461.05 436.25 461.15 437.3 461.45 440.15 458.55 443.8 457.15 445.65 454.75 448.05 454.3 448.6 453.85 449.05 451.85 451.1 450.8 452.15 446.1 457.15 444.5 461.6 444.3 462.15 443.95 462.15
L 445.45 463.9
Q 451.7 458.55 457.65 452.6 488.65 421.65 501.5 383.2
L 501.4 383.2 500.7 382.95
Q 500.65 383.2 500.35 383.45
L 495.95 388.25
Q 495.25 389 494.7 388.8 494.45 388.75 494.3 388.4 494.2 388.05 494.2 387.55
L 494.3 384.1
Q 494.4 382.1 494.65 381.4
L 495.3 379.4 495.55 378.05
Q 495.7 376.6 495.5 374.65 495.15 375.15 495.05 376.25 494.85 377.55 494.7 377.9 494.6 378.3 493.75 379.8 493.1 380.9 492.45 382.75 491.55 385.6 491.45 385.8 491.35 386.15 489.8 389.5 488.75 391.65 488.55 393.3 488.55 394.1 487.85 394.75 487.15 395.4 486.3 395.25 485.65 395 485.05 394.25 482.8 391.4 483.2 387.9 483.45 384.35 486.15 382.05 483.2 383.15 480.3 382.6 481 384.55 478.8 386.75 476.9 388.45 476.1 389.55 475.8 390.05 475 391.55 474.35 392.9 473.8 393.5 472.9 394.5 471.95 394.45 471.35 394.4 471 394 470.55 393.5 470.75 393.05 469.9048828125 392.8759765625 468.95 393.25 Z"/>
</g>

<path id="Layer0_0_1_STROKES" stroke="#EAA0A2" stroke-width="6" stroke-linejoin="bevel" stroke-linecap="round" fill="none" d="
M 149.75 315.7
Q 151.45 277 167.95 244.35
M 423 169.8
Q 408.8 161.05 393.35 155.35 385.9 152.6 378.15 150.5 378.05 150.5 378 150.5 377.9 150.5 377.85 150.5 355.2 144.5 330.1 144.5 321.45 144.5 313.15 145.2
M 266.1 155.6
Q 266.05 155.6 266.05 155.65 266 155.65 265.95 155.65 265.85 155.7 265.7 155.8 265.55 155.85 265.4 155.9 259.75 157.95 254.2 160.4 254.05 160.5 253.95 160.55 253.359375 160.83203125 252.775 161.125 252.7599609375 161.132421875 252.75 161.15 252.7099609375 161.157421875 252.675 161.175 241.1361328125 166.785546875 230.5 173.975 230.4728515625 173.9845703125 230.45 174 230.3 174.05 230.2 174.15 229.5 174.6 228.85 175.1 223.1 179 217.65 183.5 217.6 183.5 217.55 183.5 217.45 183.55 217.4 183.65 215.2859375 185.3626953125 213.2 187.15 213.0857421875 187.248046875 212.975 187.35 212.950390625 187.3755859375 212.925 187.4 209.8048828125 190.077734375 206.75 192.925 204.355078125 195.160546875 202 197.5 198.15 201.4 194.65 205.5 194.05 206.2 193.45 206.9 193.426171875 206.9259765625 193.4 206.95 191.227734375 209.328125 189.2 211.9 183.8 218.45 179.15 225.35 172.95 234.5 168.05 244.2 168 244.25 168 244.3 167.95 244.3 167.95 244.35
M 438.2 180.2
Q 439.6 181.55 441.15 182.8 449.6 189.55 457.5 197.45 510.45 250.4 510.45 325.15 510.45 346.8212890625 505.95 366.75
L 505.95 366.85
Q 504.35 374.1 502.15 381.1 501.85 382.15 501.5 383.2 488.65 421.65 457.65 452.6 451.7 458.55 445.45 463.9
L 445.4 463.95
Q 396.35 505.5 330.1 505.5 255.25 505.5 202.4 452.6 149.55 399.8 149.55 325 149.55 320.35 149.75 315.8 149.75 315.75 149.75 315.7
M 505.95 366.85
Q 505.9 366.9 505.9 367 504.25 374.2 502.05 381.25 501.7 382.25 501.4 383.2
M 254.2 160.4
Q 259.5 157.85 265 155.85 265.3 155.7 265.7 155.8
M 266.1 155.6
Q 288.3 147.3 313.15 145.2"/>

<path id="Layer0_0_2_STROKES" stroke="#E9A0A2" stroke-width="6" stroke-linejoin="bevel" stroke-linecap="round" fill="none" d="
M 423 169.8
Q 423.85 170.3 424.65 170.85 431.6 175.2 438.2 180.2"/>
</defs>

<g transform="matrix( 1, 0, 0, 1, 0,0) ">
<use xlink:href="#Layer0_0_FILL"/>

<use xlink:href="#Layer0_0_1_STROKES"/>

<use xlink:href="#Layer0_0_2_STROKES"/>
</g>
</svg>
