
<svg xmlns="http://www.w3.org/2000/svg" version="1.1" xmlns:xlink="http://www.w3.org/1999/xlink" preserveAspectRatio="none" x="0px" y="0px" width="550px" height="190px" viewBox="0 0 550 190">
<defs>
<g id="Layer0_0_FILL">
<path fill="#EAA0A2" stroke="none" d="
M 252.05 9.2
L 260.05 9.2
Q 263.5 6.35 260.05 2.95
L 231.65 2.95
Q 229.35 6.1 231.65 9.2
L 240.3 9.2 240.3 15.85
Q 236.4 15.25 234.25 19.25 234.15 19.4 234.1 19.6 233.55 20.65 233.15 21.95 234.3 25.35 235.9 27.2 237.85 29.45 240.4 29.35
L 240.4 36.8 254.4 37
Q 253.15 36.8 251.85 36.65
L 251.9 29.2
Q 254.45 28.65 256 27.35 258.2 25.5 258.4 22.1 258.3 20.65 257.9 19.5 257.85 19.45 257.85 19.4 256.5 15.95 252.05 15.6
L 252.05 9.2
M 258.55 142.7
L 245.55 146.95 245.55 160.35 233.35 180.3 247.65 180.25 258.55 159.7 258.55 142.7
M 172.85 154.15
L 172.85 158.65 161.85 180.4 174.6 180.4 185.6 160.65 185.6 154.65 172.85 154.15
M 249.1 76.4
L 293.6 76.15 272.1 61.65 230.1 61.65
Q 231.6 76.05 249.1 76.4
M 143.85 132.65
L 143.85 127.15
Q 141.35 122.8 136.85 122.4 134.4 121.85 130.45 121.8 126.5 121.7 121.1 122.15 114.3 127.6 117.6 133.9 119.35 136.5 121.75 137.65 124.1 138.75 127.1 138.4
L 136.35 138.4
Q 143.2 136.85 143.85 132.65 Z"/>

<path fill="#E38083" stroke="none" d="
M 233.35 180.3
L 174.6 180.4 161.85 180.4
Q 135.6 181.5 117.05 165.6 110.05 162.25 111.35 170.4 111.6 170.65 111.85 170.95
L 111.9 171
Q 129.05 189.9 167.1 187.9
L 293.1 187.9
Q 299 186.95 298.35 184.15 296.55 180.4 292.1 180.15
L 247.65 180.25 233.35 180.3
M 545.6 36.15
L 526.85 36.15 482.1 86.9 293.6 76.15 249.1 76.4
Q 231.6 76.05 230.1 61.65
L 272.1 61.65
Q 272.4 40.15 254.4 37
L 240.4 36.8 229.35 36.65
Q 230 47.05 220.85 51.15 206.4 50.75 204.1 61.65
L 191.35 61.65
Q 192.95 96.2 170.35 109.7 161.7 114.8 149.6 116.9
L 100.1 116.9
Q 97.45 125.65 104.85 134.4 110.25 139.95 118.5 143.95 137.9 153.35 172.85 154.15
L 185.6 154.65
Q 215.1 154.45 245.55 146.95
L 258.55 142.7 328.85 117.4
Q 339.8 110.5 366.1 110.4
L 485.1 104.15 502.6 130.4 518.1 130.4 505.1 92.4 545.6 36.15
M 143.85 127.15
L 143.85 132.65
Q 143.2 136.85 136.35 138.4
L 127.1 138.4
Q 124.1 138.75 121.75 137.65 119.35 136.5 117.6 133.9 114.3 127.6 121.1 122.15 126.5 121.7 130.45 121.8 134.4 121.85 136.85 122.4 141.35 122.8 143.85 127.15
M 114.05 103.85
L 110.15 110.35 113.55 110.35 117.15 104.6 114.05 103.85
M 145.15 82.95
L 143.65 80.2 126.3 92.35 128.3 94.2 145.15 82.95
M 181.3 69.35
L 181.3 66.1
Q 166.05 69.3 150.8 76.85
L 152.55 79.45
Q 168.05 72.05 181.3 69.35 Z"/>
</g>
</defs>

<g transform="matrix( 1, 0, 0, 1, 0,0) ">
<use xlink:href="#Layer0_0_FILL"/>
</g>
</svg>
