
<svg xmlns="http://www.w3.org/2000/svg" version="1.1" xmlns:xlink="http://www.w3.org/1999/xlink" preserveAspectRatio="none" x="0px" y="0px" width="650px" height="650px" viewBox="0 0 650 650">
<defs>
<g id="Layer1_0_FILL">
<path fill="#418c89" stroke="none" d="
M 225.7 541.8
L 163.65 499.85 159.8 506.3 221.55 547.95 225.7 541.8
M 231 542.3
L 229.35 532.8 170.7 493 162 495.45 231 542.3
M 164.7 241.3
L 162.25 244.8 166.85 249 168.55 243.85 164.7 241.3
M 153.8 252.2
L 152.55 251.65 146.7 259.6 147.2 260.6 153.8 252.2
M 119.35 231.3
Q 117.95 234.7 121.15 236.4
L 124.6 232.15
Q 123.25 229.65 119.35 231.3
M 142.1 244.45
L 141 243.85 136.85 249.25 136.75 249.3 136.1 250.35 136.95 251.15 142.1 244.45
M 152.05 235.65
L 155.75 238.7 157.35 236.5 153.45 233.75 152.05 235.65
M 159.2 237.55
L 157.15 240.05 160.85 243.55 163.2 240.25 159.2 237.55
M 150.4 231.25
L 149.15 232.95 150.55 234.4 151.95 232.55 150.4 231.25
M 158.6 222.95
L 156.45 228.2 171 240.9 174 235.2 158.6 222.95
M 126.05 241.65
L 127.05 240.85 130.6 236.4 129.3 235.15 125.15 240.9 126.05 241.65
M 161.8 213.7
L 157.9 218.9 159.1 220.9 164.3 214.6 161.8 213.7
M 207.3 175.55
L 207.25 175.6 205.25 178 208.55 181.45 211.3 178.55 207.3 175.55
M 217.8 183.35
L 212.75 179.65 209.95 182.85 213.2 186.15 217.8 183.35
M 213.8 153.2
L 212.9 152.45 212.15 153.4 212.15 153.35 207.65 158.6 208.5 159.6 213.8 153.2
M 225.1 161.5
L 223.9 161.2 217.55 168.55 218.2 169.85 225.1 161.5
M 195.5 176.45
L 190.75 180.8 206 193.6 211.1 189.45 195.5 176.45
M 189.15 181.05
L 189.2 181.05 186.3 180.2 186.2 180.25 181.7 186.15 183.3 188.35 189.15 181.05
M 168.35 210.35
L 182 221.55 195.55 204.95 180.95 193.8 168.35 210.35
M 190.8 203.65
Q 191.45 204.25 191.95 205.1
L 181.95 218.25
Q 177.8 216 176.6 211.8 178.5 207.4 177.3 203.9 180.9 203.6 184.25 201.5 188.55 201.75 190.8 203.65
M 149.65 182.25
Q 148.95 185.7 148.7 188.6 153.35 185.4 155.3 179.55 152.7 180.5 149.65 182.25
M 181.55 188.2
L 176.3 187.7 175.2 185.65
Q 168.6 197.25 159.6 206.35
L 161.8 207.45 163.8 211.15 179.75 224.4 180.35 223.45 165.4 210.7 180.85 190.6 197.1 203.25 198.45 201.5 181.55 188.2
M 200.55 170.15
L 198.75 168.95 197.35 170.6 199.1 171.85 200.55 170.15
M 201.95 171.25
L 200.4 173.05 203.8 176.4 205.7 174.4 201.95 171.25
M 197 148.8
L 198.35 149.8 202.05 145.35 202.5 144.15 201.7 143.35 197 148.8
M 196.5 140.5
Q 194.3 137.5 191.15 139.6 190.5 143.75 193.1 144.65
L 196.5 140.5
M 417.3 145.8
L 424.25 139.2 428.2 139 421.25 150.6 416.3 147.75 410.6 144.6 408.75 148.6 405.55 147.45 404.4 150.45 431.35 166.95 433.9 162.65 431.5 161.1 433.05 157.6 427.65 154.3 426.45 153.65 432.2 142.45 435.75 138.3 434.95 136.95 429.5 136.4 430 135.55 434.6 127.25 423.15 131.85 420.25 139.45 417.3 145.8
M 426.1 157.6
L 425.45 159.05 422.95 157.65 423.45 156.3 426.1 157.6
M 427.65 158.45
L 430.15 159.8 429.45 161.4 427 160.05 427.65 158.45
M 418.6 155.2
L 419.05 153.9 421.65 154.85 421.1 156.4 418.6 155.2
M 417.35 152.65
L 416.7 153.65 414.25 152.15 414.9 150.95 417.35 152.65
M 413.35 150
L 412.75 151.1 410 149.35 410.7 148.35 413.35 150
M 432.6 116.15
L 431.7 116.55 428.6 118.45 429.55 121.2 444.3 112.65 439.55 113.4 432.6 116.15
M 434.95 107.85
L 434.7 110.2 442.1 105.75 434.95 107.85
M 436.35 103.35
L 435.7 104.45 439.8 104.45 442.1 101.45 442.85 102.85 442.75 99.6 436.35 103.35
M 447.6 114.05
L 447.05 112.9 440.25 120.15 430 135.55 436.15 135.85 447.6 114.05
M 454.95 118.25
L 450.65 121.2 443.95 125.7 445.85 129.05 453.7 124.55 457.3 122.4 454.95 118.25
M 452.6 102.4
L 451 99.6 448.8 98.85 447.7 99.45 446.45 101 447.05 104.85 449.45 105.75 451.45 105.05 452.6 102.4
M 447.7 97.85
L 448.8 98.85 448.45 97.95 450.15 98.05 452.2 99.05 454.1 101.55 456.75 104.65 454.65 101 459.25 99.65 454.6 99.15 458.25 95.5 453.5 97.5 454.95 92.2 452.05 96.35 451 91.55 449.9 95.4 446.35 92.1 448.2 96.25 443.7 96.7 447.7 97.85
M 451.85 77.3
L 450.7 76.6 450.6 76.55
Q 450.4 76.55 450.25 76.45 450.1 76.25 449.95 76.1
L 448.5 75.15 447.15 76.05 447.1 77.5 450.35 79.7 452.5 78.55 451.85 77.3
M 444.95 80.6
L 444.45 84.75 446.25 85.9 448.55 83.05 448.9 80.5 446.8 79.5 444.95 80.6
M 478.6 212.35
L 481.15 216.6 493.3 213.3 495.95 218.05 488.15 229.05 490.05 232.35 498.45 221.1 491.65 209.7 478.6 212.35
M 526.9 196.9
L 525.55 194.6
Q 510.7 203.6 494.4 209.25
L 500.1 219.3
Q 512.65 206.65 526.9 196.9
M 532.1 193
L 539.4 187 531.6 191.65 529.8 190.6 526 193 528.4 197.25 532 195.05 532.1 193
M 426.75 551.35
L 425.75 551.25 423.3 545.5 422.75 545.65 424.05 549.3 423.05 550.5 421.6 550.65 419.65 546.85 418.9 547.1 420.3 550.85 419.1 552.3 417.45 552.15 415.45 548.3 414.3 548.75 415.9 552.35 414.5 553.9 412.95 553.45 411.05 549.95 409 550.75 412.25 556.5 411.15 557.1 411.5 557.9 418.9 554.85 420.5 559.95 416.45 559.5 417.6 563.25 422.5 563.5 419.4 554.95 427.1 551.95 426.75 551.35
M 353.3 546.65
L 355.7 551.9 360.2 562.1 364.6 555.1 367.3 550.7 367.2 540.05 353.05 541.3 353.3 546.65
M 353.15 508.4
L 353.1 506.6 328.25 507.1 325.15 508.1 353.15 508.4
M 367.25 527.65
L 367.3 521.15 353.15 521.25 353.1 526.25 367.25 527.65
M 367.25 538.05
L 367.2 529.6 353.05 531.25 353.05 536.3 367.25 538.05
M 367.4 506.5
L 368.05 498.65 359.8 501 353.05 498.8 353.1 506.6 367.4 506.5
M 367.2 518.7
L 367.2 508.4 353.15 508.4 353.1 518.65 367.2 518.7
M 403.05 480.1
Q 402.2 480.65 401.45 481 399.55 481.9 397.8 482.65 396 483.65 394.1 484.45 391.95 485.45 389.85 486.3
L 390.55 488 393 488.1 395.15 486.8 396.25 490 397.3 492.85
Q 397.05 493.55 396.5 493.75 395.9 494 394.9 493.7 394.4 492.65 394 491.6 393.75 491.1 393.6 490.55 393.45 490.1 393.35 489.7 393.1 488.85 393 488.1
L 390.85 488.7 392.75 494.2
Q 392.3 495.6 390.35 495.05 389.65 493.7 389.2 492.3 388.9 491.2 388.55 489.95 388.55 489.8 388.5 489.6
L 388.45 489.6 388.45 489.45 387.8 489.65 386.6 490.35 388.85 497.1 387.85 497.75 388.5 499.05 389.15 498.65 391.8 506.2 392.7 508.6 395.4 515.7
Q 394.85 515.85 394.2 516.1
L 394.85 517.35 395.75 516.8 397.45 521.05 398.35 523.3 397.1 524.05 397.8 525.35 398.55 524.85 401.45 531.9 400.05 532.7 400.85 534.15 401.35 533.8 404.6 541.1 403.35 541.8 403.85 542.8 404.7 542.3 407.55 549.85 408.6 549.3 422.65 544 425.1 542.5 425.5 543.2 423.4 535.9 424.5 535.2 423.8 533.9 423.1 534.3 422.55 533 422.5 532.8 420.2 526.6 421.25 525.95 420.7 524.95 419.5 525 417.65 518.4 418.6 517.8 417.6 516.15 416.85 516.55 414.65 509.3 415.15 509.05 414.35 507.6 413.75 508 411.35 500.9 412.35 500.4 411.45 498.7 410.6 499.2 407.75 491.2 403.05 480.1
M 401.35 487.6
Q 400.95 486.1 400.55 484.6
L 402.6 483.45 404.8 489.5
Q 404.6 490.2 403.95 490.4 403.45 490.55 402.4 490.35 401.75 489 401.35 487.6
M 396.85 486.3
L 398.95 484.95 400.9 490.55 401.1 491.1
Q 400.9 491.8 400.35 492 399.8 492.2 398.7 491.95 398.3 491.1 398 490.15 397.7 489.6 397.5 488.95 397.1 487.7 396.85 486.3
M 402.55 498.05
Q 402.5 497.95 402.5 497.9 402.1 496.65 401.8 495.1
L 403.9 493.8 406.1 499.9
Q 406.1 500.15 406.05 500.25 405.65 500.65 405.25 500.85 404.7 501.1 403.65 500.75 403 499.4 402.55 498.05
M 401.6 498.2
L 401.6 498.25 402.65 501.15
Q 402.5 501.55 402.3 501.9
L 402.15 501.9
Q 402.05 502 401.85 502.05 401.35 502.2 400.85 502.1 400.6 502 400.2 501.95
L 400.15 501.95
Q 399.6 500.75 399.15 499.3
L 399.1 499.25
Q 398.65 497.85 398.35 496.35
L 400.45 495.15 401.6 498.2
M 395.55 500.65
L 395.55 500.55
Q 395.1 499.2 394.8 497.6
L 396.9 496.45 399 502.5
Q 398.9 502.95 398.65 503.15 398.5 503.25 398.4 503.25 398.4 503.4 398.25 503.4 397.6 503.65 396.7 503.4 395.95 502.1 395.55 500.65
M 395.7 503.95
Q 395.6 504.35 395.35 504.6 395.2 504.8 394.9 504.9 394.25 505.15 393.25 504.8 391.95 502.25 391.45 499.2
L 393.55 497.95 394.6 500.9 394.6 501.05 395.7 503.95
M 397.4 506.5
L 399.5 505.2 401.75 511.25
Q 401.55 511.65 401.35 511.9 401.15 512.1 400.9 512.15 400.2 512.4 399.35 512.1 398.65 510.85 398.2 509.45 397.75 507.95 397.4 506.5
M 400.9 505.2
L 403 504 405.15 509.95
Q 405.05 510.3 404.9 510.5 404.75 510.8 404.35 510.9 403.7 511.1 402.7 510.9 402.1 509.45 401.6 508.15
L 401.55 508.1
Q 401.1 506.6 400.9 505.2
M 394.5 510.8
Q 394.05 509.45 393.75 507.95
L 395.85 506.65 398.1 512.65
Q 397.95 512.9 397.9 513.1 397.65 513.55 397.3 513.7 396.65 513.9 395.6 513.6 394.95 512.2 394.55 510.8
L 394.5 510.8
M 396.6 516.1
L 398.7 514.8 399.95 518.25 399.95 518.3 400.95 520.85
Q 400.85 521.1 400.8 521.15
L 400.85 521.2
Q 400.75 521.3 400.7 521.3 400.5 521.7 400.05 521.85 399.7 522.05 399 521.9 398.75 521.85 398.5 521.75 397.95 520.6 397.5 519.3 397.4 519.15 397.4 519 396.9 517.7 396.6 516.1
M 404.15 516.65
Q 403.65 515.2 403.45 513.75
L 405.5 512.5 407.65 518.55
Q 407.5 519.2 406.9 519.4 406.3 519.65 405.5 519.4 405.4 519.4 405.25 519.35 404.75 518.15 404.35 516.9 404.25 516.75 404.15 516.65
M 400.8 517.95
L 400.75 517.9
Q 400.7 517.8 400.65 517.75 400.2 516.3 399.85 514.85
L 402.05 513.55 404.2 519.6
Q 404.15 519.75 404.1 519.75 404.1 519.85 404.05 519.95 403.8 520.3 403.35 520.45 402.9 520.7 402.35 520.5 402.25 520.5 402.05 520.55 401.9 520.55 401.75 520.45 401.2 519.25 400.8 517.95
M 404 526.65
Q 404 526.5 403.95 526.45 403.85 526.45 403.9 526.35 403.5 524.95 403.15 523.55
L 405.3 522.2 406.4 525.35 406.45 525.35 407.5 528.3 407.45 528.35
Q 407.25 529.05 406.65 529.25 406.3 529.35 405.8 529.3 405.65 529.35 405.5 529.3 405.35 529.3 405.1 529.15
L 405.05 529.15
Q 404.45 528 404 526.65
M 402.05 530.55
L 402 530.55
Q 401.75 530.6 401.65 530.45 400.35 527.8 399.8 524.8
L 401.9 523.6 404.05 529.6 404.05 529.65
Q 403.75 530.3 403.25 530.6 402.7 530.75 402.05 530.55
M 402.8 533.35
L 404.85 532.05 407.45 538.85
Q 407.5 539 407.4 539.15 407.35 539.35 407.25 539.55 406.95 539.7 406.75 539.85 406.35 540.05 405.85 539.9 405.45 539.75 405 539.65 403.65 536.75 402.8 533.35
M 408.45 499.45
Q 407.8 499.7 406.85 499.45 406.15 498.05 405.8 496.7 405.25 495.25 404.9 493.8
L 407 492.55 409.25 498.6
Q 409 499.3 408.45 499.45
M 405.15 506.8
Q 405.05 506.65 405 506.55 404.7 505.3 404.35 503.9
L 406.5 502.6 408.65 508.6
Q 408.4 509.35 407.85 509.55 407.3 509.8 406.2 509.55 405.6 508.15 405.15 506.8
M 408.8 505.2
Q 408.4 503.65 408.05 502.15
L 410.15 500.95 412.3 507.05
Q 412.25 507.25 412.1 507.35 411.9 507.85 411.5 507.9 411.05 508.1 410.5 507.95 410.25 507.95 410.15 507.85 410 507.8 409.95 507.85 409.25 506.55 408.8 505.2
M 411.15 510.75
L 413.3 509.6 415.5 515.5
Q 415.35 515.95 415.15 516.15 414.9 516.45 414.65 516.55 414.3 516.6 413.85 516.6 413.6 516.55 413.25 516.5 413.2 516.5 413.05 516.4 413 516.4 412.95 516.3 412.4 515.1 411.95 513.65 411.45 512.3 411.15 510.75
M 407.25 512.55
L 409.4 511.3 410.5 514.2 410.5 514.25 411.6 517.4
Q 411.35 518 410.85 518.15 410.2 518.55 409.15 518.2 409.05 518.1 409 517.85 408.45 516.8 408 515.45 407.95 515.4 407.9 515.1 407.55 513.95 407.25 512.55
M 413.9 519.1
L 416.15 517.75 418.7 524.55
Q 418.4 525.35 417.9 525.45 417.3 525.8 416.25 525.35
L 416.2 525.35
Q 415.4 523.85 414.9 522.3 414.4 520.7 413.9 519.1
M 416.7 528
L 418.8 526.65 421.35 533.4 421.4 533.45
Q 421.25 534.2 420.65 534.4 420.05 534.7 419 534.3
L 418.95 534.3 418.95 534.25
Q 418.2 532.75 417.65 531.15 417.2 529.85 416.9 528.4 416.8 528.25 416.7 528
M 411.25 523.9
Q 411.25 523.85 411.25 523.7 410.8 522.35 410.55 521
L 412.7 519.75 413.75 522.75 413.75 522.8 414.8 525.7
Q 414.8 526 414.65 526.2 414.4 526.55 414 526.65 413.5 526.9 412.45 526.6 411.75 525.3 411.25 523.9
M 407.45 525
Q 407 523.55 406.65 522.1
L 408.75 520.9 410.95 526.95
Q 410.9 526.95 410.95 527 410.75 527.6 410.05 527.8 409.7 527.95 409.1 527.85 408.85 527.85 408.55 527.7 407.9 526.55 407.55 525.3 407.5 525.2 407.45 525
M 409.95 530.6
Q 410 530.5 409.95 530.45
L 412 529.2 413.45 532.85 413.45 532.9 414.65 535.95 414.65 536
Q 414.55 536.05 414.6 536.1 414.6 536.2 414.5 536.2
L 414.6 536.25
Q 414.45 536.4 414.4 536.6 414.15 536.9 413.85 536.95 413.5 537.1 412.95 537
L 412.8 537
Q 412.65 537 412.45 536.95 412.4 536.85 412.35 536.85
L 412.35 536.8
Q 412.25 536.85 412.2 536.8 411.45 535.3 410.95 533.8
L 410.9 533.7
Q 410.3 532.2 409.95 530.6
M 413.45 529.5
Q 413.45 529.35 413.4 529.25
L 415.5 527.85 418.1 534.65 418.1 534.7
Q 418 535.1 417.8 535.25 417.65 535.6 417.35 535.7 416.75 535.85 416.05 535.6
L 415.95 535.6
Q 415.9 535.55 415.75 535.55
L 415.75 535.5 415.65 535.5 415.6 535.45
Q 414.9 534.1 414.3 532.45
L 414.35 532.45
Q 413.85 531 413.45 529.5
M 410.1 534.05
L 410.1 534.1 411.4 537.6
Q 411.35 538.05 411.2 538.3 410.95 538.55 410.65 538.6 410.6 538.6 410.6 538.65
L 410.5 538.6
Q 409.95 538.8 408.95 538.5 408.3 537 407.75 535.4 407.7 535.25 407.65 535.05 407.6 535.05 407.55 535.05 407.15 533.55 406.7 532.2
L 408.8 530.9 410.1 534.05
M 406.1 542.4
L 408.25 541.25 410.4 547.25
Q 410.2 548 409.6 548.2 409 548.45 407.9 548.1 406.7 545.55 406.1 542.4
M 412.9 539.75
L 415.05 538.5 417.2 544.55
Q 417 545.3 416.35 545.5 415.75 545.7 414.75 545.5 414.75 545.35 414.7 545.3 414.1 544.05 413.7 542.7 413.65 542.55 413.7 542.5 413.65 542.45 413.6 542.45 413.15 541.2 412.9 539.75
M 410.2 543.95
Q 409.8 542.55 409.5 541
L 411.55 539.75 413.75 545.75 413.75 545.8
Q 413.55 546.5 412.95 546.65 412.35 546.95 411.6 546.75 411.4 546.75 411.3 546.65 410.7 545.35 410.2 543.95
M 416.35 538.3
L 418.3 537.1 420.5 543.1
Q 420.3 543.8 419.7 543.95 419.15 544.2 418.2 543.95 418.15 543.85 418.05 543.65 417.5 542.55 416.95 541.25 416.55 539.7 416.35 538.3
M 424.3 541.7
Q 424 542.4 423.4 542.6 422.85 542.95 421.8 542.6 421.15 541.25 420.65 539.9 420.2 538.4 419.95 536.95
L 422.05 535.75 424.3 541.7
M 446.5 482.15
L 437.15 481.3 444.95 495.1 446.5 482.15
M 480.15 451.35
L 457.8 449.25 457.75 449.55 477.75 484.7 480.15 451.35
M 130.4 434.35
L 128.55 435.6 140.5 454.1 142.5 452.9 130.4 434.35
M 297.1 541.95
L 297.1 540.65 283.2 539.2 283.15 551.35 285.4 555.15 289.7 562.6 294.5 554.5 296.8 550.6 297.1 541.95
M 297.15 536.9
L 297.1 530.3 283.1 530.15 283.15 537.65 297.15 536.9
M 297.05 527.15
L 297.1 520.35 283.05 520.25 283 527.4 297.05 527.15
M 297.25 506.25
L 297 507.85 325.15 508.1 321.9 507.1 297.25 506.25
M 297.1 517
L 297 507.85 282.9 507.9 283 516.85 297.1 517
M 297.75 499.25
L 297.45 499.1 295.5 498.5 289.75 501.85 281.05 498.15 281.5 506.25 297.25 506.25 297.75 499.25
M 182.35 476
L 200.55 488.8 191.6 504.95 211.25 518.45 221.55 502.5 240.05 515.95 241.35 516.5 242.2 514.7 222.8 500.75 222.8 500.7 237.6 478.4 240.4 479.9 242.05 476.8
Q 239.9 475.65 237.8 474.45
L 221.45 499.85 220.2 498.8 219.45 501.05
Q 214.95 513.65 203.25 508.85 193.65 500.3 202.4 490.05
L 204.15 490.65 204.4 488.85 218.65 465.95 217.35 464.45 202.45 487.5 183.35 473.95 182.35 473.4 181.2 475.25 182.35 476
M 195.75 490.6
L 183.1 481.5 176.75 491 189.95 499.65 195.75 490.6
M 222.1 508.2
L 215.75 517.7 229.5 526.6 235.2 517.5 222.1 508.2
M 247.25 494.4
L 252.05 486.55 243.85 481.8 239.1 488.85 247.25 494.4
M 128.75 346.6
L 125 348.8 128.6 392.9
Q 129.6 394.75 131.15 394.25 132.8 393.75 133.45 391.75
L 128.75 346.6
M 113.15 354.5
L 109.15 354.85 112.3 393.1
Q 112.35 393.45 112.55 393.8 113.35 396.2 114.85 395.8 116.8 395.95 117.25 393.25
L 113.15 354.5
M 144.35 339.65
L 144.3 339.65 144.1 338.25 140.65 340.45 145.2 390.95
Q 145.25 391.15 145.25 391.3
L 143.3 391.45 133.05 423.75 137.15 430.1 132.5 433.05 144.45 451.7 149.05 449 152.9 455.05 192.8 459.2 198.2 450.85 199.85 449.9 204.05 452.8 199.95 460.9 207.1 466.55 211.45 459.5 217.35 464.45 219.5 461.7
Q 212.85 456.25 206.65 450.2 194.25 437.8 184.1 422.3 183.75 421.85 183.35 421.2 180.35 416.5 177.5 411.4 176.2 409.2 175.15 407.05 174.55 406 173.95 404.9 173.9 404.9 173.85 404.8
L 173.9 404.75
Q 168.05 393.6 163.95 382.1
L 161.7 383.05 164.3 390.2 157.05 389.95 168.55 408.3 165.95 410.65 153.05 390 149.05 390.3 144.35 339.65
M 149.2 393.55
L 151.95 391.95 164.7 411.85 162.1 414.2 149.2 393.55
M 169.6 434.1
L 173.25 432.15 183.5 449.4 184.95 450.95 181.1 453.25 169.6 434.1
M 178.25 429.6
L 181.7 427.75 196.5 450.4 192.55 452.7 178.25 429.6 189.85 450.3 186.35 452.45 174.6 431.5 178.25 429.6
M 165.35 436.2
L 168.45 434.6 177.6 449.95 179.3 451.55 175.8 453.65 174.45 451.75 165.35 436.2
M 171.3 409.3
L 181.2 424.4 146.55 444.85 143.95 441.15 140.85 442.95 139.25 440.1 141.9 437.75 139.8 434.3 171.3 409.3
M 167.5 451.65
L 164.5 453.4 156.75 440.7 160.5 438.8 167.5 451.65
M 173.15 451.05
L 170 453.1 161.45 438.3 164.25 436.8 172.05 450.4 173.15 451.05
M 142.5 407.8
L 145.1 406.9 153.8 421.6 151.55 423.7 142.5 407.8
M 144.7 403.45
L 146.75 401.6 157.55 418.15 154.7 420.9 144.7 403.45
M 146.5 398.65
L 149.75 396.65 161.25 414.9 158.55 417.35 146.5 398.65
M 139.55 416.1
L 140.5 414.8 147.55 427.3 146.5 428.3 139.55 416.1
M 151.85 443.15
L 155.7 441.3 161.85 451.9 158.25 454 151.85 443.15
M 144.2 430.3
L 143.35 431.05 137.95 421.45 137.3 418.25 144.2 430.3
M 150.65 424.5
L 148.55 426.3 140.75 412.75 143 411.05 150.65 424.5
M 61 262.4
L 63.3 251.75 44.5 252.55 61 262.4
M 70.45 253.6
L 64.1 252 61.8 262.65 68.05 264.3 70.45 253.6
M 80.95 251.35
L 71.35 253.8 69 264.65 76.5 271.3 80.95 251.35
M 139.45 327.05
L 140.35 339.15 144.1 336.95 142.9 324.95 139.45 327.05
M 109 276.05
L 112.6 263.35 156.6 274.15 151.45 288.85
Q 151.3 292.25 151.05 295.55
L 151.05 295.6
Q 150.95 297.1 150.95 298.65 150.95 301 150.85 303.3 150.75 304.95 150.75 306.6 150.7 308.9 150.65 311.3 150.55 312.75 150.6 314.15 150.5 316.45 150.55 318.7 150.5 320.25 150.55 321.8 150.6 324.05 150.65 326.15 150.65 327.85 150.7 329.45 150.7 331.75 150.85 333.8 151 335.65 151.05 337.2 151.1 339.5 151.35 341.7 151.4 342.85 151.5 344.05 151.65 344.6 151.6 345.25 151.95 347.45 152.4 349.6 152.7 351 152.9 352.35 153.25 354.55 153.7 356.65 154.05 358.35 154.45 360 154.5 360.2 154.6 360.4
L 157.65 359.75
Q 150.4 325.9 157.65 290.1 158.75 284.55 160.2 278.95 160.7 277.2 161.2 275.5 161.7 274.05 161.95 272.55
L 162.05 272.5
Q 164.25 265.25 166.9 258.25
L 164.95 257.5 162.3 259.1 158.65 269.75 157.5 271.2 110.85 258.7 105.55 278.3 137.8 287.45
Q 136.1 288 136.05 290.05
L 139.2 325.4 142.65 323.45 139.95 289.6
Q 139.7 288.4 138.9 287.9
L 143.95 289.35 151.45 288.85 109 276.05
M 87.45 253.05
L 82.1 251.6 77.5 271.65 82.3 273.1 87.45 253.05
M 104 268
Q 104.85 264.75 103.2 261.95 101.65 259.05 98.5 258.2 95.55 257.45 92.95 258.7 92.6 258.8 92.45 258.95 89.6 260.6 88.8 263.8 88.05 267.05 89.55 269.9 91.15 272.75 94.4 273.7 97.5 274.5 100.4 272.85 103.2 271.25 104 268
M 95.4 265.95
L 94 261.05 96.75 266.05 93 270.1 95.4 265.95
M 270.05 123.7
L 264.7 125.85 273.4 153.15 279.55 144.7 270.05 123.7
M 283.9 138.55
L 287.25 133.9
Q 284.6 129.65 281.25 125.75
L 283.9 138.55
M 301.25 130.35
L 296.7 143.65 308.9 147.85
Q 307.8 138.55 301.85 128.5
L 294.95 116.3 297.15 128.25
Q 299.1 129.25 301.25 130.35
M 311.75 116.75
L 311.45 121.1
Q 313.5 122.3 315.65 123.75 321.45 134.45 321.85 146.7
L 325.15 145.75
Q 323.65 130.7 318.35 116.35 315.4 108.55 311.25 101
L 311.75 116.75
M 232.25 139
L 226.35 141.25 235.45 169.45 235.9 172.2 238.35 173.9
Q 239.2 173.5 239.95 173 242.65 171.4 245.4 170
L 243.8 168.05 232.25 139
M 261.2 92.05
Q 271.5 86.55 280.6 80.35
L 284.65 75.5
Q 282.1 77 279.5 78.5 235.2 104.3 183.1 117.25
L 190.6 118.5
Q 191.95 118.15 193.35 117.65 231.75 107.95 261.2 92.05
M 270.7 91.5
Q 267 93.6 263.3 95.6 249.7 103.05 235.5 108.8 217.8 116 199.35 120.85 199 120.9 198.6 120.95
L 200.1 123.6 205.8 122.8 209.55 125.85 219.05 123.3 219.1 123.35 224.1 135.75 230.4 133.2 225.55 120.7 255.9 108.1 262.45 119.8 268.05 117.5 263.45 104.7 272.4 99.4 272.65 95.25 277.05 92.65 277.55 88.55 277 87.75
Q 273.85 89.7 270.7 91.5
M 555.45 375.35
L 548.85 328.8 527.75 413.4 555.45 375.35
M 545.85 328.85
L 538.2 327.1 536.1 329.85 514.45 322.5 504.1 318.95 502.3 315.8 500.5 312.75 497.85 314.3 497.3 314.3
Q 497.55 321.35 497.4 328.6
L 501.8 328.9 535.4 335.8 531.9 352.9 498.6 343.05 496.25 342.8
Q 495.8 347.4 495.05 352.05
L 530.05 359.75 526.2 377 491.95 366.75
Q 491.55 368.15 491.2 369.55 490.4 372.6 489.6 375.6 485.95 387.8 480.95 398.85 475.7 410.75 468.9 421.25
L 469.35 421.75 486.55 451.95 491.65 400.4 517.6 407.3 518.7 409.25 525.6 411.65 526.4 408.3 522.75 407.25 523.85 403.4 527.45 404.3 528.2 401.1 524.75 399.85 525.65 396.2 529.15 397.15 530.05 393.9 526.3 392.65 527.3 388.8 530.95 390.05 531.8 386.6 528.15 385.45 528.8 381.9 532.6 383.1 533.55 379.55 530.05 378.35 530.9 374.85 534.4 375.8 535.35 371.7 532.05 371.15 532.7 367.95 536.15 368.75 537.05 365.15 533.4 363.8 534.5 360.3 537.9 361.55 538.8 357.95 535.4 357 536 353.4 539.7 354 540.45 351 537.4 349.85 538.4 345.75 541.5 346.65 542.4 343 538.85 342.45 539.8 338.8 543.25 339.5 544.1 336.15 539.85 334.85 540.8 331.6 545.15 331.95 545.85 328.85
M 490.9 376.05
L 523.95 384.05 519.8 399.95 486.85 391.15 490.9 376.05
M 543.1 232.85
L 540.4 236.35 543.9 254.55 536.7 238.85 551.55 305.7 552.25 288.4 556.3 307.2 560.45 308.6 543.1 232.85
M 548.2 283
L 543.3 261.1 548.15 260.2 553 281.85 548.2 283
M 532.6 229.4
L 530.95 231.1 550.55 316.35 552.35 317.05 532.6 229.4
M 474.3 212.75
L 473.45 213 462.25 216.25 461.1 217.15
Q 462.75 219.45 464.35 221.8 469.45 229.1 473.95 237.1 476.55 241.6 478.85 246.1
L 483.15 244.05 487.1 235.3 474.3 212.75
M 477.6 227
Q 481.5 233.8 478.25 240.1
L 466.9 220
Q 474.9 221.3 477.6 227
M 472.05 164.35
Q 470.25 165.4 469.9 167.6 469.3 169.7 470.45 171.65 471.55 173.6 473.55 174.2 475.5 174.8 477.4 173.75 479.1 172.75 479.6 170.65 479.6 170.55 479.65 170.55 480.05 168.55 478.95 166.7 478.6 166.05 478.35 165.65 478.2 165.45 478.1 165.4 477.15 164.4 475.85 164 474.6 163.65 473.45 163.9 472.65 164 472.05 164.35
M 472.25 169.25
L 474.65 168.9 476.8 167 475.1 169.7 472.25 169.25
M 439.15 189.5
L 440.3 191.5 440.8 190.9 450.95 180.65 451.05 180.55 451.7 181.65 450.8 184.25 451.6 185.6 454.75 182.55 455.35 183.75 452.85 186.95 454.65 188.5 457.3 185.6 458 187.05 456.15 189.65 457.4 191.85 460.1 188.85 460.85 190.15 458.75 192.5 459.9 194.5 462.8 191.9 463.6 193.3 453.45 203.6 454.6 205.75 465.7 194.2 466.35 195.1 474.4 184.6 476.15 184.55 480.75 177 476.9 178.8 474.25 181.95 468.85 176.9 467.4 183.45 463.45 187.15 456.65 180.65 460.3 175.9 458.35 173.85 461.9 172.4 460.3 175.9 466.6 174.45 462.95 170.2 463.8 169.5 466.8 163.3 460.6 167.6 449.55 178.75 439.15 189.5
M 467.95 184.25
L 471.95 182.55 470.4 187.15 467.95 184.25
M 344.75 132
Q 341.8 141.55 336.15 146.35 342.25 146.85 348.9 148.25 347.35 139.35 344.75 132
M 371.55 140.5
L 378.45 126.05
Q 358.45 123.65 344.75 132
L 363.15 150.75 366.1 151.75 371.55 140.5
M 401.3 142.2
Q 401.45 142.1 401.65 141.9 404.35 139.85 407.4 137.8 393.8 135.65 385.35 142.85
L 391.25 153.2
Q 394.85 147.45 401.15 142.25 401.2 142.25 401.3 142.2
M 385.35 142.85
Q 377.3 137.1 371.55 140.5
L 377.65 158.05 385.35 142.85
M 488.65 148.65
L 488.8 148.35 484.35 150.35 482.7 152.25 485.55 155.4 488.65 148.65
M 488.65 162.65
L 489.7 161.95 481.8 153.35 481 154.35 488.65 162.65
M 488.35 151.95
L 492.25 150.9 491.8 154.85 502.9 141.25 488.35 151.95
M 494.4 154.85
L 488.4 158.45 490.9 161.25 493.2 160 495.5 154.3 494.4 154.85 Z"/>

<path fill="#8dcac7" stroke="none" d="
M 221.75 551.25
L 221.55 547.95 159.8 506.3 157.2 507.6 221.75 551.25
M 229.45 544.4
L 231 542.3 162 495.45 160.7 497.7 163.65 499.85 225.7 541.8 229.45 544.4
M 174.5 233.3
L 178.95 225.5 178.9 225.45 165.2 214.95 159.65 221.85 174.5 233.3
M 146.35 258.4
L 151.05 251.55 142.85 246.15 138.75 251.4 146.35 258.4
M 161.05 244.15
L 161.25 244.65 164.5 240.55 163.85 240.25 161.05 244.15
M 158.8 236.8
L 158.25 236.45 155.9 239.6 156.4 240.05 156.65 239.5 158.8 236.8
M 150.35 230.8
Q 149.6 229.65 147.75 230.4 147.1 232 148.7 232.85
L 150.15 230.95 150.25 231 150.35 230.8
M 152.8 233.2
L 152.85 233.2 153.15 232.9 152.6 232.2 150.55 235.15 150.95 235.4 151.5 235.05 152.8 233.2
M 131.05 238.15
L 128.2 242.1 135.8 248.55 139.15 243.8 131.05 238.15
M 122.1 236.55
L 125.15 239.55 128.1 235.8 124.9 233.1 122.1 236.55
M 156.2 218.2
L 160.7 212.55
Q 160.6 210.5 159.05 209.65 155.9 208.4 152.75 211.1 151.55 214.45 153.6 217.15 154.55 218.6 156.2 218.2
M 207 174.7
L 206.6 174.4 206.15 174.7 204 177.3 204.4 177.85 207 174.7
M 212.45 178.8
L 211.9 178.6 211.6 178.9 208.7 182.25 209.15 182.8 212.45 178.8
M 217.1 167.2
L 222.65 161.15 214.4 154.95 210.15 160 217.1 167.2
M 207.25 156.8
L 211.2 152.5 203.55 146.15 200.15 149.8 207.25 156.8
M 177.45 178.1
Q 176.3 181.45 178.3 184.2 178.75 184.9 179.45 185.2 180.1 185.4 180.95 185.2
L 185.45 179.65
Q 185.25 177.55 183.8 176.7 180.65 175.45 177.45 178.1
M 195.55 204.95
L 197.1 203.25 180.85 190.6 165.4 210.7 180.35 223.45 182 221.55 168.35 210.35 180.95 193.8 195.55 204.95
M 155.3 179.55
Q 153.35 185.4 148.7 188.6 147.8 202.35 159.6 206.35 168.6 197.25 175.2 185.65 169.3 174.15 155.3 179.55
M 190 181.85
L 184.35 189.1 198.45 201.5 205.05 194.3 190 181.85
M 191.6 191.4
Q 191.25 190.2 191.8 188.9 192.9 187.8 194.85 188.6
L 198.4 191.25 195.35 194.9 191.6 191.4
M 198.9 172.5
L 199.55 173 199.75 172.65 199.85 172.6 201.3 170.9 201.45 170.3 201.15 169.95 199.25 172 199.15 172.2 198.9 172.5
M 197.05 170.5
L 197.1 170.35 198.55 168.5
Q 197.55 167 196.1 168.15 195.75 170.05 197.05 170.5
M 200.5 143.7
L 196.9 141.25 194.15 144.65 197.35 147.35 200.5 143.7
M 452.45 73.75
L 451.45 73.55
Q 451.35 73.55 451.2 73.65 451 73.5 450.75 73.8 450.5 74.25 450.6 74.35
L 450.55 75.4 450.7 75.6 450.9 75.65
Q 450.95 75.6 451.3 75.45
L 452.55 74.8
Q 452.45 74.3 452.45 73.75
M 417.3 145.8
L 416.3 147.75 421.25 150.6 428.2 139 424.25 139.2 417.3 145.8
M 447.05 104.85
L 446.45 101 443.6 104.3 442.85 102.85 442.1 101.45 439.8 104.45 435.7 104.45 434.95 107.85 442.1 105.75 434.7 110.2 432.6 116.15 439.55 113.4 444.3 112.65 429.55 121.2 423.15 131.85 434.6 127.25 430 135.55 440.25 120.15 447.05 112.9 447.6 114.05 436.15 135.85 430 135.55 429.5 136.4 434.95 136.95 435.75 138.3 432.2 142.45 426.45 153.65 427.65 154.3 434.45 143.45 435.1 144.75 443 130.65 443.75 131.95 449.7 128.5 453.7 124.55 445.85 129.05 443.95 125.7 450.65 121.2 451.85 113.8 450.1 110.9 451.45 105.05 449.45 105.75 448.3 109.3 444 106.6 447.05 104.85
M 446.25 85.9
L 444.45 84.75 436.35 103.35 442.75 99.6 441.65 97.65 446.25 85.9
M 448.45 97.95
L 448.8 98.85 451 99.6 452.6 102.4 454.1 101.55 452.2 99.05 450.15 98.05 448.45 97.95
M 447.1 77.5
L 446.8 79.5 448.9 80.5 450.35 79.7 447.1 77.5
M 498.45 221.1
L 500.9 220.85 500.1 219.3 494.4 209.25 493.5 207.8 491.65 209.7 498.45 221.1
M 481.15 216.6
L 478.6 212.35 477.8 210.8 475.5 212.15 488.6 235.45 491.05 234.1 490.05 232.35 488.15 229.05 481.15 216.6
M 425.1 542.5
L 422.65 544 408.6 549.3 407.55 549.85 406.5 550.5 407.3 551.6 409 550.75 411.05 549.95 414.3 548.75 415.45 548.3 418.9 547.1 419.65 546.85 422.75 545.65 423.3 545.5 425.85 543.95 425.5 543.2 425.1 542.5
M 364.6 555.1
L 366.05 557.75 367.3 550.7 364.6 555.1
M 355.7 551.9
L 353.3 546.65 352.95 550.7 354 557.25 355.7 551.9
M 353.05 498.8
L 359.8 501 368.05 498.65 368.25 494.85 353.05 498.8
M 353.1 506.6
L 353.05 498.8 328.25 507.1 353.1 506.6
M 367.3 521.15
L 367.2 518.7 353.1 518.65 353.15 521.25 367.3 521.15
M 367.2 540.05
L 367.25 538.05 353.05 536.3 353.05 541.3 367.2 540.05
M 367.2 529.6
L 367.25 527.65 353.1 526.25 353.05 531.25 367.2 529.6
M 392.7 508.6
L 391.8 506.2 367.4 506.5 353.1 506.6 353.15 508.4 367.2 508.4 392.7 508.6
M 394.85 517.35
L 394.2 516.1
Q 375.7 524.55 367.25 538.05 380.85 526.8 397.45 521.05
L 395.75 516.8 394.85 517.35
M 393 488.1
Q 393.1 488.85 393.35 489.7
L 396.25 490 395.15 486.8 393 488.1
M 398.95 484.95
L 396.85 486.3
Q 397.1 487.7 397.5 488.95 397.7 489.6 398 490.15
L 400.9 490.55 398.95 484.95
M 400.55 484.6
Q 400.95 486.1 401.35 487.6 401.75 489 402.4 490.35 403.45 490.55 403.95 490.4 404.6 490.2 404.8 489.5
L 402.6 483.45 400.55 484.6
M 468.9 421.25
Q 461.3 433.15 451.65 443.35
L 451.7 443.45
Q 449.6 445.7 447.45 447.8 431.85 463.55 411.55 475.45 409.1 476.8 406.8 478.15 404.8 479.2 403.05 480.1
L 407.75 491.2 444.95 495.1 437.15 481.3 446.5 482.15 477.75 484.7 457.75 449.55 457.8 449.25 480.15 451.35 486.55 451.95 469.35 421.75 468.9 421.25
M 132.5 433.05
L 130.4 434.35 142.5 452.9 144.45 451.7 132.5 433.05
M 128.55 435.6
L 126.65 436.9 138.55 455.15 140.5 454.1 128.55 435.6
M 284.2 559.85
L 285.4 555.15 283.15 551.35 284.2 559.85
M 296.4 558.5
L 296.8 550.6 294.5 554.5 296.4 558.5
M 297.1 520.35
L 297.1 517 283 516.85 283.05 520.25 297.1 520.35
M 297.1 540.65
L 297.15 536.9 283.15 537.65 283.2 539.2 297.1 540.65
M 297.1 540.65
L 297.1 541.95 297.05 545.65 353.3 546.65 353.05 541.3 297.1 540.65
M 297.1 530.3
L 297.05 527.15 283 527.4 283.1 530.15 297.1 530.3
M 297.75 499.25
L 297.25 506.25 321.9 507.1 297.75 499.25
M 200.55 488.8
L 182.35 476 171.8 491.4 191.6 504.95 200.55 488.8
M 183.1 481.5
L 195.75 490.6 189.95 499.65 176.75 491 183.1 481.5
M 199.85 449.9
L 198.2 450.85 192.8 459.2 183.35 473.95 202.45 487.5 217.35 464.45 211.45 459.5 207.1 466.55 199.95 460.9 204.05 452.8 199.85 449.9
M 281.55 492.8
Q 281.15 492.75 280.85 492.65
L 281.05 498.15 289.75 501.85 295.5 498.5 297.45 499.1 298.3 496.6 298.2 496.6
Q 297.05 496.35 296.05 496.3 288.75 494.8 281.55 492.8
M 252.05 486.55
L 247.25 494.4 239.1 488.85 243.85 481.8 240.4 479.9 237.6 478.4 222.8 500.7 222.8 500.75 242.2 514.7 241.35 516.5 240.05 515.95 221.55 502.5 211.25 518.45 230.5 531.65 238.25 519.05
Q 266.95 522.3 283.15 537.65 265.75 515.35 243.3 513
L 246.4 508.1 282.9 507.9 297 507.85 297.25 506.25 281.5 506.25 247.5 506.4 257.8 489.75 252.05 486.55
M 215.75 517.7
L 222.1 508.2 235.2 517.5 229.5 526.6 215.75 517.7
M 98.75 361.05
L 95.8 358.65 99.15 397.1 101.5 394.55 112.55 393.8
Q 112.35 393.45 112.3 393.1
L 109.15 354.85 98.75 361.05
M 101.8 368.65
L 106.7 368.4 106.85 372.35 102.15 372.7 101.8 368.65
M 108.5 388
L 103.8 387.95 103.3 383.9 108.1 383.45 108.5 388
M 148.55 426.3
L 150.65 424.5 143 411.05 140.75 412.75 148.55 426.3
M 143.35 431.05
L 144.2 430.3 137.3 418.25 137.95 421.45 143.35 431.05
M 155.7 441.3
L 151.85 443.15 158.25 454 161.85 451.9 155.7 441.3
M 140.5 414.8
L 139.55 416.1 146.5 428.3 147.55 427.3 140.5 414.8
M 149.75 396.65
L 146.5 398.65 158.55 417.35 161.25 414.9 149.75 396.65
M 146.75 401.6
L 144.7 403.45 154.7 420.9 157.55 418.15 146.75 401.6
M 145.1 406.9
L 142.5 407.8 151.55 423.7 153.8 421.6 145.1 406.9
M 170 453.1
L 173.15 451.05 172.05 450.4 164.25 436.8 161.45 438.3 170 453.1
M 164.5 453.4
L 167.5 451.65 160.5 438.8 156.75 440.7 164.5 453.4
M 181.2 424.4
L 171.3 409.3 139.8 434.3 141.9 437.75 139.25 440.1 140.85 442.95 143.95 441.15 146.55 444.85 181.2 424.4
M 168.45 434.6
L 165.35 436.2 174.45 451.75 175.8 453.65 179.3 451.55 177.6 449.95 168.45 434.6
M 178.25 429.6
L 174.6 431.5 186.35 452.45 189.85 450.3 178.25 429.6
M 181.7 427.75
L 178.25 429.6 192.55 452.7 196.5 450.4 181.7 427.75
M 173.25 432.15
L 169.6 434.1 181.1 453.25 184.95 450.95 183.5 449.4 173.25 432.15
M 151.95 391.95
L 149.2 393.55 162.1 414.2 164.7 411.85 151.95 391.95
M 76.5 271.3
L 77.5 271.65 82.1 251.6 80.95 251.35 76.5 271.3
M 68.05 264.3
L 69 264.65 71.35 253.8 70.45 253.6 68.05 264.3
M 64.1 252
L 63.3 251.75 61 262.4 61.8 262.65 64.1 252
M 151.45 288.85
L 143.95 289.35 139.95 289.6 142.65 323.45 139.2 325.4 136.05 290.05 115.3 291.3 119.5 338.35 122.95 338.45 123.4 348.5 113 353.8 113.15 354.5 117.25 393.25 128.6 392.9 125 348.8 128.75 346.6 133.45 391.75 143.3 391.45 145.25 391.3
Q 145.25 391.15 145.2 390.95
L 140.65 340.45 144.1 338.25 144.3 339.65 144.35 339.65 149.05 390.3 153.05 390 165.95 410.65 168.55 408.3 157.05 389.95 164.3 390.2 161.7 383.05 156.9 369.9
Q 156.7 369.1 156.5 368.25
L 156.75 372.25 156.3 372.5 151.4 372.35
Q 149.8 371.45 149.65 370.4 149.5 370.15 149.7 369.8 149.8 369.1 151.5 367.8
L 156.2 367.55
Q 155.85 366 155.5 364.5
L 151.5 364.45
Q 149.25 363.7 149.3 362.25 149.85 360.75 151.6 360.3
L 154.45 360
Q 154.05 358.35 153.7 356.65
L 150.7 356.7
Q 148.4 356 148.5 354.45 149.05 352.9 150.7 352.55
L 152.9 352.35
Q 152.7 351 152.4 349.6
L 149.65 349.7
Q 147.5 348.9 147.6 347.4 148 345.85 149.75 345.5
L 151.6 345.25
Q 151.65 344.6 151.5 344.05 151.4 342.85 151.35 341.7
L 148.9 341.7
Q 146.6 340.95 146.8 339.4 147.25 338 148.95 337.5
L 151.05 337.2
Q 151 335.65 150.85 333.8
L 148.45 333.85
Q 146.3 333.15 146.4 331.6 146.85 330.1 148.55 329.7
L 150.7 329.45
Q 150.65 327.85 150.65 326.15
L 148.1 326.25
Q 145.75 325.55 145.9 324.05 146.5 322.5 148.05 322.15
L 150.55 321.8
Q 150.5 320.25 150.55 318.7
L 147.05 318.75
Q 144.9 318.05 145 316.5 145.55 315 147.15 314.6
L 150.6 314.15
Q 150.55 312.75 150.65 311.3
L 146.25 311.25
Q 143.95 310.55 144.05 308.95 144.55 307.55 146.3 307.1
L 150.75 306.6
Q 150.75 304.95 150.85 303.3
L 146.3 303.35
Q 144.05 302.6 144.15 301.05 144.55 299.65 146.35 299.2
L 150.95 298.65
Q 150.95 297.1 151.05 295.6
L 151.05 295.55
Q 151.3 292.25 151.45 288.85
M 134.2 296.95
L 129.05 296.95
Q 127.95 296.6 127.4 296.05 126.9 295.4 127.05 294.65 127.4 293.2 129.1 292.85
L 133.8 292.25 134.2 296.95
M 145.55 295.6
Q 143.3 294.95 143.45 293.35 143.95 291.8 145.65 291.5
L 150.35 290.85 150.7 295.55 145.55 295.6
M 134.55 299.9
L 134.95 304.65 129.85 304.7
Q 127.5 304 127.65 302.35 128.2 300.85 129.85 300.45
L 134.55 299.9
M 123.2 297.7
L 123.3 301.4 118.4 301.85 118.25 297.85 123.2 297.7
M 131.25 319.95
Q 129.1 319.2 129.2 317.75 129.65 316.2 131.4 315.9
L 136 315.2 136.5 319.9 136.4 319.85 131.25 319.95
M 130.65 312.45
Q 129.1 311.85 128.65 311 128.45 310.7 128.5 310.1 128.95 308.55 130.7 308.2
L 135.35 307.55 135.8 312.4 130.65 312.45
M 124.45 312.55
L 124.3 316.5 119.7 317 119.5 312.95 124.45 312.55
M 136.5 322.9
L 136.8 327.6 131.75 327.55
Q 130.6 327.2 130.05 326.6 129.65 326.05 129.65 325.35 130.1 323.85 131.85 323.4
L 136.5 322.9
M 132.45 331.25
L 137.15 330.8 137.55 335.4 132.45 335.4
Q 130.15 334.65 130.35 333.15 130.8 331.7 132.45 331.25
M 125.6 328.5
L 125.75 332 121 332.35 120.65 328.45 125.6 328.5
M 134.1 343.45
Q 132.5 343.2 131.65 342.65 130.95 342.15 131 341.35 131.15 339.3 133.75 338.45
L 138.1 338.35 138.45 341 134.1 343.45
M 140.35 339.15
L 139.45 327.05 142.9 324.95 144.1 336.95 140.35 339.15
M 119.65 367.25
Q 117.45 366.45 117.55 365 118.05 363.55 119.75 363.15
L 124.25 362.55 124.45 362.55 124.85 367.25 119.65 367.25
M 117.5 356.35
Q 118.05 355.8 118.8 355.65
L 123.6 355.1 124 359.75 118.85 359.85
Q 116.65 359.05 116.75 357.55 116.95 356.75 117.5 356.35
M 120.85 382.55
Q 118.6 381.8 118.7 380.35 119.15 378.8 120.85 378.35
L 125.55 377.8 125.95 382.55 120.85 382.55
M 120.05 374.8
Q 117.9 374 118.05 372.45 118.5 371 120.2 370.6
L 124.9 370 125.25 374.75 120.05 374.8
M 132.35 356.1
Q 132.95 354.6 134.65 354.2
L 139.2 353.7 139.7 358.3 134.5 358.35
Q 132.3 357.65 132.35 356.1
M 133.95 350.9
Q 131.7 350.15 131.75 348.65 132.3 347.1 134 346.75
L 138.7 346.2 139.1 350.9 133.95 350.9
M 136.1 369.45
L 140.7 368.9 141.15 373.55 136.05 373.6
Q 133.8 372.9 133.95 371.35 134.45 369.8 136.1 369.45
M 135.35 365.85
Q 133.1 365.1 133.25 363.55 133.65 362.1 135.4 361.65
L 140.1 361.1 140.5 365.85 135.35 365.85
M 141.55 376.45
L 141.65 376.5 142 381.15 136.95 381.2
Q 134.65 380.45 134.8 378.95 135.25 377.4 136.95 377.05
L 141.55 376.45
M 121.6 386.1
L 126.2 385.5 126.6 390.3 121.5 390.35
Q 119.25 389.5 119.4 388.05 119.8 386.5 121.6 386.1
M 137.2 389.05
Q 134.95 388.2 135.15 386.7 135.5 385.3 137.3 384.8
L 141.95 384.25 142.3 388.95 137.2 389.05
M 157.95 382.45
L 158 382.45 158.45 387.1 153.3 387.1
Q 151.1 386.45 151.25 384.9 151.65 383.45 153.45 383.15
L 157.95 382.45
M 152.7 375.8
L 157.25 375.25 157.65 379.95 152.6 380
Q 150.4 379.2 150.4 377.65 150.85 376.15 152.7 375.8
M 149.2 260.85
L 158.65 269.75 162.3 259.1 154.35 253.85 149.2 260.85
M 112.6 263.35
L 109 276.05 151.45 288.85 156.6 274.15 112.6 263.35
M 110.85 258.7
L 111.1 257.35 88 250.9 87.45 253.05 82.3 273.1 81.85 274.75 104.8 280.65 105.55 278.3 110.85 258.7
M 103.2 261.95
Q 104.85 264.75 104 268 103.2 271.25 100.4 272.85 97.5 274.5 94.4 273.7 91.15 272.75 89.55 269.9 88.05 267.05 88.8 263.8 89.6 260.6 92.45 258.95 92.6 258.8 92.95 258.7 95.55 257.45 98.5 258.2 101.65 259.05 103.2 261.95
M 94 261.05
L 95.4 265.95 93 270.1 96.75 266.05 94 261.05
M 235.9 172.2
L 225.7 163.5 220 169.95 226.45 176.85 238.2 174.1 235.9 172.2
M 214.1 139.95
L 217 145 226.35 141.25 232.25 139 264.7 125.85 270.05 123.7 278.9 120.25 278.15 113.35 268.05 117.5 262.45 119.8 230.4 133.2 224.1 135.75 214.1 139.95
M 263.3 95.6
Q 267 93.6 270.7 91.5 273.85 89.7 277 87.75 278.7 86.65 280.4 85.65
L 280.6 80.35
Q 271.5 86.55 261.2 92.05 231.75 107.95 193.35 117.65 191.95 118.15 190.6 118.5
L 194.2 121.55 198.6 120.95
Q 199 120.9 199.35 120.85 217.8 116 235.5 108.8 249.7 103.05 263.3 95.6
M 546.15 327.6
L 545.85 328.85 545.15 331.95 544.1 336.15 543.25 339.5 542.4 343 541.5 346.65 540.45 351 539.7 354 538.8 357.95 537.9 361.55 537.05 365.15 536.15 368.75 535.35 371.7 534.4 375.8 533.55 379.55 532.6 383.1 531.8 386.6 530.95 390.05 530.05 393.9 529.15 397.15 528.2 401.1 527.45 404.3 526.4 408.3 525.6 411.65 527.75 413.4 548.85 328.8 546.15 327.6
M 543.3 261.1
L 548.2 283 553 281.85 548.15 260.2 543.3 261.1
M 536.25 237
L 534.2 227.8 532.6 229.4 552.35 317.05 554.25 317.8 552 307.7 556.3 307.2 552.25 288.4 551.55 305.7 536.7 238.85 543.9 254.55 540.4 236.35 536.25 237
M 483.15 244.05
L 478.85 246.1
Q 480.55 249.65 482.2 253 483.75 256.3 484.9 259.65 487.65 266.55 489.85 273.4 489.95 273.55 489.95 273.6 492.2 280.8 493.75 287.95
L 495.45 287.7 496.8 294.8 537.75 286.65 539.05 293.1 497.65 302.85 499.45 310.55 541.05 300.7 542.45 307.15 502.3 315.8 504.1 318.95 514.45 322.5 545.9 315.1 550.55 316.35 530.95 231.1 525.3 234.45 483.15 244.05
M 491.7 273.1
L 489.65 266.3 531.2 257.35 532.55 264 491.7 273.1
M 495.35 287.65
L 493.95 280.9 534.75 271.45 535.95 278.2 495.35 287.65
M 529.25 249.05
L 486.9 258.8 484.6 251.85 528.1 242.05 529.25 249.05
M 466.8 195.9
L 466.35 195.1 465.7 194.2 454.6 205.75 453 207.15
Q 457.25 211.95 461.1 217.15
L 462.25 216.25 473.45 213 478.05 207.8 477.45 206.7 474.2 209.55 472.95 207.4 475.2 204.65 474.6 203.6 470.95 205.85 470.35 204.65 472.55 201.7 471.95 200.8 468.75 203.65 467.75 201.9 469.7 198.95 469 197.7 465.85 200.6 465 199 466.8 195.9
M 458.35 173.85
L 460.3 175.9 461.9 172.4 458.35 173.85
M 474.5 158.85
L 471.65 160.55 472.55 162.1 463.8 169.5 462.95 170.2 466.6 174.45 460.3 175.9 456.65 180.65 463.45 187.15 467.4 183.45 468.85 176.9 474.25 181.95 476.9 178.8 484.55 170.05 482.25 170.15 481.75 169.3 488.65 162.65 481 154.35 474.5 161.9 473.95 161.05 474.5 158.85
M 469.9 167.6
Q 470.25 165.4 472.05 164.35 472.65 164 473.45 163.9 474.6 163.65 475.85 164 477.15 164.4 478.1 165.4 478.2 165.45 478.35 165.65 478.6 166.05 478.95 166.7 480.05 168.55 479.65 170.55 479.6 170.55 479.6 170.65 479.1 172.75 477.4 173.75 475.5 174.8 473.55 174.2 471.55 173.6 470.45 171.65 469.3 169.7 469.9 167.6
M 474.65 168.9
L 472.25 169.25 475.1 169.7 476.8 167 474.65 168.9
M 440.8 190.9
L 444.35 194.55
Q 449.55 189.25 452.3 192.4 454.7 195.4 450.2 200.65
L 453.45 203.6 463.6 193.3 462.8 191.9 459.9 194.5 458.75 192.5 460.85 190.15 460.1 188.85 457.4 191.85 456.15 189.65 458 187.05 457.3 185.6 454.65 188.5 452.85 186.95 455.35 183.75 454.75 182.55 451.6 185.6 450.8 184.25 451.7 181.65 450.95 180.65 440.8 190.9
M 471.95 182.55
L 467.95 184.25 470.4 187.15 471.95 182.55
M 404.6 152.5
L 398.7 163.45 394.8 161.75 391.25 153.2 385.35 142.85 377.65 158.05
Q 386.35 160.75 394.45 164.25 396.1 165.05 397.7 165.8 401.55 167.55 405.3 169.45 407.45 170.55 409.5 171.75 411.85 173.05 414.15 174.4 415.1 174.95 416.05 175.55 419.8 177.85 423.35 180.35 431.55 186.05 439.1 192.85
L 440.3 191.5 439.15 189.5 449.55 178.75 448.65 177.25 445.4 180.1 444.35 178.45 447.05 175.25 445.55 174.35 442.25 176.25 441.65 175.1 443.75 172.65 443.1 171.45 440.2 174.25 439.15 172.45 440.95 169.5 440.1 168.05 437.05 171 436.3 169.5 437.85 167.15 437.05 165.8 424.25 178.95 429.5 167.15 422.8 163.25 422.75 163.2 416.25 159.3 416.2 159.25 404.6 152.5
M 408 157.3
L 410.6 158.65 406.35 167.35 403.6 165.45 408 157.3
M 415.1 161.2
L 410.55 169.75 408.35 168.1 412.15 159.6 415.15 161.2 415.1 161.2
M 415.1 172.7
L 412.65 170.95 417.05 162.35 419.7 163.9 415.1 172.7
M 421.85 164.5
L 424.35 166.15 419.35 174.9 417.05 173.9 421.85 164.5
M 336.15 146.35
Q 341.8 141.55 344.75 132 334.8 103.9 311.25 101 315.4 108.55 318.35 116.35 323.65 130.7 325.15 145.75
L 321.85 146.7
Q 321.45 134.45 315.65 123.75 313.5 122.3 311.45 121.1 302.75 116.3 294.95 116.3
L 301.85 128.5
Q 307.8 138.55 308.9 147.85
L 296.7 143.65 301.25 130.35
Q 299.1 129.25 297.15 128.25 288.55 124.55 281.25 125.75 284.6 129.65 287.25 133.9
L 283.9 138.55 279.55 144.7 273.4 153.15 269.9 158.1 270.15 158.8
Q 290.3 151.55 311.4 149.85 329.6 148.35 348.4 151.2 355.35 152.2 362.4 153.85 362.4 153.9 362.45 153.9 364 154.15 365.5 154.5 367.65 155.15 370 155.65 373.8 156.8 377.65 158.05
L 371.55 140.5 366.1 151.75 363.15 150.75 344.75 132
Q 347.35 139.35 348.9 148.25 342.25 146.85 336.15 146.35
M 488.4 158.45
L 494.4 154.85 502.9 141.25 491.8 154.85 492.25 150.9 488.35 151.95 502.9 141.25 488.65 148.65 485.55 155.4 482.7 152.25 481.8 153.35 489.7 161.95 490.9 161.25 488.4 158.45 Z"/>
</g>
</defs>

<g transform="matrix( 1, 0, 0, 1, 0,0) ">
<use xlink:href="#Layer1_0_FILL"/>
</g>
</svg>
